<!-- Generator: Adobe Illustrator 18.1.1, SVG Export Plug-In  -->
<svg version="1.1"
	 xmlns="http://www.w3.org/2000/svg" xmlns:xlink="http://www.w3.org/1999/xlink" xmlns:a="http://ns.adobe.com/AdobeSVGViewerExtensions/3.0/"
	 x="0px" y="0px" width="47.805px" height="26.24px" viewBox="0 0 47.805 26.24" enable-background="new 0 0 47.805 26.24"
	 xml:space="preserve">
<defs>
</defs>
<g>
	<path d="M2.258,11.416H0.321v-1.23h1.938V5.92h1.45v4.266h2.104v1.23H3.708v9.164h-1.45V11.416z"/>
	<path d="M15.21,21.037c-1.529,0-2.876-0.566-4.041-1.699c-1.085-1.055-1.628-2.367-1.628-3.938c0-1.555,0.553-2.877,1.658-3.967
		c1.105-1.09,2.442-1.635,4.011-1.635c1.601,0,2.963,0.547,4.088,1.641s1.688,2.414,1.688,3.961c0,1.539-0.555,2.852-1.664,3.938
		C18.166,20.471,16.795,21.037,15.21,21.037z M15.258,19.689c1.188,0,2.183-0.422,2.983-1.266c0.776-0.82,1.165-1.82,1.165-3
		c0-1.188-0.392-2.197-1.176-3.029c-0.785-0.832-1.775-1.248-2.971-1.248c-1.197,0-2.185,0.416-2.965,1.248
		c-0.781,0.832-1.171,1.842-1.171,3.029c0,1.18,0.388,2.18,1.165,3C13.079,19.268,14.069,19.689,15.258,19.689z"/>
	<path d="M27.89,10.186v5.191c0,1.367,0.159,2.363,0.477,2.988c0.452,0.883,1.294,1.324,2.524,1.324
		c1.223,0,2.064-0.445,2.525-1.336c0.333-0.633,0.5-1.625,0.5-2.977v-5.191h1.45v5.93c0,3.281-1.482,4.922-4.445,4.922
		c-2.987,0-4.48-1.641-4.48-4.922v-5.93H27.89z"/>
	<path d="M43.147,12.271c0.993-1.648,2.129-2.473,3.408-2.473c0.397,0,0.814,0.074,1.251,0.223l-0.477,1.359
		c-0.374-0.109-0.703-0.164-0.989-0.164c-1.009,0-1.815,0.48-2.419,1.441c-0.517,0.82-0.775,1.758-0.775,2.812v5.109h-1.45V10.186
		h1.45V12.271z"/>
</g>
</svg>