<!-- Generator: Adobe Illustrator 19.0.0, SVG Export Plug-In  -->
<svg version="1.1"
	 xmlns="http://www.w3.org/2000/svg" xmlns:xlink="http://www.w3.org/1999/xlink" xmlns:a="http://ns.adobe.com/AdobeSVGViewerExtensions/3.0/"
	 x="0px" y="0px" width="450.495px" height="64.324px" viewBox="0 0 450.495 64.324"
	 style="enable-background:new 0 0 450.495 64.324;" xml:space="preserve">
<style type="text/css">
	.st0{fill:#FCFCFC;}
</style>
<defs>
</defs>
<g id="XMLID_38_">
	<path id="XMLID_59_" class="st0" d="M0,49.951V21.366h3.771v4.415c2.32-3.652,5.683-5.479,10.087-5.479
		c3.244,0,5.769,0.897,7.573,2.691c1.805,1.794,2.707,4.313,2.707,7.557v19.4h-4.028V32.323c0-5.628-2.444-8.443-7.33-8.443
		c-5.898,0-8.848,3.717-8.848,11.15v14.921H0z"/>
	<path id="XMLID_56_" class="st0" d="M77.956,35.771h-22.72c0.107,3.373,0.902,6.112,2.385,8.218
		c1.719,2.428,4.178,3.642,7.38,3.642c4.232,0,7.401-2.288,9.507-6.864l3.642,1.998c-2.836,5.629-7.219,8.443-13.148,8.443
		c-4.34,0-7.799-1.471-10.377-4.415c-2.449-2.814-3.674-6.424-3.674-10.828c0-4.468,1.181-8.142,3.545-11.021
		c2.557-3.094,6.015-4.641,10.377-4.641c4.146,0,7.401,1.418,9.765,4.254c2.212,2.664,3.319,6.112,3.319,10.345V35.771z
		 M73.251,32.388c-0.408-5.5-3.373-8.25-8.895-8.25c-2.449,0-4.475,0.757-6.075,2.272c-1.601,1.515-2.53,3.508-2.788,5.978H73.251z"
		/>
	<path id="XMLID_54_" class="st0" d="M112.159,51.817L100.74,21.366h4.164l7.442,20.58l8.987-22.094l8.957,22.106l7.469-20.592
		h4.167l-11.442,30.424l-9.07-22.728L112.159,51.817z"/>
	<path id="XMLID_52_" class="st0" d="M201.803,44.859l3.771-2.159c1.246,3.202,3.598,4.802,7.058,4.802
		c1.568,0,2.847-0.375,3.835-1.128c1.096-0.838,1.644-2.019,1.644-3.545c0-2.191-1.945-4.049-5.833-5.575
		c-0.237-0.107-0.559-0.236-0.967-0.387c-2.535-1.01-4.372-1.987-5.511-2.933c-1.74-1.439-2.61-3.233-2.61-5.382
		c0-2.557,0.913-4.608,2.739-6.155c1.74-1.439,3.91-2.159,6.51-2.159c4.77,0,7.938,1.945,9.507,5.833l-3.642,2.03
		c-0.924-2.771-2.965-4.157-6.123-4.157c-1.311,0-2.406,0.376-3.287,1.128c-0.967,0.795-1.45,1.826-1.45,3.094
		c0,1.504,0.806,2.739,2.417,3.706c0.709,0.43,2.17,1.021,4.383,1.772c2.728,0.946,4.651,1.955,5.769,3.029
		c1.461,1.397,2.191,3.363,2.191,5.897c0,2.836-1.053,5.027-3.158,6.574c-1.869,1.375-4.265,2.062-7.187,2.062
		C206.766,51.208,203.414,49.092,201.803,44.859z"/>
	<path id="XMLID_49_" class="st0" d="M248.499,10.216c0-0.838,0.301-1.552,0.902-2.143c0.601-0.591,1.321-0.886,2.159-0.886
		s1.563,0.295,2.175,0.886c0.612,0.591,0.918,1.305,0.918,2.143c0,0.881-0.295,1.606-0.886,2.175
		c-0.591,0.569-1.327,0.854-2.208,0.854c-0.859,0-1.584-0.29-2.175-0.87C248.794,11.795,248.499,11.075,248.499,10.216z
		 M249.498,49.951V21.366h4.093v28.585H249.498z"/>
	<path id="XMLID_47_" class="st0" d="M283.433,49.951V21.366h3.771v4.415c2.32-3.652,5.683-5.479,10.087-5.479
		c3.244,0,5.769,0.897,7.573,2.691c1.805,1.794,2.707,4.313,2.707,7.557v19.4h-4.028V32.323c0-5.628-2.443-8.443-7.33-8.443
		c-5.898,0-8.848,3.717-8.848,11.15v14.921H283.433z"/>
	<path id="XMLID_44_" class="st0" d="M362.001,21.366v23.622c0,6.811-0.44,11.15-1.321,13.02c-1.998,4.21-6.091,6.316-12.278,6.316
		c-7.584,0-11.827-2.965-12.729-8.895h4.984c0.647,3.566,3.355,5.35,8.124,5.35c5.113,0,8.112-1.987,8.997-5.962
		c0.194-0.946,0.292-2.396,0.292-4.351v-5.801c-1.898,4.362-5.34,6.542-10.322,6.542c-4.294,0-7.637-1.536-10.032-4.608
		c-2.157-2.792-3.235-6.402-3.235-10.828c0-4.404,1.121-8.024,3.365-10.86c2.438-3.072,5.804-4.608,10.097-4.608
		c2.222,0,4.238,0.559,6.051,1.676c1.898,1.16,3.258,2.739,4.077,4.737v-5.35H362.001z M348.354,23.944
		c-3.229,0-5.693,1.214-7.393,3.642c-1.464,2.127-2.195,4.877-2.195,8.25c0,3.331,0.688,6.016,2.066,8.057
		c1.592,2.406,3.97,3.609,7.134,3.609c3.292,0,5.843-1.213,7.65-3.642c1.636-2.17,2.453-4.963,2.453-8.379
		c0-3.373-0.765-6.08-2.292-8.121C354.077,25.083,351.603,23.944,348.354,23.944z"/>
	<path id="XMLID_42_" class="st0" d="M395.903,49.951h-4.093V0h4.093V49.951z"/>
	<path id="XMLID_39_" class="st0" d="M450.302,35.771h-22.72c0.107,3.373,0.902,6.112,2.385,8.218
		c1.719,2.428,4.179,3.642,7.38,3.642c4.232,0,7.401-2.288,9.507-6.864l3.642,1.998c-2.836,5.629-7.219,8.443-13.148,8.443
		c-4.34,0-7.799-1.471-10.377-4.415c-2.449-2.814-3.674-6.424-3.674-10.828c0-4.468,1.182-8.142,3.545-11.021
		c2.557-3.094,6.016-4.641,10.377-4.641c4.146,0,7.401,1.418,9.765,4.254c2.213,2.664,3.319,6.112,3.319,10.345V35.771z
		 M445.597,32.388c-0.408-5.5-3.373-8.25-8.895-8.25c-2.449,0-4.475,0.757-6.074,2.272c-1.602,1.515-2.53,3.508-2.788,5.978H445.597
		z"/>
</g>
</svg>