<!-- Generator: Adobe Illustrator 18.1.1, SVG Export Plug-In  -->
<svg version="1.1"
	 xmlns="http://www.w3.org/2000/svg" xmlns:xlink="http://www.w3.org/1999/xlink" xmlns:a="http://ns.adobe.com/AdobeSVGViewerExtensions/3.0/"
	 x="0px" y="0px" width="53px" height="65.244px" viewBox="0 0 53 65.244" enable-background="new 0 0 53 65.244"
	 xml:space="preserve">
<defs>
</defs>
<g>
	<rect y="5.693" fill="none" width="53" height="55"/>
	<path fill="#675144" d="M26.441,9.521c3.398,0,6.582,0.645,9.551,1.934c2.968,1.289,5.566,3.038,7.793,5.244
		c2.227,2.208,3.984,4.795,5.273,7.764c1.289,2.969,1.934,6.152,1.934,9.551s-0.645,6.583-1.934,9.551
		c-1.289,2.969-3.047,5.566-5.273,7.793s-4.825,3.984-7.793,5.273c-2.969,1.289-6.152,1.934-9.551,1.934s-6.583-0.645-9.551-1.934
		c-2.969-1.289-5.557-3.047-7.764-5.273c-2.208-2.227-3.955-4.824-5.244-7.793c-1.289-2.968-1.934-6.152-1.934-9.551
		s0.645-6.582,1.934-9.551c1.289-2.968,3.037-5.556,5.244-7.764c2.207-2.207,4.794-3.955,7.764-5.244
		C19.859,10.166,23.043,9.521,26.441,9.521z M40.152,23.35c0-0.898-0.313-1.66-0.938-2.285c-0.625-0.625-1.387-0.938-2.285-0.938
		H15.484c-0.899,0-1.661,0.313-2.285,0.938c-0.625,0.625-0.938,1.387-0.938,2.285v21.445c0,0.899,0.312,1.661,0.938,2.285
		c0.625,0.625,1.386,0.938,2.285,0.938H36.93c0.898,0,1.66-0.312,2.285-0.938c0.625-0.624,0.938-1.386,0.938-2.285V23.35z
		 M34.762,34.072c0-0.352-0.02-0.712-0.059-1.084c-0.04-0.371-0.098-0.712-0.176-1.025h2.402V43.74c0,0.313-0.098,0.566-0.293,0.762
		c-0.196,0.196-0.45,0.293-0.762,0.293H16.539c-0.313,0-0.567-0.097-0.762-0.293c-0.196-0.195-0.293-0.448-0.293-0.762V31.963h2.402
		c-0.079,0.313-0.137,0.655-0.176,1.025c-0.04,0.372-0.059,0.732-0.059,1.084c0,1.172,0.224,2.285,0.674,3.34
		c0.449,1.055,1.055,1.973,1.816,2.754c0.762,0.781,1.67,1.397,2.725,1.846c1.055,0.449,2.168,0.674,3.34,0.674
		s2.285-0.225,3.34-0.674c1.055-0.448,1.963-1.064,2.725-1.846c0.762-0.781,1.367-1.699,1.816-2.754
		C34.537,36.357,34.762,35.244,34.762,34.072z M26.207,39.463c-0.743,0-1.436-0.136-2.08-0.41c-0.645-0.273-1.211-0.654-1.699-1.143
		c-0.489-0.488-0.87-1.064-1.143-1.729c-0.274-0.664-0.41-1.367-0.41-2.109c0-0.742,0.136-1.436,0.41-2.08
		c0.273-0.645,0.654-1.21,1.143-1.699c0.488-0.488,1.055-0.869,1.699-1.143c0.645-0.273,1.337-0.41,2.08-0.41
		c1.484,0,2.744,0.518,3.779,1.553c1.035,1.036,1.553,2.295,1.553,3.779c0,0.743-0.137,1.446-0.41,2.109
		c-0.274,0.665-0.655,1.241-1.143,1.729c-0.489,0.489-1.055,0.87-1.699,1.143C27.643,39.327,26.949,39.463,26.207,39.463z
		 M35.875,23.35c0.312,0,0.566,0.108,0.762,0.322c0.195,0.215,0.293,0.479,0.293,0.791v3.223c0,0.313-0.098,0.567-0.293,0.762
		c-0.196,0.196-0.45,0.293-0.762,0.293h-3.223c-0.313,0-0.577-0.097-0.791-0.293c-0.215-0.195-0.322-0.449-0.322-0.762v-3.223
		c0-0.312,0.107-0.576,0.322-0.791c0.214-0.214,0.478-0.322,0.791-0.322H35.875z"/>
</g>
</svg>