<!-- Generator: Adobe Illustrator 18.1.1, SVG Export Plug-In  -->
<svg version="1.1"
	 xmlns="http://www.w3.org/2000/svg" xmlns:xlink="http://www.w3.org/1999/xlink" xmlns:a="http://ns.adobe.com/AdobeSVGViewerExtensions/3.0/"
	 x="0px" y="0px" width="53px" height="65.244px" viewBox="0 0 53 65.244" enable-background="new 0 0 53 65.244"
	 xml:space="preserve">
<defs>
</defs>
<g>
	<rect y="5.693" fill="none" width="53" height="55"/>
	<path fill="#3FA9F5" d="M26.441,9.463c3.398,0,6.582,0.645,9.551,1.934c2.968,1.289,5.566,3.038,7.793,5.244
		c2.227,2.208,3.984,4.795,5.273,7.764c1.289,2.969,1.934,6.152,1.934,9.551s-0.645,6.583-1.934,9.551
		c-1.289,2.969-3.047,5.566-5.273,7.793s-4.825,3.984-7.793,5.273c-2.969,1.289-6.152,1.934-9.551,1.934s-6.583-0.645-9.551-1.934
		c-2.969-1.289-5.557-3.047-7.764-5.273c-2.208-2.227-3.955-4.824-5.244-7.793c-1.289-2.968-1.934-6.152-1.934-9.551
		s0.645-6.582,1.934-9.551c1.289-2.968,3.037-5.556,5.244-7.764c2.207-2.207,4.794-3.955,7.764-5.244
		C19.859,10.107,23.043,9.463,26.441,9.463z M38.629,28.682c1.132-0.859,2.128-1.894,2.988-3.105
		c-0.547,0.234-1.104,0.43-1.67,0.586c-0.567,0.157-1.163,0.274-1.787,0.352c0.625-0.39,1.172-0.869,1.641-1.436
		c0.469-0.566,0.8-1.181,0.996-1.846c-0.586,0.313-1.192,0.596-1.816,0.85c-0.625,0.254-1.27,0.439-1.934,0.557
		c-0.547-0.546-1.192-0.996-1.934-1.348c-0.743-0.352-1.563-0.527-2.461-0.527c-0.82,0-1.592,0.157-2.314,0.469
		c-0.723,0.313-1.348,0.743-1.875,1.289c-0.527,0.547-0.948,1.182-1.26,1.904c-0.313,0.723-0.469,1.494-0.469,2.314
		c0,0.234,0.009,0.469,0.029,0.703c0.019,0.234,0.048,0.45,0.088,0.645c-2.461-0.117-4.746-0.722-6.855-1.816
		c-2.109-1.093-3.907-2.558-5.391-4.395c-0.547,0.899-0.82,1.895-0.82,2.988c0,1.016,0.244,1.963,0.732,2.842
		c0.488,0.879,1.123,1.592,1.904,2.139c-1.016-0.078-1.915-0.332-2.695-0.762v0.059c0,1.485,0.458,2.764,1.377,3.838
		c0.917,1.075,2.06,1.749,3.428,2.021c-0.274,0.079-0.538,0.137-0.791,0.176c-0.254,0.04-0.518,0.059-0.791,0.059
		c-0.196,0-0.381-0.009-0.557-0.029c-0.176-0.019-0.362-0.048-0.557-0.088c0.39,1.172,1.084,2.149,2.08,2.93
		c0.996,0.781,2.158,1.172,3.486,1.172c-1.016,0.82-2.159,1.456-3.428,1.904c-1.27,0.449-2.588,0.674-3.955,0.674
		c-0.274,0-0.527-0.009-0.762-0.029c-0.234-0.02-0.469-0.049-0.703-0.088c1.328,0.859,2.763,1.523,4.307,1.992
		c1.542,0.469,3.154,0.703,4.834,0.703c2.734,0,5.156-0.518,7.266-1.553c2.109-1.034,3.876-2.363,5.303-3.984
		c1.425-1.621,2.509-3.437,3.252-5.449c0.742-2.011,1.113-3.994,1.113-5.947V28.682z"/>
</g>
</svg>