<!-- Generator: Adobe Illustrator 18.1.1, SVG Export Plug-In  -->
<svg version="1.1"
	 xmlns="http://www.w3.org/2000/svg" xmlns:xlink="http://www.w3.org/1999/xlink" xmlns:a="http://ns.adobe.com/AdobeSVGViewerExtensions/3.0/"
	 x="0px" y="0px" width="646.073px" height="26.24px" viewBox="0 0 646.073 26.24" enable-background="new 0 0 646.073 26.24"
	 xml:space="preserve">
<defs>
</defs>
<g>
	<path fill="#FF0000" d="M16.425,7.736c-1.434-2.188-3.463-3.281-6.085-3.281c-2.227,0-4.013,0.75-5.36,2.25
		c-1.292,1.438-1.938,3.27-1.938,5.496c0,2.117,0.705,3.887,2.116,5.309c1.378,1.391,3.106,2.086,5.182,2.086
		c1.917,0,3.486-0.547,4.707-1.641c1.26-1.125,1.906-2.625,1.938-4.5h-6.002v-1.348h7.737v0.188c0,2.695-0.733,4.816-2.199,6.363
		c-1.506,1.586-3.613,2.379-6.323,2.379c-2.686,0-4.841-0.844-6.465-2.531c-1.593-1.648-2.389-3.805-2.389-6.469
		c0-2.562,0.8-4.684,2.4-6.363c1.68-1.758,3.807-2.637,6.382-2.637c3.582,0,6.065,1.238,7.452,3.715L16.425,7.736z"/>
	<path fill="#FF0000" d="M33.324,15.424h-8.379c0.04,1.227,0.333,2.223,0.88,2.988c0.634,0.883,1.541,1.324,2.722,1.324
		c1.561,0,2.729-0.832,3.506-2.496l1.343,0.727c-1.046,2.047-2.663,3.07-4.849,3.07c-1.601,0-2.876-0.535-3.827-1.605
		c-0.903-1.023-1.355-2.336-1.355-3.938c0-1.625,0.436-2.961,1.307-4.008c0.943-1.125,2.219-1.688,3.827-1.688
		c1.529,0,2.729,0.516,3.601,1.547c0.816,0.969,1.225,2.223,1.225,3.762V15.424z M31.588,14.193c-0.151-2-1.244-3-3.28-3
		c-0.903,0-1.65,0.275-2.24,0.826c-0.591,0.551-0.933,1.275-1.028,2.174H31.588z"/>
	<path fill="#FF0000" d="M39.109,11.416h-1.938v-1.23h1.938V5.92h1.45v4.266h2.104v1.23h-2.104v9.164h-1.45V11.416z"/>
	<path fill="#FF0000" d="M57.027,11.416H55.09v-1.23h1.938V5.92h1.45v4.266h2.104v1.23h-2.104v9.164h-1.45V11.416z"/>
	<path fill="#FF0000" d="M65.19,20.58V2.416h1.391v9.375c0.855-1.328,2.096-1.992,3.72-1.992c1.196,0,2.127,0.326,2.793,0.979
		c0.666,0.652,0.999,1.568,0.999,2.748v7.055h-1.486v-6.41c0-2.047-0.901-3.07-2.703-3.07c-2.175,0-3.263,1.352-3.263,4.055v5.426
		H65.19z"/>
	<path fill="#FF0000" d="M89.362,15.424h-8.379c0.04,1.227,0.333,2.223,0.88,2.988c0.634,0.883,1.541,1.324,2.722,1.324
		c1.561,0,2.729-0.832,3.506-2.496l1.343,0.727c-1.046,2.047-2.663,3.07-4.849,3.07c-1.601,0-2.876-0.535-3.827-1.605
		c-0.903-1.023-1.355-2.336-1.355-3.938c0-1.625,0.436-2.961,1.307-4.008c0.943-1.125,2.219-1.688,3.827-1.688
		c1.529,0,2.729,0.516,3.601,1.547c0.816,0.969,1.225,2.223,1.225,3.762V15.424z M87.627,14.193c-0.151-2-1.244-3-3.28-3
		c-0.903,0-1.65,0.275-2.24,0.826c-0.591,0.551-0.933,1.275-1.028,2.174H87.627z"/>
	<path fill="#FF0000" d="M108.825,20.58V4.982h-3.138l0.749-1.395h3.922V20.58H108.825z"/>
	<path fill="#FF0000" d="M130.834,19.232v1.348h-11.18l4.89-5.288c3.1-3.319,4.65-5.709,4.65-7.17c0-1.07-0.373-1.925-1.117-2.565
		c-0.713-0.609-1.621-0.914-2.722-0.914c-1.212,0-2.155,0.383-2.829,1.148c-0.634,0.727-0.951,1.695-0.951,2.906h-1.557V8.533
		c0-1.656,0.495-2.951,1.486-3.885c0.99-0.934,2.329-1.4,4.017-1.4c1.569,0,2.84,0.406,3.815,1.219
		c1.046,0.859,1.569,2.047,1.569,3.562c0,1.711-1.367,4.062-4.1,7.055l-0.107,0.117l-3.827,4.031H130.834z"/>
	<path fill="#FF0000" d="M137.463,3.775v6.48h-1.022v-6.48H137.463z M140.613,3.775v6.48h-1.022v-6.48H140.613z"/>
	<path fill="#FF0000" d="M169.822,6.564c-1.688-1.438-3.522-2.156-5.503-2.156c-2.274,0-4.108,0.705-5.503,2.115
		s-2.092,3.24-2.092,5.49c0,2.266,0.697,4.09,2.092,5.473c1.418,1.406,3.181,2.109,5.289,2.109c2.028,0,3.902-0.664,5.622-1.992
		v1.828c-1.775,1.07-3.625,1.605-5.55,1.605c-2.646,0-4.833-0.844-6.561-2.531c-1.728-1.688-2.591-3.852-2.591-6.492
		c0-2.633,0.869-4.787,2.608-6.463s3.92-2.514,6.543-2.514c2.227,0,4.116,0.602,5.669,1.805L169.822,6.564z"/>
	<path fill="#FF0000" d="M183.273,20.58v-1.898c-0.714,1.57-1.948,2.355-3.701,2.355c-1.595,0-2.849-0.551-3.761-1.652
		c-0.857-1.023-1.285-2.336-1.285-3.938c0-1.562,0.413-2.871,1.238-3.926c0.904-1.148,2.126-1.723,3.666-1.723
		c1.841,0,3.122,0.762,3.844,2.285v-1.898h1.45V20.58H183.273z M176.142,15.494c0,1.25,0.27,2.238,0.808,2.965
		c0.61,0.82,1.525,1.23,2.746,1.23s2.144-0.461,2.77-1.383c0.539-0.797,0.808-1.824,0.808-3.082c0-1.195-0.285-2.156-0.856-2.883
		c-0.626-0.812-1.525-1.219-2.698-1.219c-1.205,0-2.124,0.449-2.757,1.348C176.416,13.244,176.142,14.252,176.142,15.494z"/>
	<path fill="#FF0000" d="M191.068,20.58V10.186h1.391v1.605c0.855-1.328,2.096-1.992,3.72-1.992c1.196,0,2.127,0.326,2.793,0.979
		c0.666,0.652,0.999,1.568,0.999,2.748v7.055h-1.486v-6.41c0-2.047-0.901-3.07-2.703-3.07c-2.175,0-3.263,1.352-3.263,4.055v5.426
		H191.068z"/>
	<path fill="#FF0000" d="M214.003,20.58v-1.898c-0.705,1.57-1.929,2.355-3.672,2.355c-1.593,0-2.845-0.551-3.756-1.652
		c-0.855-1.023-1.284-2.336-1.284-3.938c0-1.562,0.412-2.871,1.236-3.926c0.903-1.148,2.123-1.723,3.661-1.723
		c1.822,0,3.094,0.762,3.815,2.285V2.416h1.486V20.58H214.003z M206.908,15.494c0,1.25,0.269,2.238,0.807,2.965
		c0.609,0.82,1.522,1.23,2.741,1.23c1.21,0,2.128-0.465,2.753-1.395c0.53-0.789,0.795-1.812,0.795-3.07
		c0-1.195-0.277-2.156-0.831-2.883c-0.625-0.812-1.522-1.219-2.693-1.219c-1.203,0-2.12,0.449-2.752,1.348
		C207.181,13.244,206.908,14.252,206.908,15.494z"/>
	<path fill="#FF0000" d="M220.348,10.186h1.554l3.024,8.131l2.777-8.131h1.559l-5.455,15.621h-1.509l1.839-5.302L220.348,10.186z"/>
	<path fill="#FF0000" d="M241.309,20.58l7.642-17.836l7.322,17.836h-1.731l-2.22-5.812h-7.104l-2.305,5.812H241.309z M245.757,13.42
		h6.05l-2.971-7.457L245.757,13.42z"/>
	<path fill="#FF0000" d="M260.441,25.807V10.186h1.414v1.945c0.84-1.555,2.096-2.332,3.768-2.332c1.577,0,2.813,0.562,3.708,1.688
		c0.824,1.023,1.236,2.336,1.236,3.938s-0.4,2.91-1.2,3.926c-0.879,1.125-2.104,1.688-3.673,1.688c-1.719,0-2.999-0.793-3.839-2.379
		v7.148H260.441z M268.987,15.447c0-1.227-0.267-2.223-0.799-2.988c-0.621-0.891-1.527-1.336-2.719-1.336
		c-1.2,0-2.119,0.414-2.754,1.242c-0.572,0.742-0.859,1.727-0.859,2.953c0,1.234,0.306,2.25,0.918,3.047
		c0.676,0.883,1.622,1.324,2.838,1.324c1.169,0,2.047-0.438,2.636-1.312C268.74,17.635,268.987,16.658,268.987,15.447z"/>
	<path fill="#FF0000" d="M276.044,25.807V10.186h1.414v1.945c0.84-1.555,2.096-2.332,3.768-2.332c1.577,0,2.813,0.562,3.708,1.688
		c0.824,1.023,1.236,2.336,1.236,3.938s-0.4,2.91-1.2,3.926c-0.879,1.125-2.104,1.688-3.673,1.688c-1.719,0-2.999-0.793-3.839-2.379
		v7.148H276.044z M284.589,15.447c0-1.227-0.267-2.223-0.799-2.988c-0.621-0.891-1.527-1.336-2.719-1.336
		c-1.2,0-2.119,0.414-2.754,1.242c-0.572,0.742-0.859,1.727-0.859,2.953c0,1.234,0.306,2.25,0.918,3.047
		c0.676,0.883,1.622,1.324,2.838,1.324c1.169,0,2.047-0.438,2.636-1.312C284.343,17.635,284.589,16.658,284.589,15.447z"/>
	<path fill="#FF0000" d="M293.251,20.58h-1.509V2.416h1.509V20.58z"/>
	<path fill="#FF0000" d="M308.735,15.424h-8.379c0.04,1.227,0.333,2.223,0.88,2.988c0.634,0.883,1.541,1.324,2.722,1.324
		c1.561,0,2.729-0.832,3.506-2.496l1.343,0.727c-1.046,2.047-2.663,3.07-4.849,3.07c-1.601,0-2.876-0.535-3.827-1.605
		c-0.903-1.023-1.355-2.336-1.355-3.938c0-1.625,0.436-2.961,1.307-4.008c0.943-1.125,2.219-1.688,3.827-1.688
		c1.529,0,2.729,0.516,3.601,1.547c0.816,0.969,1.225,2.223,1.225,3.762V15.424z M307,14.193c-0.151-2-1.244-3-3.28-3
		c-0.903,0-1.65,0.275-2.24,0.826c-0.591,0.551-0.933,1.275-1.028,2.174H307z"/>
	<path fill="#FF0000" d="M334.431,20.58h-1.918l-6.109-8.18h-0.951v8.18h-1.581V3.424h3.197c3.763,0,5.646,1.56,5.646,4.679
		c0,1.36-0.407,2.417-1.221,3.172s-1.918,1.131-3.315,1.131L334.431,20.58z M325.453,4.771v6.352h1.593
		c1.331,0,2.286-0.184,2.864-0.552c0.729-0.462,1.093-1.303,1.093-2.524c0-1.252-0.353-2.133-1.058-2.642
		c-0.594-0.422-1.561-0.634-2.9-0.634H325.453z"/>
	<path fill="#FF0000" d="M347.569,15.424h-8.379c0.04,1.227,0.333,2.223,0.88,2.988c0.634,0.883,1.541,1.324,2.722,1.324
		c1.561,0,2.729-0.832,3.506-2.496l1.343,0.727c-1.046,2.047-2.663,3.07-4.849,3.07c-1.601,0-2.876-0.535-3.827-1.605
		c-0.903-1.023-1.355-2.336-1.355-3.938c0-1.625,0.436-2.961,1.307-4.008c0.943-1.125,2.219-1.688,3.827-1.688
		c1.529,0,2.729,0.516,3.601,1.547c0.816,0.969,1.225,2.223,1.225,3.762V15.424z M345.833,14.193c-0.151-2-1.244-3-3.28-3
		c-0.903,0-1.65,0.275-2.24,0.826c-0.591,0.551-0.933,1.275-1.028,2.174H345.833z"/>
	<path fill="#FF0000" d="M360.866,20.58v-1.898c-0.705,1.57-1.93,2.355-3.673,2.355c-1.593,0-2.845-0.551-3.756-1.652
		c-0.855-1.023-1.284-2.336-1.284-3.938c0-1.562,0.412-2.871,1.236-3.926c0.904-1.148,2.123-1.723,3.661-1.723
		c1.822,0,3.094,0.762,3.815,2.285V2.416h1.485V20.58H360.866z M353.771,15.494c0,1.25,0.269,2.238,0.807,2.965
		c0.609,0.82,1.522,1.23,2.74,1.23c1.211,0,2.129-0.465,2.754-1.395c0.529-0.789,0.795-1.812,0.795-3.07
		c0-1.195-0.277-2.156-0.831-2.883c-0.625-0.812-1.522-1.219-2.693-1.219c-1.202,0-2.12,0.449-2.753,1.348
		C354.043,13.244,353.771,14.252,353.771,15.494z"/>
	<path fill="#FF0000" d="M382.741,21.247l-6.811-17.823h1.818l5.013,13.959l5.281-13.959h1.734L382.741,21.247z"/>
	<path fill="#FF0000" d="M393.661,6.131c0-0.305,0.111-0.564,0.334-0.779c0.221-0.215,0.486-0.322,0.795-0.322
		c0.31,0,0.577,0.107,0.803,0.322c0.227,0.215,0.339,0.475,0.339,0.779c0,0.32-0.108,0.584-0.327,0.791
		c-0.218,0.207-0.488,0.311-0.814,0.311c-0.316,0-0.584-0.105-0.802-0.316S393.661,6.443,393.661,6.131z M394.03,20.58V10.186h1.51
		V20.58H394.03z"/>
	<path fill="#FF0000" d="M401.967,20.58V10.186h1.391v1.605c0.855-1.328,2.096-1.992,3.72-1.992c1.196,0,2.127,0.326,2.793,0.979
		s0.998,1.568,0.998,2.748v7.055h-1.485v-6.41c0-2.047-0.901-3.07-2.703-3.07c-2.175,0-3.263,1.352-3.263,4.055v5.426H401.967z"/>
	<path fill="#FF0000" d="M415.645,10.186h1.554l3.024,8.131l2.776-8.131h1.559l-5.455,15.621h-1.508l1.839-5.302L415.645,10.186z"/>
	<path fill="#FF0000" d="M430.927,20.58h-1.51V2.416h1.51V20.58z"/>
	<path fill="#FF0000" d="M447.014,20.58V3.424h1.581v15.691h5.966v1.465H447.014z"/>
	<path fill="#FF0000" d="M459.503,20.58V3.424h3.173c2.06,0,3.494,0.285,4.302,0.855c1.149,0.812,1.725,2.102,1.725,3.867
		c0,1.75-0.539,3.004-1.617,3.762c-0.919,0.648-2.31,0.973-4.172,0.973h-1.83v7.699H459.503z M461.083,11.51h1.082
		c1.624,0,2.761-0.156,3.41-0.47c0.967-0.461,1.451-1.389,1.451-2.782c0-1.025-0.302-1.874-0.904-2.547
		c-0.388-0.438-1.006-0.72-1.854-0.845c-0.412-0.062-1.113-0.094-2.104-0.094h-1.082V11.51z"/>
	<path fill="#FF0000" d="M483.554,20.58V3.424h8.616v1.465h-7.036v5.367h7.036v1.465h-7.036v7.395h7.036v1.465H483.554z"/>
	<path fill="#FF0000" d="M496.701,10.186h1.813l2.578,3.82l2.58-3.82h1.783l-3.555,4.992l3.922,5.402h-1.797l-2.958-4.194
		l-2.911,4.194h-1.83l3.952-5.411L496.701,10.186z"/>
	<path fill="#FF0000" d="M518.491,12.084c-0.982-0.672-2.076-1.008-3.281-1.008c-1.347,0-2.404,0.43-3.173,1.289
		c-0.745,0.82-1.117,1.902-1.117,3.246c0,1.234,0.401,2.242,1.206,3.023s1.832,1.172,3.084,1.172c1.173,0,2.322-0.391,3.447-1.172
		v1.582c-1.03,0.578-2.27,0.867-3.721,0.867c-1.632,0-2.957-0.523-3.975-1.57c-1.019-1.047-1.527-2.379-1.527-3.996
		c0-1.703,0.535-3.082,1.604-4.137c1.07-1.055,2.469-1.582,4.196-1.582c1.283,0,2.377,0.234,3.28,0.703L518.491,12.084z"/>
	<path fill="#FF0000" d="M525.43,20.58h-1.509V2.416h1.509V20.58z"/>
	<path fill="#FF0000" d="M533.307,10.186v5.191c0,1.367,0.159,2.363,0.477,2.988c0.452,0.883,1.294,1.324,2.524,1.324
		c1.223,0,2.064-0.445,2.525-1.336c0.333-0.633,0.5-1.625,0.5-2.977v-5.191h1.449v5.93c0,3.281-1.481,4.922-4.445,4.922
		c-2.986,0-4.48-1.641-4.48-4.922v-5.93H533.307z"/>
	<path fill="#FF0000" d="M545.927,18.729l1.391-0.785c0.459,1.164,1.326,1.746,2.603,1.746c0.579,0,1.05-0.137,1.415-0.41
		c0.403-0.305,0.605-0.734,0.605-1.289c0-0.797-0.717-1.473-2.15-2.027c-0.088-0.039-0.207-0.086-0.357-0.141
		c-0.936-0.367-1.612-0.723-2.032-1.066c-0.642-0.523-0.963-1.176-0.963-1.957c0-0.93,0.337-1.676,1.011-2.238
		c0.642-0.523,1.441-0.785,2.4-0.785c1.76,0,2.928,0.707,3.506,2.121l-1.343,0.738c-0.341-1.008-1.093-1.512-2.258-1.512
		c-0.483,0-0.888,0.137-1.212,0.41c-0.357,0.289-0.535,0.664-0.535,1.125c0,0.547,0.297,0.996,0.891,1.348
		c0.262,0.156,0.801,0.371,1.617,0.645c1.006,0.344,1.715,0.711,2.127,1.102c0.539,0.508,0.809,1.223,0.809,2.145
		c0,1.031-0.389,1.828-1.165,2.391c-0.689,0.5-1.573,0.75-2.65,0.75C547.757,21.037,546.521,20.268,545.927,18.729z"/>
	<path fill="#FF0000" d="M558.569,6.131c0-0.305,0.111-0.564,0.334-0.779c0.221-0.215,0.486-0.322,0.795-0.322
		c0.31,0,0.577,0.107,0.803,0.322c0.227,0.215,0.339,0.475,0.339,0.779c0,0.32-0.108,0.584-0.327,0.791
		c-0.218,0.207-0.488,0.311-0.814,0.311c-0.316,0-0.584-0.105-0.802-0.316S558.569,6.443,558.569,6.131z M558.938,20.58V10.186h1.51
		V20.58H558.938z"/>
	<path fill="#FF0000" d="M565.294,10.186h1.605l3.233,7.869l3.216-7.869h1.632l-4.849,11.062L565.294,10.186z"/>
	<path fill="#FF0000" d="M588.753,15.424h-8.379c0.039,1.227,0.333,2.223,0.88,2.988c0.634,0.883,1.54,1.324,2.722,1.324
		c1.561,0,2.729-0.832,3.506-2.496l1.344,0.727c-1.047,2.047-2.663,3.07-4.85,3.07c-1.601,0-2.877-0.535-3.827-1.605
		c-0.903-1.023-1.354-2.336-1.354-3.938c0-1.625,0.436-2.961,1.307-4.008c0.943-1.125,2.219-1.688,3.827-1.688
		c1.529,0,2.729,0.516,3.601,1.547c0.816,0.969,1.225,2.223,1.225,3.762V15.424z M587.019,14.193c-0.151-2-1.244-3-3.281-3
		c-0.902,0-1.65,0.275-2.24,0.826s-0.933,1.275-1.027,2.174H587.019z"/>
	<path fill="#FF0000" d="M595.835,20.58h-1.51V2.416h1.51V20.58z"/>
	<path fill="#FF0000" d="M600.824,10.186h1.554l3.024,8.131l2.776-8.131h1.559l-5.455,15.621h-1.508l1.839-5.302L600.824,10.186z"/>
	<path fill="#FF0000" d="M631.757,20.58v-1.898c-0.715,1.57-1.948,2.355-3.701,2.355c-1.596,0-2.85-0.551-3.762-1.652
		c-0.857-1.023-1.285-2.336-1.285-3.938c0-1.562,0.412-2.871,1.238-3.926c0.904-1.148,2.126-1.723,3.665-1.723
		c1.841,0,3.122,0.762,3.845,2.285v-1.898h1.449V20.58H631.757z M624.625,15.494c0,1.25,0.27,2.238,0.808,2.965
		c0.611,0.82,1.525,1.23,2.746,1.23s2.144-0.461,2.77-1.383c0.539-0.797,0.809-1.824,0.809-3.082c0-1.195-0.285-2.156-0.856-2.883
		c-0.626-0.812-1.525-1.219-2.698-1.219c-1.204,0-2.123,0.449-2.757,1.348C624.898,13.244,624.625,14.252,624.625,15.494z"/>
	<path fill="#FF0000" d="M639.859,11.416h-1.938v-1.23h1.938V5.92h1.45v4.266h2.104v1.23h-2.104v9.164h-1.45V11.416z"/>
</g>
</svg>