<!-- Generator: Adobe Illustrator 19.0.0, SVG Export Plug-In  -->
<svg version="1.1"
	 xmlns="http://www.w3.org/2000/svg" xmlns:xlink="http://www.w3.org/1999/xlink" xmlns:a="http://ns.adobe.com/AdobeSVGViewerExtensions/3.0/"
	 x="0px" y="0px" width="584.297px" height="31.188px" viewBox="0 0 584.297 31.188"
	 style="enable-background:new 0 0 584.297 31.188;" xml:space="preserve">
<style type="text/css">
	.st0{fill:#FFFFFF;}
</style>
<defs>
</defs>
<g id="XMLID_115_">
	<path id="XMLID_212_" class="st0" d="M11.5,24.219v-2.531c-0.939,2.094-2.561,3.141-4.866,3.141c-2.097,0-3.745-0.734-4.944-2.203
		C0.563,21.261,0,19.511,0,17.375c0-2.083,0.542-3.828,1.627-5.234c1.189-1.531,2.796-2.297,4.819-2.297
		c2.42,0,4.104,1.016,5.054,3.047v-2.531h1.906v13.859H11.5z M2.125,17.438c0,1.667,0.354,2.984,1.062,3.953
		c0.802,1.094,2.005,1.641,3.609,1.641c1.604,0,2.817-0.614,3.641-1.844c0.708-1.062,1.062-2.432,1.062-4.109
		c0-1.594-0.375-2.875-1.125-3.844c-0.823-1.083-2.005-1.625-3.547-1.625c-1.583,0-2.792,0.6-3.625,1.797
		C2.484,14.438,2.125,15.781,2.125,17.438z"/>
	<path id="XMLID_210_" class="st0" d="M16.468,10.359h2.11l4.252,10.492l4.229-10.492h2.145l-6.375,14.75L16.468,10.359z"/>
	<path id="XMLID_207_" class="st0" d="M42.469,24.219v-2.531c-0.939,2.094-2.561,3.141-4.866,3.141
		c-2.097,0-3.745-0.734-4.944-2.203c-1.126-1.364-1.689-3.114-1.689-5.25c0-2.083,0.542-3.828,1.627-5.234
		c1.189-1.531,2.796-2.297,4.819-2.297c2.42,0,4.104,1.016,5.054,3.047v-2.531h1.906v13.859H42.469z M33.094,17.438
		c0,1.667,0.354,2.984,1.062,3.953c0.802,1.094,2.005,1.641,3.609,1.641c1.604,0,2.817-0.614,3.641-1.844
		c0.708-1.062,1.062-2.432,1.062-4.109c0-1.594-0.375-2.875-1.125-3.844c-0.823-1.083-2.005-1.625-3.547-1.625
		c-1.583,0-2.792,0.6-3.625,1.797C33.453,14.438,33.094,15.781,33.094,17.438z"/>
	<path id="XMLID_204_" class="st0" d="M49.156,4.953c0-0.406,0.146-0.752,0.438-1.039c0.292-0.286,0.641-0.43,1.047-0.43
		s0.758,0.144,1.055,0.43c0.297,0.287,0.445,0.633,0.445,1.039c0,0.428-0.144,0.779-0.43,1.055c-0.287,0.276-0.644,0.414-1.07,0.414
		c-0.417,0-0.769-0.141-1.055-0.422C49.299,5.719,49.156,5.37,49.156,4.953z M49.641,24.219V10.359h1.984v13.859H49.641z"/>
	<path id="XMLID_202_" class="st0" d="M58.984,24.219H57V0h1.984V24.219z"/>
	<path id="XMLID_199_" class="st0" d="M74.5,24.219v-2.531c-0.939,2.094-2.561,3.141-4.866,3.141c-2.097,0-3.745-0.734-4.944-2.203
		C63.563,21.261,63,19.511,63,17.375c0-2.083,0.542-3.828,1.627-5.234c1.189-1.531,2.796-2.297,4.819-2.297
		c2.42,0,4.104,1.016,5.054,3.047v-2.531h1.906v13.859H74.5z M65.125,17.438c0,1.667,0.354,2.984,1.062,3.953
		c0.802,1.094,2.005,1.641,3.609,1.641c1.604,0,2.817-0.614,3.641-1.844c0.708-1.062,1.062-2.432,1.062-4.109
		c0-1.594-0.375-2.875-1.125-3.844c-0.823-1.083-2.005-1.625-3.547-1.625c-1.583,0-2.792,0.6-3.625,1.797
		C65.484,14.438,65.125,15.781,65.125,17.438z"/>
	<path id="XMLID_196_" class="st0" d="M83.453,24.219h-1.906V0h1.906v12.891c0.949-2.031,2.623-3.047,5.022-3.047
		c2.023,0,3.63,0.766,4.819,2.297c1.084,1.406,1.627,3.151,1.627,5.234c0,2.136-0.563,3.886-1.689,5.25
		c-1.2,1.469-2.848,2.203-4.944,2.203c-2.295,0-3.907-1.047-4.835-3.141V24.219z M92.797,17.438c0-1.656-0.359-3-1.078-4.031
		c-0.833-1.197-2.042-1.797-3.625-1.797c-1.542,0-2.724,0.542-3.547,1.625c-0.729,0.969-1.094,2.25-1.094,3.844
		c0,1.678,0.354,3.047,1.062,4.109c0.823,1.229,2.036,1.844,3.641,1.844C91.25,23.031,92.797,21.167,92.797,17.438z"/>
	<path id="XMLID_194_" class="st0" d="M100.969,24.219h-1.984V0h1.984V24.219z"/>
	<path id="XMLID_191_" class="st0" d="M118.125,17.344h-11.016c0.052,1.636,0.438,2.964,1.156,3.984
		c0.833,1.178,2.026,1.766,3.578,1.766c2.052,0,3.588-1.109,4.609-3.328l1.766,0.969c-1.375,2.729-3.5,4.094-6.375,4.094
		c-2.104,0-3.781-0.713-5.031-2.141c-1.188-1.364-1.781-3.114-1.781-5.25c0-2.166,0.573-3.947,1.719-5.344
		c1.239-1.5,2.917-2.25,5.031-2.25c2.01,0,3.588,0.688,4.734,2.062c1.073,1.292,1.609,2.964,1.609,5.016V17.344z M115.844,15.703
		c-0.198-2.666-1.636-4-4.312-4c-1.188,0-2.169,0.367-2.945,1.102c-0.776,0.734-1.227,1.701-1.352,2.898H115.844z"/>
	<path id="XMLID_188_" class="st0" d="M137.641,24.828c-2.011,0-3.781-0.755-5.312-2.266c-1.427-1.406-2.141-3.156-2.141-5.25
		c0-2.072,0.727-3.836,2.18-5.289s3.211-2.18,5.273-2.18c2.104,0,3.896,0.729,5.375,2.188c1.479,1.459,2.219,3.219,2.219,5.281
		c0,2.053-0.729,3.803-2.188,5.25C141.526,24.073,139.724,24.828,137.641,24.828z M137.703,23.031c1.562,0,2.87-0.562,3.922-1.688
		c1.021-1.094,1.531-2.427,1.531-4c0-1.583-0.516-2.93-1.547-4.039s-2.333-1.664-3.906-1.664c-1.573,0-2.873,0.555-3.898,1.664
		c-1.026,1.109-1.539,2.456-1.539,4.039c0,1.573,0.51,2.906,1.531,4C134.838,22.469,136.141,23.031,137.703,23.031z"/>
	<path id="XMLID_186_" class="st0" d="M149.203,24.219V10.359h1.828V12.5c1.125-1.771,2.755-2.656,4.891-2.656
		c1.573,0,2.797,0.436,3.672,1.305c0.875,0.87,1.312,2.092,1.312,3.664v9.406h-1.953v-8.547c0-2.729-1.185-4.094-3.554-4.094
		c-2.86,0-4.29,1.803-4.29,5.406v7.234H149.203z"/>
	<path id="XMLID_184_" class="st0" d="M185.875,12.891c-1.292-0.896-2.729-1.344-4.312-1.344c-1.771,0-3.162,0.573-4.172,1.719
		c-0.979,1.094-1.469,2.537-1.469,4.328c0,1.646,0.528,2.99,1.586,4.031c1.057,1.042,2.409,1.562,4.055,1.562
		c1.542,0,3.052-0.521,4.531-1.562v2.109c-1.354,0.771-2.984,1.156-4.891,1.156c-2.146,0-3.888-0.697-5.227-2.094
		c-1.339-1.396-2.008-3.172-2.008-5.328c0-2.271,0.703-4.109,2.109-5.516s3.245-2.109,5.516-2.109c1.688,0,3.125,0.312,4.312,0.938
		L185.875,12.891z"/>
	<path id="XMLID_181_" class="st0" d="M199.953,24.219v-2.531c-0.939,2.094-2.561,3.141-4.866,3.141
		c-2.097,0-3.745-0.734-4.944-2.203c-1.126-1.364-1.689-3.114-1.689-5.25c0-2.083,0.542-3.828,1.627-5.234
		c1.189-1.531,2.796-2.297,4.819-2.297c2.42,0,4.104,1.016,5.054,3.047v-2.531h1.906v13.859H199.953z M190.578,17.438
		c0,1.667,0.354,2.984,1.062,3.953c0.802,1.094,2.005,1.641,3.609,1.641c1.604,0,2.817-0.614,3.641-1.844
		c0.708-1.062,1.062-2.432,1.062-4.109c0-1.594-0.375-2.875-1.125-3.844c-0.823-1.083-2.005-1.625-3.547-1.625
		c-1.583,0-2.792,0.6-3.625,1.797C190.938,14.438,190.578,15.781,190.578,17.438z"/>
	<path id="XMLID_179_" class="st0" d="M205.438,21.75l1.828-1.047c0.604,1.553,1.745,2.328,3.422,2.328
		c0.76,0,1.38-0.182,1.859-0.547c0.531-0.406,0.797-0.979,0.797-1.719c0-1.062-0.943-1.963-2.828-2.703
		c-0.115-0.052-0.271-0.114-0.469-0.188c-1.229-0.489-2.12-0.963-2.672-1.422c-0.844-0.697-1.266-1.567-1.266-2.609
		c0-1.239,0.442-2.234,1.328-2.984c0.844-0.697,1.896-1.047,3.156-1.047c2.312,0,3.849,0.943,4.609,2.828l-1.766,0.984
		c-0.448-1.344-1.438-2.016-2.969-2.016c-0.636,0-1.167,0.183-1.594,0.547c-0.469,0.386-0.703,0.886-0.703,1.5
		c0,0.729,0.391,1.328,1.172,1.797c0.344,0.209,1.052,0.495,2.125,0.859c1.323,0.459,2.255,0.948,2.797,1.469
		c0.708,0.678,1.062,1.631,1.062,2.859c0,1.375-0.511,2.438-1.531,3.188c-0.906,0.666-2.068,1-3.484,1
		C207.844,24.828,206.219,23.803,205.438,21.75z"/>
	<path id="XMLID_177_" class="st0" d="M217.656,21.75l1.828-1.047c0.604,1.553,1.745,2.328,3.422,2.328
		c0.76,0,1.38-0.182,1.859-0.547c0.531-0.406,0.797-0.979,0.797-1.719c0-1.062-0.943-1.963-2.828-2.703
		c-0.115-0.052-0.271-0.114-0.469-0.188c-1.229-0.489-2.12-0.963-2.672-1.422c-0.844-0.697-1.266-1.567-1.266-2.609
		c0-1.239,0.442-2.234,1.328-2.984c0.844-0.697,1.896-1.047,3.156-1.047c2.312,0,3.849,0.943,4.609,2.828l-1.766,0.984
		c-0.448-1.344-1.438-2.016-2.969-2.016c-0.636,0-1.167,0.183-1.594,0.547c-0.469,0.386-0.703,0.886-0.703,1.5
		c0,0.729,0.391,1.328,1.172,1.797c0.344,0.209,1.052,0.495,2.125,0.859c1.323,0.459,2.255,0.948,2.797,1.469
		c0.708,0.678,1.062,1.631,1.062,2.859c0,1.375-0.511,2.438-1.531,3.188c-0.906,0.666-2.068,1-3.484,1
		C220.062,24.828,218.438,23.803,217.656,21.75z"/>
	<path id="XMLID_174_" class="st0" d="M231.078,4.953c0-0.406,0.146-0.752,0.438-1.039c0.292-0.286,0.641-0.43,1.047-0.43
		s0.758,0.144,1.055,0.43c0.297,0.287,0.445,0.633,0.445,1.039c0,0.428-0.144,0.779-0.43,1.055c-0.287,0.276-0.644,0.414-1.07,0.414
		c-0.417,0-0.769-0.141-1.055-0.422C231.221,5.719,231.078,5.37,231.078,4.953z M231.562,24.219V10.359h1.984v13.859H231.562z"/>
	<path id="XMLID_172_" class="st0" d="M238.797,24.219V10.359h1.828V12.5c1.125-1.771,2.755-2.656,4.891-2.656
		c1.573,0,2.797,0.436,3.672,1.305c0.875,0.87,1.312,2.092,1.312,3.664v9.406h-1.953v-8.547c0-2.729-1.185-4.094-3.554-4.094
		c-2.86,0-4.29,1.803-4.29,5.406v7.234H238.797z"/>
	<path id="XMLID_169_" class="st0" d="M267.672,10.359v11.453c0,3.302-0.214,5.406-0.641,6.312
		c-0.969,2.041-2.953,3.062-5.953,3.062c-3.677,0-5.734-1.438-6.172-4.312h2.417c0.313,1.729,1.626,2.594,3.938,2.594
		c2.479,0,3.934-0.964,4.362-2.891c0.095-0.459,0.142-1.162,0.142-2.109v-2.812c-0.92,2.115-2.589,3.172-5.005,3.172
		c-2.082,0-3.703-0.744-4.864-2.234c-1.046-1.354-1.569-3.104-1.569-5.25c0-2.135,0.544-3.891,1.632-5.266
		c1.182-1.489,2.813-2.234,4.895-2.234c1.077,0,2.055,0.271,2.934,0.812c0.92,0.562,1.579,1.328,1.977,2.297v-2.594H267.672z
		 M261.055,11.609c-1.565,0-2.76,0.589-3.584,1.766c-0.71,1.031-1.064,2.365-1.064,4c0,1.615,0.334,2.917,1.002,3.906
		c0.771,1.167,1.925,1.75,3.459,1.75c1.596,0,2.833-0.588,3.709-1.766c0.793-1.052,1.189-2.406,1.189-4.062
		c0-1.635-0.371-2.947-1.111-3.938C263.83,12.162,262.63,11.609,261.055,11.609z"/>
	<path id="XMLID_167_" class="st0" d="M274.891,24.219h-1.984V0h1.984V24.219z"/>
	<path id="XMLID_164_" class="st0" d="M292.047,17.344h-11.016c0.052,1.636,0.438,2.964,1.156,3.984
		c0.833,1.178,2.026,1.766,3.578,1.766c2.052,0,3.588-1.109,4.609-3.328l1.766,0.969c-1.375,2.729-3.5,4.094-6.375,4.094
		c-2.104,0-3.781-0.713-5.031-2.141c-1.188-1.364-1.781-3.114-1.781-5.25c0-2.166,0.573-3.947,1.719-5.344
		c1.239-1.5,2.917-2.25,5.031-2.25c2.01,0,3.588,0.688,4.734,2.062c1.073,1.292,1.609,2.964,1.609,5.016V17.344z M289.766,15.703
		c-0.198-2.666-1.636-4-4.312-4c-1.188,0-2.169,0.367-2.945,1.102c-0.776,0.734-1.227,1.701-1.352,2.898H289.766z"/>
	<path id="XMLID_161_" class="st0" d="M315.531,24.219v-2.531c-0.939,2.094-2.561,3.141-4.866,3.141
		c-2.097,0-3.745-0.734-4.944-2.203c-1.126-1.364-1.689-3.114-1.689-5.25c0-2.083,0.542-3.828,1.627-5.234
		c1.189-1.531,2.796-2.297,4.819-2.297c2.42,0,4.104,1.016,5.054,3.047v-2.531h1.906v13.859H315.531z M306.156,17.438
		c0,1.667,0.354,2.984,1.062,3.953c0.802,1.094,2.005,1.641,3.609,1.641c1.604,0,2.817-0.614,3.641-1.844
		c0.708-1.062,1.062-2.432,1.062-4.109c0-1.594-0.375-2.875-1.125-3.844c-0.823-1.083-2.006-1.625-3.547-1.625
		c-1.584,0-2.792,0.6-3.625,1.797C306.516,14.438,306.156,15.781,306.156,17.438z"/>
	<path id="XMLID_159_" class="st0" d="M322.578,24.219V10.359h1.828V12.5c1.125-1.771,2.755-2.656,4.891-2.656
		c1.572,0,2.797,0.436,3.672,1.305c0.875,0.87,1.312,2.092,1.312,3.664v9.406h-1.953v-8.547c0-2.729-1.185-4.094-3.554-4.094
		c-2.86,0-4.29,1.803-4.29,5.406v7.234H322.578z"/>
	<path id="XMLID_156_" class="st0" d="M349.531,24.219v-2.531c-0.928,2.094-2.537,3.141-4.828,3.141
		c-2.094,0-3.74-0.734-4.938-2.203c-1.125-1.364-1.688-3.114-1.688-5.25c0-2.083,0.541-3.828,1.625-5.234
		c1.188-1.531,2.791-2.297,4.812-2.297c2.396,0,4.067,1.016,5.016,3.047V0h1.953v24.219H349.531z M340.203,17.438
		c0,1.667,0.354,2.984,1.061,3.953c0.801,1.094,2.002,1.641,3.604,1.641c1.591,0,2.797-0.619,3.619-1.859
		c0.696-1.052,1.045-2.416,1.045-4.094c0-1.594-0.364-2.875-1.092-3.844c-0.822-1.083-2.002-1.625-3.541-1.625
		c-1.581,0-2.787,0.6-3.619,1.797C340.562,14.438,340.203,15.781,340.203,17.438z"/>
	<path id="XMLID_153_" class="st0" d="M376.062,24.219v-2.531c-0.928,2.094-2.537,3.141-4.828,3.141
		c-2.094,0-3.74-0.734-4.938-2.203c-1.125-1.364-1.688-3.114-1.688-5.25c0-2.083,0.541-3.828,1.625-5.234
		c1.188-1.531,2.791-2.297,4.812-2.297c2.396,0,4.067,1.016,5.016,3.047V0h1.953v24.219H376.062z M366.734,17.438
		c0,1.667,0.354,2.984,1.061,3.953c0.801,1.094,2.002,1.641,3.604,1.641c1.591,0,2.797-0.619,3.619-1.859
		c0.696-1.052,1.045-2.416,1.045-4.094c0-1.594-0.364-2.875-1.092-3.844c-0.822-1.083-2.002-1.625-3.541-1.625
		c-1.581,0-2.787,0.6-3.619,1.797C367.093,14.438,366.734,15.781,366.734,17.438z"/>
	<path id="XMLID_150_" class="st0" d="M382.734,4.953c0-0.406,0.146-0.752,0.438-1.039c0.291-0.286,0.641-0.43,1.047-0.43
		s0.758,0.144,1.055,0.43c0.297,0.287,0.445,0.633,0.445,1.039c0,0.428-0.144,0.779-0.43,1.055c-0.287,0.276-0.644,0.414-1.07,0.414
		c-0.417,0-0.769-0.141-1.055-0.422C382.877,5.719,382.734,5.37,382.734,4.953z M383.219,24.219V10.359h1.984v13.859H383.219z"/>
	<path id="XMLID_147_" class="st0" d="M402.656,10.359v11.453c0,3.302-0.214,5.406-0.641,6.312
		c-0.969,2.041-2.953,3.062-5.953,3.062c-3.678,0-5.734-1.438-6.172-4.312h2.417c0.313,1.729,1.626,2.594,3.938,2.594
		c2.479,0,3.934-0.964,4.362-2.891c0.095-0.459,0.142-1.162,0.142-2.109v-2.812c-0.92,2.115-2.589,3.172-5.005,3.172
		c-2.081,0-3.702-0.744-4.864-2.234c-1.045-1.354-1.568-3.104-1.568-5.25c0-2.135,0.544-3.891,1.632-5.266
		c1.182-1.489,2.813-2.234,4.896-2.234c1.076,0,2.055,0.271,2.934,0.812c0.92,0.562,1.579,1.328,1.977,2.297v-2.594H402.656z
		 M396.039,11.609c-1.565,0-2.76,0.589-3.584,1.766c-0.71,1.031-1.064,2.365-1.064,4c0,1.615,0.334,2.917,1.002,3.906
		c0.771,1.167,1.925,1.75,3.459,1.75c1.596,0,2.832-0.588,3.709-1.766c0.793-1.052,1.189-2.406,1.189-4.062
		c0-1.635-0.371-2.947-1.111-3.938C398.814,12.162,397.614,11.609,396.039,11.609z"/>
	<path id="XMLID_144_" class="st0" d="M407.406,4.953c0-0.406,0.146-0.752,0.438-1.039c0.291-0.286,0.641-0.43,1.047-0.43
		s0.758,0.144,1.055,0.43c0.297,0.287,0.445,0.633,0.445,1.039c0,0.428-0.144,0.779-0.43,1.055c-0.287,0.276-0.644,0.414-1.07,0.414
		c-0.417,0-0.769-0.141-1.055-0.422C407.549,5.719,407.406,5.37,407.406,4.953z M407.891,24.219V10.359h1.984v13.859H407.891z"/>
	<path id="XMLID_142_" class="st0" d="M415.531,12h-2.547v-1.641h2.547V4.672h1.906v5.688h2.766V12h-2.766v12.219h-1.906V12z"/>
	<path id="XMLID_139_" class="st0" d="M433.328,24.219v-2.531c-0.939,2.094-2.561,3.141-4.866,3.141
		c-2.097,0-3.745-0.734-4.944-2.203c-1.126-1.364-1.689-3.114-1.689-5.25c0-2.083,0.542-3.828,1.627-5.234
		c1.189-1.531,2.796-2.297,4.819-2.297c2.42,0,4.104,1.016,5.054,3.047v-2.531h1.906v13.859H433.328z M423.953,17.438
		c0,1.667,0.354,2.984,1.062,3.953c0.802,1.094,2.005,1.641,3.609,1.641c1.604,0,2.817-0.614,3.641-1.844
		c0.708-1.062,1.062-2.432,1.062-4.109c0-1.594-0.375-2.875-1.125-3.844c-0.823-1.083-2.006-1.625-3.547-1.625
		c-1.584,0-2.792,0.6-3.625,1.797C424.312,14.438,423.953,15.781,423.953,17.438z"/>
	<path id="XMLID_137_" class="st0" d="M442.484,24.219H440.5V0h1.984V24.219z"/>
	<path id="XMLID_134_" class="st0" d="M467.234,24.219v-2.531c-0.928,2.094-2.537,3.141-4.828,3.141
		c-2.094,0-3.74-0.734-4.938-2.203c-1.125-1.364-1.688-3.114-1.688-5.25c0-2.083,0.541-3.828,1.625-5.234
		c1.188-1.531,2.791-2.297,4.812-2.297c2.396,0,4.067,1.016,5.016,3.047V0h1.953v24.219H467.234z M457.906,17.438
		c0,1.667,0.354,2.984,1.061,3.953c0.801,1.094,2.002,1.641,3.604,1.641c1.591,0,2.797-0.619,3.619-1.859
		c0.696-1.052,1.045-2.416,1.045-4.094c0-1.594-0.364-2.875-1.092-3.844c-0.822-1.083-2.002-1.625-3.541-1.625
		c-1.581,0-2.787,0.6-3.619,1.797C458.265,14.438,457.906,15.781,457.906,17.438z"/>
	<path id="XMLID_131_" class="st0" d="M480.562,24.828c-2.011,0-3.781-0.755-5.312-2.266c-1.428-1.406-2.141-3.156-2.141-5.25
		c0-2.072,0.727-3.836,2.18-5.289s3.211-2.18,5.273-2.18c2.104,0,3.896,0.729,5.375,2.188c1.479,1.459,2.219,3.219,2.219,5.281
		c0,2.053-0.729,3.803-2.188,5.25C484.447,24.073,482.646,24.828,480.562,24.828z M480.625,23.031c1.562,0,2.869-0.562,3.922-1.688
		c1.021-1.094,1.531-2.427,1.531-4c0-1.583-0.516-2.93-1.547-4.039s-2.334-1.664-3.906-1.664c-1.573,0-2.873,0.555-3.898,1.664
		c-1.026,1.109-1.539,2.456-1.539,4.039c0,1.573,0.51,2.906,1.531,4C477.76,22.469,479.062,23.031,480.625,23.031z"/>
	<path id="XMLID_129_" class="st0" d="M495.489,25.123l-5.536-14.764h2.02l3.607,9.979l4.357-10.713l4.343,10.719l3.622-9.984h2.02
		l-5.548,14.751l-4.397-11.02L495.489,25.123z"/>
	<path id="XMLID_127_" class="st0" d="M512.859,24.219V10.359h1.828V12.5c1.125-1.771,2.755-2.656,4.891-2.656
		c1.572,0,2.797,0.436,3.672,1.305c0.875,0.87,1.312,2.092,1.312,3.664v9.406h-1.953v-8.547c0-2.729-1.185-4.094-3.554-4.094
		c-2.86,0-4.29,1.803-4.29,5.406v7.234H512.859z"/>
	<path id="XMLID_125_" class="st0" d="M531.641,24.219h-1.984V0h1.984V24.219z"/>
	<path id="XMLID_122_" class="st0" d="M543.188,24.828c-2.011,0-3.781-0.755-5.312-2.266c-1.428-1.406-2.141-3.156-2.141-5.25
		c0-2.072,0.727-3.836,2.18-5.289s3.211-2.18,5.273-2.18c2.104,0,3.896,0.729,5.375,2.188c1.479,1.459,2.219,3.219,2.219,5.281
		c0,2.053-0.729,3.803-2.188,5.25C547.072,24.073,545.271,24.828,543.188,24.828z M543.25,23.031c1.562,0,2.869-0.562,3.922-1.688
		c1.021-1.094,1.531-2.427,1.531-4c0-1.583-0.516-2.93-1.547-4.039s-2.334-1.664-3.906-1.664c-1.573,0-2.873,0.555-3.898,1.664
		c-1.026,1.109-1.539,2.456-1.539,4.039c0,1.573,0.51,2.906,1.531,4C540.385,22.469,541.688,23.031,543.25,23.031z"/>
	<path id="XMLID_119_" class="st0" d="M565.016,24.219v-2.531c-0.939,2.094-2.561,3.141-4.866,3.141
		c-2.097,0-3.745-0.734-4.944-2.203c-1.126-1.364-1.689-3.114-1.689-5.25c0-2.083,0.542-3.828,1.627-5.234
		c1.189-1.531,2.796-2.297,4.819-2.297c2.42,0,4.104,1.016,5.054,3.047v-2.531h1.906v13.859H565.016z M555.641,17.438
		c0,1.667,0.354,2.984,1.062,3.953c0.802,1.094,2.005,1.641,3.609,1.641c1.604,0,2.817-0.614,3.641-1.844
		c0.708-1.062,1.062-2.432,1.062-4.109c0-1.594-0.375-2.875-1.125-3.844c-0.823-1.083-2.006-1.625-3.547-1.625
		c-1.584,0-2.792,0.6-3.625,1.797C556,14.438,555.641,15.781,555.641,17.438z"/>
	<path id="XMLID_116_" class="st0" d="M582.344,24.219v-2.531c-0.928,2.094-2.537,3.141-4.828,3.141
		c-2.094,0-3.74-0.734-4.938-2.203c-1.125-1.364-1.688-3.114-1.688-5.25c0-2.083,0.541-3.828,1.625-5.234
		c1.188-1.531,2.791-2.297,4.812-2.297c2.396,0,4.067,1.016,5.016,3.047V0h1.953v24.219H582.344z M573.016,17.438
		c0,1.667,0.354,2.984,1.061,3.953c0.801,1.094,2.002,1.641,3.604,1.641c1.591,0,2.797-0.619,3.619-1.859
		c0.696-1.052,1.045-2.416,1.045-4.094c0-1.594-0.364-2.875-1.092-3.844c-0.822-1.083-2.002-1.625-3.541-1.625
		c-1.581,0-2.787,0.6-3.619,1.797C573.374,14.438,573.016,15.781,573.016,17.438z"/>
</g>
</svg>