<!-- Generator: Adobe Illustrator 19.0.0, SVG Export Plug-In  -->
<svg version="1.1"
	 xmlns="http://www.w3.org/2000/svg" xmlns:xlink="http://www.w3.org/1999/xlink" xmlns:a="http://ns.adobe.com/AdobeSVGViewerExtensions/3.0/"
	 x="0px" y="0px" width="338.516px" height="31.188px" viewBox="0 0 338.516 31.188"
	 style="enable-background:new 0 0 338.516 31.188;" xml:space="preserve">
<style type="text/css">
	.st0{fill:#FFFFFF;}
</style>
<defs>
</defs>
<g id="XMLID_67_">
	<path id="XMLID_117_" class="st0" d="M11.906,12.891c-1.292-0.896-2.729-1.344-4.312-1.344c-1.771,0-3.162,0.573-4.172,1.719
		c-0.979,1.094-1.469,2.537-1.469,4.328c0,1.646,0.528,2.99,1.586,4.031c1.057,1.042,2.409,1.562,4.055,1.562
		c1.542,0,3.052-0.521,4.531-1.562v2.109c-1.354,0.771-2.984,1.156-4.891,1.156c-2.146,0-3.888-0.697-5.227-2.094
		C0.669,21.401,0,19.625,0,17.469c0-2.271,0.703-4.109,2.109-5.516s3.245-2.109,5.516-2.109c1.688,0,3.125,0.312,4.312,0.938
		L11.906,12.891z"/>
	<path id="XMLID_114_" class="st0" d="M22.016,24.828c-2.011,0-3.781-0.755-5.312-2.266c-1.427-1.406-2.141-3.156-2.141-5.25
		c0-2.072,0.727-3.836,2.18-5.289s3.211-2.18,5.273-2.18c2.104,0,3.896,0.729,5.375,2.188c1.479,1.459,2.219,3.219,2.219,5.281
		c0,2.053-0.729,3.803-2.188,5.25C25.901,24.073,24.099,24.828,22.016,24.828z M22.078,23.031c1.562,0,2.87-0.562,3.922-1.688
		c1.021-1.094,1.531-2.427,1.531-4c0-1.583-0.516-2.93-1.547-4.039s-2.333-1.664-3.906-1.664c-1.573,0-2.873,0.555-3.898,1.664
		c-1.026,1.109-1.539,2.456-1.539,4.039c0,1.573,0.51,2.906,1.531,4C19.213,22.469,20.516,23.031,22.078,23.031z"/>
	<path id="XMLID_112_" class="st0" d="M33.578,24.219V10.359h1.828V12.5c1.125-1.771,2.755-2.656,4.891-2.656
		c1.573,0,2.797,0.436,3.672,1.305c0.875,0.87,1.312,2.092,1.312,3.664v9.406h-1.953v-8.547c0-2.729-1.185-4.094-3.554-4.094
		c-2.86,0-4.29,1.803-4.29,5.406v7.234H33.578z"/>
	<path id="XMLID_110_" class="st0" d="M50.656,12h-2.547v-1.641h2.547V4.672h1.906v5.688h2.766V12h-2.766v12.219h-1.906V12z"/>
	<path id="XMLID_107_" class="st0" d="M57.828,4.953c0-0.406,0.146-0.752,0.438-1.039c0.292-0.286,0.641-0.43,1.047-0.43
		s0.758,0.144,1.055,0.43c0.297,0.287,0.445,0.633,0.445,1.039c0,0.428-0.144,0.779-0.43,1.055c-0.287,0.276-0.644,0.414-1.07,0.414
		c-0.417,0-0.769-0.141-1.055-0.422C57.971,5.719,57.828,5.37,57.828,4.953z M58.312,24.219V10.359h1.984v13.859H58.312z"/>
	<path id="XMLID_105_" class="st0" d="M65.547,24.219V10.359h1.828V12.5c1.125-1.771,2.755-2.656,4.891-2.656
		c1.573,0,2.797,0.436,3.672,1.305c0.875,0.87,1.312,2.092,1.312,3.664v9.406h-1.953v-8.547c0-2.729-1.185-4.094-3.554-4.094
		c-2.86,0-4.29,1.803-4.29,5.406v7.234H65.547z"/>
	<path id="XMLID_103_" class="st0" d="M84.125,10.359v6.922c0,1.823,0.209,3.151,0.626,3.984c0.595,1.178,1.701,1.766,3.319,1.766
		c1.607,0,2.714-0.594,3.319-1.781c0.438-0.844,0.657-2.166,0.657-3.969v-6.922h1.906v7.906c0,4.375-1.948,6.562-5.844,6.562
		c-3.927,0-5.891-2.188-5.891-6.562v-7.906H84.125z"/>
	<path id="XMLID_100_" class="st0" d="M110.984,17.344H99.969c0.052,1.636,0.438,2.964,1.156,3.984
		c0.833,1.178,2.026,1.766,3.578,1.766c2.052,0,3.588-1.109,4.609-3.328l1.766,0.969c-1.375,2.729-3.5,4.094-6.375,4.094
		c-2.104,0-3.781-0.713-5.031-2.141c-1.188-1.364-1.781-3.114-1.781-5.25c0-2.166,0.573-3.947,1.719-5.344
		c1.239-1.5,2.917-2.25,5.031-2.25c2.01,0,3.588,0.688,4.734,2.062c1.073,1.292,1.609,2.964,1.609,5.016V17.344z M108.703,15.703
		c-0.198-2.666-1.636-4-4.312-4c-1.188,0-2.169,0.367-2.945,1.102c-0.776,0.734-1.227,1.701-1.352,2.898H108.703z"/>
	<path id="XMLID_98_" class="st0" d="M124.609,12h-2.547v-1.641h2.547V4.672h1.906v5.688h2.766V12h-2.766v12.219h-1.906V12z"/>
	<path id="XMLID_95_" class="st0" d="M138.438,24.828c-2.011,0-3.781-0.755-5.312-2.266c-1.427-1.406-2.141-3.156-2.141-5.25
		c0-2.072,0.727-3.836,2.18-5.289s3.211-2.18,5.273-2.18c2.104,0,3.896,0.729,5.375,2.188c1.479,1.459,2.219,3.219,2.219,5.281
		c0,2.053-0.729,3.803-2.188,5.25C142.323,24.073,140.521,24.828,138.438,24.828z M138.5,23.031c1.562,0,2.87-0.562,3.922-1.688
		c1.021-1.094,1.531-2.427,1.531-4c0-1.583-0.516-2.93-1.547-4.039s-2.333-1.664-3.906-1.664c-1.573,0-2.873,0.555-3.898,1.664
		c-1.026,1.109-1.539,2.456-1.539,4.039c0,1.573,0.51,2.906,1.531,4C135.635,22.469,136.938,23.031,138.5,23.031z"/>
	<path id="XMLID_93_" class="st0" d="M159.219,24.219V10.359h1.828V12.5c1.125-1.771,2.755-2.656,4.891-2.656
		c1.573,0,2.797,0.436,3.672,1.305c0.875,0.87,1.312,2.092,1.312,3.664v9.406h-1.953v-8.547c0-2.729-1.185-4.094-3.554-4.094
		c-2.86,0-4.29,1.803-4.29,5.406v7.234H159.219z"/>
	<path id="XMLID_90_" class="st0" d="M187.797,17.344h-11.016c0.052,1.636,0.438,2.964,1.156,3.984
		c0.833,1.178,2.026,1.766,3.578,1.766c2.052,0,3.588-1.109,4.609-3.328l1.766,0.969c-1.375,2.729-3.5,4.094-6.375,4.094
		c-2.104,0-3.781-0.713-5.031-2.141c-1.188-1.364-1.781-3.114-1.781-5.25c0-2.166,0.573-3.947,1.719-5.344
		c1.239-1.5,2.917-2.25,5.031-2.25c2.01,0,3.588,0.688,4.734,2.062c1.073,1.292,1.609,2.964,1.609,5.016V17.344z M185.516,15.703
		c-0.198-2.666-1.636-4-4.312-4c-1.188,0-2.169,0.367-2.945,1.102c-0.776,0.734-1.227,1.701-1.352,2.898H185.516z"/>
	<path id="XMLID_88_" class="st0" d="M195.161,25.123l-5.536-14.764h2.019l3.608,9.979l4.357-10.713l4.343,10.719l3.622-9.984h2.02
		l-5.548,14.751l-4.397-11.02L195.161,25.123z"/>
	<path id="XMLID_86_" class="st0" d="M212.703,16.312h6.812v2.016h-6.812V16.312z"/>
	<path id="XMLID_83_" class="st0" d="M236.438,10.359v11.453c0,3.302-0.214,5.406-0.641,6.312c-0.969,2.041-2.953,3.062-5.953,3.062
		c-3.677,0-5.734-1.438-6.172-4.312h2.417c0.313,1.729,1.626,2.594,3.938,2.594c2.479,0,3.934-0.964,4.362-2.891
		c0.095-0.459,0.142-1.162,0.142-2.109v-2.812c-0.92,2.115-2.589,3.172-5.005,3.172c-2.082,0-3.703-0.744-4.864-2.234
		c-1.046-1.354-1.569-3.104-1.569-5.25c0-2.135,0.544-3.891,1.632-5.266c1.182-1.489,2.813-2.234,4.895-2.234
		c1.077,0,2.055,0.271,2.934,0.812c0.92,0.562,1.579,1.328,1.977,2.297v-2.594H236.438z M229.82,11.609
		c-1.565,0-2.76,0.589-3.584,1.766c-0.71,1.031-1.064,2.365-1.064,4c0,1.615,0.334,2.917,1.002,3.906
		c0.771,1.167,1.925,1.75,3.459,1.75c1.596,0,2.833-0.588,3.709-1.766c0.793-1.052,1.189-2.406,1.189-4.062
		c0-1.635-0.371-2.947-1.111-3.938C232.596,12.162,231.396,11.609,229.82,11.609z"/>
	<path id="XMLID_80_" class="st0" d="M247.844,24.828c-2.011,0-3.781-0.755-5.312-2.266c-1.427-1.406-2.141-3.156-2.141-5.25
		c0-2.072,0.727-3.836,2.18-5.289s3.211-2.18,5.273-2.18c2.104,0,3.896,0.729,5.375,2.188c1.479,1.459,2.219,3.219,2.219,5.281
		c0,2.053-0.729,3.803-2.188,5.25C251.729,24.073,249.927,24.828,247.844,24.828z M247.906,23.031c1.562,0,2.87-0.562,3.922-1.688
		c1.021-1.094,1.531-2.427,1.531-4c0-1.583-0.516-2.93-1.547-4.039s-2.333-1.664-3.906-1.664c-1.573,0-2.873,0.555-3.898,1.664
		c-1.026,1.109-1.539,2.456-1.539,4.039c0,1.573,0.51,2.906,1.531,4C245.042,22.469,246.344,23.031,247.906,23.031z"/>
	<path id="XMLID_77_" class="st0" d="M269.688,24.219v-2.531c-0.927,2.094-2.537,3.141-4.828,3.141c-2.094,0-3.74-0.734-4.938-2.203
		c-1.125-1.364-1.688-3.114-1.688-5.25c0-2.083,0.542-3.828,1.625-5.234c1.188-1.531,2.792-2.297,4.812-2.297
		c2.396,0,4.067,1.016,5.016,3.047V0h1.953v24.219H269.688z M260.359,17.438c0,1.667,0.354,2.984,1.061,3.953
		c0.801,1.094,2.002,1.641,3.604,1.641c1.591,0,2.797-0.619,3.619-1.859c0.696-1.052,1.045-2.416,1.045-4.094
		c0-1.594-0.364-2.875-1.092-3.844c-0.822-1.083-2.002-1.625-3.541-1.625c-1.581,0-2.787,0.6-3.619,1.797
		C260.718,14.438,260.359,15.781,260.359,17.438z"/>
	<path id="XMLID_75_" class="st0" d="M277.172,22.906c0-0.447,0.153-0.825,0.461-1.133c0.307-0.307,0.685-0.461,1.133-0.461
		c0.448,0,0.825,0.154,1.133,0.461c0.307,0.308,0.461,0.686,0.461,1.133c0,0.448-0.154,0.826-0.461,1.133
		c-0.308,0.307-0.685,0.461-1.133,0.461c-0.448,0-0.826-0.154-1.133-0.461C277.325,23.732,277.172,23.354,277.172,22.906z"/>
	<path id="XMLID_73_" class="st0" d="M296.719,12.891c-1.292-0.896-2.729-1.344-4.312-1.344c-1.771,0-3.162,0.573-4.172,1.719
		c-0.979,1.094-1.469,2.537-1.469,4.328c0,1.646,0.528,2.99,1.586,4.031c1.057,1.042,2.409,1.562,4.055,1.562
		c1.541,0,3.052-0.521,4.531-1.562v2.109c-1.354,0.771-2.984,1.156-4.891,1.156c-2.146,0-3.888-0.697-5.227-2.094
		c-1.339-1.396-2.008-3.172-2.008-5.328c0-2.271,0.703-4.109,2.109-5.516s3.245-2.109,5.516-2.109c1.688,0,3.125,0.312,4.312,0.938
		L296.719,12.891z"/>
	<path id="XMLID_70_" class="st0" d="M306.828,24.828c-2.011,0-3.781-0.755-5.312-2.266c-1.428-1.406-2.141-3.156-2.141-5.25
		c0-2.072,0.727-3.836,2.18-5.289s3.211-2.18,5.273-2.18c2.104,0,3.896,0.729,5.375,2.188c1.479,1.459,2.219,3.219,2.219,5.281
		c0,2.053-0.729,3.803-2.188,5.25C310.713,24.073,308.911,24.828,306.828,24.828z M306.891,23.031c1.562,0,2.869-0.562,3.922-1.688
		c1.021-1.094,1.531-2.427,1.531-4c0-1.583-0.516-2.93-1.547-4.039s-2.334-1.664-3.906-1.664c-1.573,0-2.873,0.555-3.898,1.664
		c-1.026,1.109-1.539,2.456-1.539,4.039c0,1.573,0.51,2.906,1.531,4C304.025,22.469,305.328,23.031,306.891,23.031z"/>
	<path id="XMLID_68_" class="st0" d="M320.297,24.219h-1.906V10.359h1.906v2.172c0.938-1.791,2.408-2.688,4.41-2.688
		c2.043,0,3.456,0.912,4.238,2.734c1.094-1.822,2.705-2.734,4.832-2.734c1.512,0,2.685,0.464,3.519,1.391
		c0.813,0.886,1.22,2.089,1.22,3.609v9.375h-1.906v-8.609c0-2.729-1.111-4.094-3.336-4.094c-2.567,0-3.852,1.803-3.852,5.406v7.297
		h-1.906v-8.609c0-2.729-1.091-4.094-3.272-4.094c-2.631,0-3.946,1.803-3.946,5.406V24.219z"/>
</g>
</svg>