<!-- Generator: Adobe Illustrator 18.1.1, SVG Export Plug-In  -->
<svg version="1.1"
	 xmlns="http://www.w3.org/2000/svg" xmlns:xlink="http://www.w3.org/1999/xlink" xmlns:a="http://ns.adobe.com/AdobeSVGViewerExtensions/3.0/"
	 x="0px" y="0px" width="74.057px" height="5.848px" viewBox="0 0 74.057 5.848" enable-background="new 0 0 74.057 5.848"
	 xml:space="preserve">
<defs>
</defs>
<g>
	<path d="M2.039,4.462C1.793,4.591,1.556,4.655,1.327,4.655c-0.398,0-0.72-0.119-0.962-0.357C0.121,4.06,0,3.742,0,3.346
		C0,2.91,0.141,2.551,0.424,2.269C0.705,1.987,1.064,1.846,1.5,1.846c0.324,0,0.614,0.089,0.87,0.267L2.279,2.44
		C2.023,2.253,1.758,2.159,1.482,2.159c-0.33,0-0.6,0.113-0.809,0.34C0.473,2.718,0.372,2.994,0.372,3.328
		c0,0.297,0.087,0.539,0.263,0.727c0.174,0.188,0.409,0.281,0.704,0.281c0.248,0,0.506-0.1,0.773-0.299L2.039,4.462z"/>
	<path d="M3.191,3.352c0-0.432,0.139-0.791,0.416-1.077s0.631-0.429,1.061-0.429c0.387,0,0.703,0.119,0.949,0.357
		s0.369,0.55,0.369,0.935c0,0.436-0.135,0.796-0.404,1.081C5.307,4.51,4.952,4.655,4.519,4.655c-0.396,0-0.717-0.119-0.961-0.356
		S3.191,3.746,3.191,3.352z M4.65,2.165c-0.326,0-0.591,0.114-0.794,0.343C3.661,2.729,3.563,3.004,3.563,3.334
		c0,0.293,0.087,0.533,0.263,0.721C4,4.242,4.233,4.336,4.524,4.336c0.322,0,0.585-0.116,0.788-0.349
		c0.197-0.221,0.296-0.494,0.296-0.82c0-0.289-0.088-0.528-0.264-0.718S4.938,2.165,4.65,2.165z"/>
	<path d="M7.056,4.541l0.34-2.599h0.343L7.68,2.364c0.266-0.346,0.587-0.519,0.964-0.519c0.244,0,0.438,0.064,0.58,0.193
		c0.15,0.135,0.226,0.322,0.226,0.562c0,0.059-0.009,0.155-0.026,0.29L9.209,4.541H8.854l0.217-1.629
		c0.012-0.088,0.018-0.171,0.018-0.249c0-0.34-0.198-0.51-0.594-0.51c-0.515,0-0.82,0.364-0.916,1.093L7.407,4.541H7.056z"/>
	<path d="M11.018,2.25h-0.431l0.035-0.308h0.437l0.141-1.066h0.35l-0.143,1.066h0.531L11.894,2.25h-0.528l-0.297,2.291H10.72
		L11.018,2.25z"/>
	<path d="M12.691,4.541l0.343-2.599h0.352l-0.34,2.599H12.691z M13.058,0.984c0-0.076,0.025-0.14,0.074-0.19
		c0.051-0.051,0.113-0.076,0.189-0.076s0.139,0.025,0.189,0.076c0.049,0.051,0.074,0.114,0.074,0.19
		c0,0.074-0.025,0.137-0.076,0.188s-0.113,0.076-0.188,0.076c-0.076,0-0.139-0.025-0.189-0.075
		C13.083,1.124,13.058,1.061,13.058,0.984z"/>
	<path d="M14.54,4.541l0.34-2.599h0.343l-0.059,0.422c0.266-0.346,0.587-0.519,0.964-0.519c0.244,0,0.438,0.064,0.58,0.193
		c0.15,0.135,0.226,0.322,0.226,0.562c0,0.059-0.009,0.155-0.026,0.29l-0.214,1.649h-0.354l0.217-1.629
		c0.012-0.088,0.018-0.171,0.018-0.249c0-0.34-0.198-0.51-0.594-0.51c-0.515,0-0.82,0.364-0.916,1.093l-0.172,1.294H14.54z"/>
	<path d="M18.481,1.942h0.349l-0.144,1.104c-0.049,0.375-0.073,0.615-0.073,0.721c0,0.186,0.063,0.328,0.19,0.428
		c0.117,0.09,0.271,0.135,0.462,0.135c0.299,0,0.517-0.121,0.655-0.363c0.09-0.16,0.159-0.419,0.208-0.777l0.172-1.248h0.346
		L20.479,3.22c-0.035,0.268-0.068,0.463-0.1,0.586c-0.061,0.225-0.147,0.399-0.261,0.524c-0.197,0.217-0.485,0.325-0.864,0.325
		c-0.289,0-0.522-0.067-0.7-0.202c-0.197-0.15-0.296-0.365-0.296-0.645c0-0.129,0.022-0.362,0.067-0.7L18.481,1.942z"/>
	<path d="M24.26,3.293h-2.177V3.36c0,0.303,0.075,0.541,0.226,0.715c0.158,0.182,0.387,0.272,0.686,0.272
		c0.352,0,0.638-0.163,0.858-0.489l0.24,0.231c-0.277,0.377-0.646,0.565-1.104,0.565c-0.381,0-0.688-0.113-0.922-0.34
		s-0.35-0.529-0.35-0.908c0-0.443,0.122-0.81,0.366-1.099C22.345,2,22.692,1.846,23.126,1.846c0.371,0,0.656,0.104,0.855,0.312
		s0.299,0.499,0.299,0.872C24.28,3.092,24.273,3.18,24.26,3.293z M23.932,3c0-0.26-0.062-0.464-0.185-0.612
		c-0.135-0.16-0.329-0.24-0.583-0.24c-0.543,0-0.892,0.284-1.046,0.853H23.932z"/>
	<path d="M27.917,2.25h-0.431l0.035-0.308h0.437l0.141-1.066h0.35l-0.143,1.066h0.531L28.793,2.25h-0.528l-0.297,2.291h-0.349
		L27.917,2.25z"/>
	<path d="M29.5,3.352c0-0.432,0.139-0.791,0.416-1.077s0.631-0.429,1.061-0.429c0.387,0,0.703,0.119,0.949,0.357
		s0.369,0.55,0.369,0.935c0,0.436-0.135,0.796-0.404,1.081c-0.275,0.291-0.63,0.437-1.063,0.437c-0.396,0-0.717-0.119-0.961-0.356
		S29.5,3.746,29.5,3.352z M30.959,2.165c-0.326,0-0.591,0.114-0.794,0.343c-0.195,0.221-0.293,0.496-0.293,0.826
		c0,0.293,0.087,0.533,0.263,0.721c0.174,0.188,0.407,0.281,0.698,0.281c0.322,0,0.585-0.116,0.788-0.349
		c0.197-0.221,0.296-0.494,0.296-0.82c0-0.289-0.088-0.528-0.264-0.718S31.246,2.165,30.959,2.165z"/>
	<path d="M35.571,4.541l0.34-2.599h0.343l-0.059,0.422c0.266-0.346,0.587-0.519,0.964-0.519c0.244,0,0.438,0.064,0.58,0.193
		c0.15,0.135,0.226,0.322,0.226,0.562c0,0.059-0.009,0.155-0.026,0.29l-0.214,1.649H37.37l0.217-1.629
		c0.012-0.088,0.018-0.171,0.018-0.249c0-0.34-0.198-0.51-0.594-0.51c-0.515,0-0.82,0.364-0.916,1.093l-0.172,1.294H35.571z"/>
	<path d="M41.678,3.293h-2.177V3.36c0,0.303,0.075,0.541,0.226,0.715c0.158,0.182,0.387,0.272,0.686,0.272
		c0.352,0,0.638-0.163,0.858-0.489l0.24,0.231c-0.277,0.377-0.646,0.565-1.104,0.565c-0.381,0-0.688-0.113-0.922-0.34
		s-0.35-0.529-0.35-0.908c0-0.443,0.122-0.81,0.366-1.099C39.763,2,40.11,1.846,40.544,1.846c0.371,0,0.656,0.104,0.855,0.312
		s0.299,0.499,0.299,0.872C41.698,3.092,41.691,3.18,41.678,3.293z M41.35,3c0-0.26-0.062-0.464-0.185-0.612
		c-0.135-0.16-0.329-0.24-0.583-0.24c-0.543,0-0.892,0.284-1.046,0.853H41.35z"/>
	<path d="M43.472,4.704l-0.859-2.761h0.377l0.56,1.947l1.003-2.137l0.492,2.128l1.09-1.938h0.39l-1.605,2.76l-0.486-2.079
		L43.472,4.704z"/>
	<path d="M47.28,3.088h1.28l-0.044,0.325h-1.277L47.28,3.088z"/>
	<path d="M52.235,1.942L51.907,4.45c-0.059,0.449-0.177,0.783-0.354,1.002c-0.211,0.264-0.527,0.396-0.949,0.396
		c-0.309,0-0.563-0.089-0.765-0.267c-0.207-0.182-0.32-0.426-0.34-0.732l0.36-0.003V4.86c0,0.213,0.076,0.381,0.229,0.504
		c0.143,0.115,0.322,0.173,0.539,0.173c0.318,0,0.55-0.113,0.696-0.34c0.107-0.162,0.186-0.425,0.234-0.788L51.6,4.11
		c-0.219,0.332-0.519,0.498-0.899,0.498c-0.344,0-0.616-0.134-0.817-0.401c-0.184-0.244-0.275-0.543-0.275-0.896
		c0-0.402,0.114-0.742,0.343-1.02c0.244-0.297,0.562-0.445,0.955-0.445c0.436,0,0.739,0.204,0.911,0.612l0.07-0.516H52.235z
		 M50.791,4.312c0.297,0,0.533-0.13,0.709-0.39c0.154-0.229,0.231-0.498,0.231-0.809c0-0.271-0.064-0.497-0.193-0.677
		c-0.145-0.201-0.348-0.302-0.609-0.302c-0.301,0-0.54,0.127-0.718,0.381c-0.158,0.223-0.237,0.491-0.237,0.806
		c0,0.279,0.065,0.508,0.196,0.686C50.316,4.211,50.523,4.312,50.791,4.312z"/>
	<path d="M53.322,3.352c0-0.432,0.139-0.791,0.416-1.077s0.631-0.429,1.061-0.429c0.387,0,0.703,0.119,0.949,0.357
		s0.369,0.55,0.369,0.935c0,0.436-0.135,0.796-0.404,1.081c-0.275,0.291-0.63,0.437-1.063,0.437c-0.396,0-0.717-0.119-0.961-0.356
		S53.322,3.746,53.322,3.352z M54.781,2.165c-0.326,0-0.591,0.114-0.794,0.343c-0.195,0.221-0.293,0.496-0.293,0.826
		c0,0.293,0.087,0.533,0.263,0.721c0.174,0.188,0.407,0.281,0.698,0.281c0.322,0,0.585-0.116,0.788-0.349
		c0.197-0.221,0.296-0.494,0.296-0.82c0-0.289-0.088-0.528-0.264-0.718S55.068,2.165,54.781,2.165z"/>
	<path d="M59.689,0h0.346l-0.592,4.541h-0.354l0.054-0.39c-0.221,0.336-0.521,0.504-0.899,0.504c-0.347,0-0.62-0.139-0.821-0.416
		c-0.182-0.25-0.272-0.554-0.272-0.911c0-0.406,0.113-0.751,0.34-1.034c0.246-0.303,0.567-0.454,0.965-0.454
		c0.432,0,0.733,0.208,0.905,0.624L59.689,0z M58.333,4.356c0.299,0,0.536-0.135,0.712-0.404c0.152-0.232,0.229-0.506,0.229-0.82
		c0-0.273-0.063-0.502-0.19-0.686c-0.146-0.207-0.351-0.311-0.612-0.311c-0.303,0-0.543,0.131-0.721,0.393
		c-0.156,0.229-0.234,0.501-0.234,0.817c0,0.281,0.064,0.514,0.193,0.697C57.855,4.252,58.063,4.356,58.333,4.356z"/>
	<path d="M61.021,4.295c0-0.084,0.029-0.155,0.088-0.212s0.13-0.086,0.214-0.086s0.154,0.029,0.213,0.086
		c0.057,0.058,0.086,0.128,0.086,0.212s-0.029,0.155-0.086,0.212c-0.059,0.058-0.129,0.086-0.213,0.086s-0.155-0.029-0.214-0.086
		S61.021,4.379,61.021,4.295z"/>
	<path d="M65.11,4.462c-0.246,0.129-0.483,0.193-0.712,0.193c-0.398,0-0.72-0.119-0.962-0.357c-0.244-0.238-0.365-0.556-0.365-0.952
		c0-0.436,0.141-0.794,0.424-1.077c0.281-0.282,0.641-0.423,1.076-0.423c0.324,0,0.614,0.089,0.87,0.267L65.351,2.44
		c-0.256-0.188-0.521-0.281-0.797-0.281c-0.33,0-0.6,0.113-0.809,0.34c-0.201,0.219-0.302,0.495-0.302,0.829
		c0,0.297,0.087,0.539,0.263,0.727c0.174,0.188,0.409,0.281,0.704,0.281c0.248,0,0.506-0.1,0.773-0.299L65.11,4.462z"/>
	<path d="M66.263,3.352c0-0.432,0.139-0.791,0.416-1.077s0.631-0.429,1.061-0.429c0.387,0,0.703,0.119,0.949,0.357
		s0.369,0.55,0.369,0.935c0,0.436-0.135,0.796-0.404,1.081c-0.275,0.291-0.63,0.437-1.063,0.437c-0.396,0-0.717-0.119-0.961-0.356
		S66.263,3.746,66.263,3.352z M67.722,2.165c-0.326,0-0.591,0.114-0.794,0.343c-0.195,0.221-0.293,0.496-0.293,0.826
		c0,0.293,0.087,0.533,0.263,0.721c0.174,0.188,0.407,0.281,0.698,0.281c0.322,0,0.585-0.116,0.788-0.349
		c0.197-0.221,0.296-0.494,0.296-0.82c0-0.289-0.088-0.528-0.264-0.718S68.009,2.165,67.722,2.165z"/>
	<path d="M71.801,4.541L72.018,2.9c0.012-0.088,0.018-0.165,0.018-0.231c0-0.352-0.185-0.527-0.554-0.527
		c-0.462,0-0.741,0.364-0.837,1.093l-0.171,1.307h-0.346l0.334-2.599h0.331L70.726,2.35c0.258-0.344,0.562-0.516,0.914-0.516
		c0.402,0,0.648,0.188,0.738,0.565c0.256-0.377,0.567-0.565,0.935-0.565c0.232,0,0.414,0.067,0.547,0.202
		c0.131,0.135,0.197,0.319,0.197,0.554c0,0.07-0.008,0.167-0.023,0.29l-0.211,1.661h-0.343l0.211-1.638
		c0-0.004,0.002-0.024,0.006-0.062c0.008-0.086,0.012-0.149,0.012-0.19c0-0.34-0.184-0.51-0.551-0.51
		c-0.467,0-0.747,0.364-0.841,1.093l-0.167,1.307H71.801z"/>
</g>
</svg>