<!-- Generator: Adobe Illustrator 18.1.1, SVG Export Plug-In  -->
<svg version="1.1"
	 xmlns="http://www.w3.org/2000/svg" xmlns:xlink="http://www.w3.org/1999/xlink" xmlns:a="http://ns.adobe.com/AdobeSVGViewerExtensions/3.0/"
	 x="0px" y="0px" width="122px" height="40px" viewBox="0 0 122 40" enable-background="new 0 0 122 40" xml:space="preserve">
<defs>
</defs>
<g id="apple.png_x2B__x40_2x_copy">
	<g id="background_1_">
		<g>
			<path fill-rule="evenodd" clip-rule="evenodd" fill="#050708" d="M118.246,0H3.754C1.681,0,0,1.791,0,4v32
				c0,2.209,1.681,4,3.754,4h114.492c2.073,0,3.754-1.791,3.754-4V4C122,1.791,120.319,0,118.246,0z"/>
		</g>
	</g>
	<g id="download_on_the_app_store_copy">
		<g id="Download_on_the_x0D_App_Store_copy">
		</g>
		<g>
			<path fill="#FFFFFF" d="M47.379,11.808l-0.7,2.119H45.78l2.289-6.736h1.049l2.299,6.736h-0.93l-0.719-2.119H47.379z
				 M49.588,11.129l-0.66-1.939c-0.15-0.44-0.25-0.84-0.35-1.229h-0.02c-0.1,0.4-0.21,0.81-0.34,1.219l-0.66,1.949H49.588z"/>
			<path fill="#FFFFFF" d="M52.452,9.09l0.949,2.719c0.16,0.439,0.29,0.839,0.39,1.239h0.03c0.11-0.4,0.25-0.8,0.41-1.239
				l0.939-2.719h0.92l-1.899,4.837h-0.839L51.513,9.09H52.452z"/>
			<path fill="#FFFFFF" d="M59.627,13.927l-0.07-0.61h-0.03c-0.27,0.38-0.79,0.72-1.479,0.72c-0.979,0-1.479-0.689-1.479-1.389
				c0-1.169,1.04-1.809,2.908-1.799v-0.1c0-0.4-0.11-1.12-1.099-1.12c-0.45,0-0.919,0.14-1.259,0.36l-0.2-0.58
				c0.4-0.26,0.979-0.43,1.589-0.43c1.479,0,1.839,1.009,1.839,1.979v1.809c0,0.419,0.02,0.83,0.08,1.159H59.627z M59.497,11.458
				c-0.959-0.02-2.049,0.15-2.049,1.089c0,0.57,0.38,0.84,0.83,0.84c0.63,0,1.029-0.4,1.169-0.81c0.03-0.09,0.05-0.19,0.05-0.28
				V11.458z"/>
			<path fill="#FFFFFF" d="M62.72,7.73c0.01,0.3-0.21,0.54-0.56,0.54c-0.31,0-0.529-0.24-0.529-0.54c0-0.31,0.229-0.549,0.549-0.549
				C62.51,7.181,62.72,7.421,62.72,7.73z M61.74,13.927V9.09h0.879v4.837H61.74z"/>
			<path fill="#FFFFFF" d="M64.046,6.831h0.879v7.096h-0.879V6.831z"/>
			<path fill="#FFFFFF" d="M69.061,13.927l-0.069-0.61h-0.03c-0.27,0.38-0.789,0.72-1.479,0.72c-0.979,0-1.479-0.689-1.479-1.389
				c0-1.169,1.039-1.809,2.908-1.799v-0.1c0-0.4-0.11-1.12-1.1-1.12c-0.449,0-0.919,0.14-1.259,0.36l-0.2-0.58
				c0.399-0.26,0.979-0.43,1.589-0.43c1.479,0,1.839,1.009,1.839,1.979v1.809c0,0.419,0.021,0.83,0.08,1.159H69.061z M68.931,11.458
				c-0.959-0.02-2.049,0.15-2.049,1.089c0,0.57,0.38,0.84,0.83,0.84c0.63,0,1.029-0.4,1.169-0.81c0.03-0.09,0.05-0.19,0.05-0.28
				V11.458z"/>
			<path fill="#FFFFFF" d="M71.14,13.927c0.02-0.33,0.04-0.819,0.04-1.25V6.831h0.869v3.039h0.021c0.31-0.54,0.869-0.89,1.648-0.89
				c1.199,0,2.049,1,2.039,2.469c0,1.729-1.089,2.588-2.169,2.588c-0.699,0-1.259-0.27-1.619-0.909H71.94l-0.04,0.799H71.14z
				 M72.049,11.988c0,0.11,0.021,0.22,0.04,0.32c0.17,0.61,0.68,1.029,1.319,1.029c0.92,0,1.469-0.75,1.469-1.859
				c0-0.969-0.499-1.799-1.438-1.799c-0.6,0-1.159,0.41-1.34,1.079c-0.02,0.1-0.05,0.22-0.05,0.36V11.988z"/>
			<path fill="#FFFFFF" d="M76.919,6.831h0.88v7.096h-0.88V6.831z"/>
			<path fill="#FFFFFF" d="M79.794,11.668c0.02,1.189,0.779,1.679,1.659,1.679c0.63,0,1.01-0.11,1.339-0.25l0.15,0.63
				c-0.31,0.14-0.84,0.3-1.609,0.3c-1.489,0-2.379-0.979-2.379-2.439c0-1.459,0.859-2.608,2.269-2.608
				c1.58,0,1.999,1.389,1.999,2.279c0,0.18-0.02,0.32-0.029,0.41H79.794z M82.372,11.039c0.011-0.56-0.229-1.43-1.219-1.43
				c-0.89,0-1.279,0.82-1.35,1.43H82.372z"/>
			<path fill="#FFFFFF" d="M90.811,11.469c0,1.789-1.239,2.568-2.408,2.568c-1.31,0-2.319-0.959-2.319-2.489
				c0-1.619,1.06-2.568,2.398-2.568C89.872,8.98,90.811,9.989,90.811,11.469z M86.973,11.518c0,1.06,0.609,1.859,1.47,1.859
				c0.839,0,1.469-0.79,1.469-1.879c0-0.819-0.41-1.859-1.449-1.859S86.973,10.599,86.973,11.518z"/>
			<path fill="#FFFFFF" d="M91.947,10.399c0-0.5-0.011-0.91-0.04-1.31h0.779l0.05,0.8h0.021c0.239-0.46,0.799-0.91,1.599-0.91
				c0.67,0,1.709,0.4,1.709,2.059v2.888h-0.879v-2.789c0-0.779-0.29-1.429-1.12-1.429c-0.579,0-1.029,0.41-1.179,0.899
				c-0.04,0.11-0.061,0.26-0.061,0.41v2.908h-0.879V10.399z"/>
			<path fill="#FFFFFF" d="M48.944,17.219c0,0.814-0.594,1.452-1.54,1.452c-0.902,0-1.497-0.638-1.497-1.452
				c0-0.836,0.616-1.474,1.519-1.474C48.35,15.745,48.922,16.383,48.944,17.219z M46.062,30.927V20.212h2.729v10.715H46.062z"/>
			<path fill="#FFFFFF" d="M54.588,18.363h-4.225v-2.266h11.2v2.266h-4.269v12.564h-2.706V18.363z"/>
			<path fill="#FFFFFF" d="M71.077,27.715c0,1.276,0.044,2.332,0.089,3.212h-2.377l-0.132-1.628h-0.044
				c-0.462,0.771-1.519,1.871-3.433,1.871c-1.958,0-3.741-1.167-3.741-4.665v-6.292h2.707v5.831c0,1.782,0.572,2.926,2.002,2.926
				c1.078,0,1.782-0.77,2.068-1.452c0.088-0.242,0.154-0.528,0.154-0.836v-6.469h2.706V27.715z"/>
			<path fill="#FFFFFF" d="M73.791,23.402c0-1.232-0.022-2.267-0.088-3.19h2.376l0.132,1.606h0.066
				c0.462-0.836,1.628-1.848,3.41-1.848c1.87,0,3.807,1.21,3.807,4.599v6.359h-2.706v-6.051c0-1.541-0.572-2.707-2.047-2.707
				c-1.078,0-1.826,0.77-2.112,1.584c-0.088,0.242-0.109,0.572-0.109,0.88v6.293h-2.729V23.402z"/>
			<path fill="#FFFFFF" d="M88.106,26.328c0.065,1.936,1.584,2.772,3.3,2.772c1.255,0,2.156-0.176,2.971-0.484l0.396,1.871
				c-0.925,0.374-2.2,0.66-3.741,0.66c-3.477,0-5.522-2.134-5.522-5.413c0-2.97,1.805-5.765,5.236-5.765
				c3.477,0,4.621,2.86,4.621,5.215c0,0.506-0.044,0.902-0.088,1.144H88.106z M92.814,24.436c0.022-0.99-0.418-2.619-2.222-2.619
				c-1.673,0-2.377,1.518-2.486,2.619H92.814z"/>
			<path fill="#FFFFFF" d="M97.253,28.441c0.616,0.374,1.782,0.77,2.751,0.77c1.188,0,1.716-0.484,1.716-1.188
				c0-0.726-0.439-1.1-1.76-1.562c-2.091-0.726-2.971-1.87-2.949-3.125c0-1.892,1.562-3.366,4.049-3.366
				c1.188,0,2.223,0.308,2.839,0.638l-0.528,1.914c-0.462-0.264-1.32-0.616-2.267-0.616c-0.968,0-1.496,0.462-1.496,1.123
				c0,0.682,0.506,1.012,1.87,1.496c1.937,0.704,2.839,1.694,2.86,3.278c0,1.937-1.518,3.345-4.356,3.345
				c-1.298,0-2.464-0.308-3.256-0.748L97.253,28.441z"/>
		</g>
	</g>
	<g id="icon_2_">
		<g>
			<path fill-rule="evenodd" clip-rule="evenodd" fill="#FFFFFF" d="M21.938,6.771c-2.213,0.176-5.355,2.426-4.926,5.766
				C19.927,12.643,22.367,9.396,21.938,6.771z M24.366,19.732c0-3.258,2.832-4.758,2.832-4.758s-1.856-2.742-4.76-2.742
				c-2.154,0-3.296,1.23-4.748,1.23c-1.725,0-2.618-1.23-4.76-1.23c-2.439,0-6.33,2.145-6.33,7.5c0,5.156,3.844,11.496,6.818,11.496
				c1.559,0,2.249-0.996,4.296-0.996c2.356,0,2.475,0.996,4.248,0.996c3.153,0,5.961-6.504,5.961-6.504S24.366,23.6,24.366,19.732z"
				/>
		</g>
	</g>
</g>
</svg>