<!-- Generator: Adobe Illustrator 18.1.1, SVG Export Plug-In  -->
<svg version="1.1"
	 xmlns="http://www.w3.org/2000/svg" xmlns:xlink="http://www.w3.org/1999/xlink" xmlns:a="http://ns.adobe.com/AdobeSVGViewerExtensions/3.0/"
	 x="0px" y="0px" width="70.193px" height="26.24px" viewBox="0 0 70.193 26.24" enable-background="new 0 0 70.193 26.24"
	 xml:space="preserve">
<defs>
</defs>
<g>
	<path d="M3.399,20.58h-1.45V10.186h1.45v1.629c0.714-1.344,1.832-2.016,3.354-2.016c1.555,0,2.629,0.684,3.224,2.051
		c0.833-1.367,2.058-2.051,3.676-2.051c1.15,0,2.042,0.348,2.677,1.043c0.618,0.664,0.928,1.566,0.928,2.707v7.031h-1.45v-6.457
		c0-2.047-0.846-3.07-2.537-3.07c-1.953,0-2.93,1.352-2.93,4.055v5.473H8.89v-6.457c0-2.047-0.83-3.07-2.489-3.07
		c-2.001,0-3.002,1.352-3.002,4.055V20.58z"/>
	<path d="M25.04,10.186v5.191c0,1.367,0.159,2.363,0.477,2.988c0.452,0.883,1.294,1.324,2.524,1.324
		c1.223,0,2.064-0.445,2.525-1.336c0.333-0.633,0.5-1.625,0.5-2.977v-5.191h1.45v5.93c0,3.281-1.482,4.922-4.445,4.922
		c-2.987,0-4.48-1.641-4.48-4.922v-5.93H25.04z"/>
	<path d="M37.659,18.729l1.391-0.785c0.459,1.164,1.327,1.746,2.603,1.746c0.579,0,1.05-0.137,1.415-0.41
		c0.404-0.305,0.606-0.734,0.606-1.289c0-0.797-0.717-1.473-2.151-2.027c-0.087-0.039-0.207-0.086-0.357-0.141
		c-0.935-0.367-1.612-0.723-2.032-1.066c-0.642-0.523-0.963-1.176-0.963-1.957c0-0.93,0.337-1.676,1.01-2.238
		c0.642-0.523,1.442-0.785,2.401-0.785c1.759,0,2.928,0.707,3.506,2.121l-1.343,0.738c-0.341-1.008-1.093-1.512-2.258-1.512
		c-0.483,0-0.888,0.137-1.212,0.41c-0.356,0.289-0.535,0.664-0.535,1.125c0,0.547,0.297,0.996,0.892,1.348
		c0.261,0.156,0.8,0.371,1.616,0.645c1.006,0.344,1.715,0.711,2.127,1.102c0.539,0.508,0.808,1.223,0.808,2.145
		c0,1.031-0.388,1.828-1.165,2.391c-0.689,0.5-1.573,0.75-2.65,0.75C39.489,21.037,38.253,20.268,37.659,18.729z"/>
	<path d="M50.303,6.131c0-0.305,0.111-0.564,0.333-0.779c0.222-0.215,0.487-0.322,0.796-0.322c0.309,0,0.577,0.107,0.802,0.322
		c0.226,0.215,0.339,0.475,0.339,0.779c0,0.32-0.109,0.584-0.327,0.791c-0.218,0.207-0.489,0.311-0.814,0.311
		c-0.317,0-0.584-0.105-0.802-0.316C50.412,6.705,50.303,6.443,50.303,6.131z M50.671,20.58V10.186h1.509V20.58H50.671z"/>
	<path d="M66.809,12.084c-0.982-0.672-2.076-1.008-3.28-1.008c-1.347,0-2.405,0.43-3.173,1.289c-0.745,0.82-1.117,1.902-1.117,3.246
		c0,1.234,0.402,2.242,1.207,3.023c0.804,0.781,1.832,1.172,3.084,1.172c1.172,0,2.321-0.391,3.447-1.172v1.582
		c-1.03,0.578-2.27,0.867-3.72,0.867c-1.632,0-2.958-0.523-3.976-1.57s-1.527-2.379-1.527-3.996c0-1.703,0.535-3.082,1.604-4.137
		c1.07-1.055,2.468-1.582,4.196-1.582c1.283,0,2.377,0.234,3.28,0.703L66.809,12.084z"/>
</g>
</svg>