<!-- Generator: Adobe Illustrator 18.1.1, SVG Export Plug-In  -->
<svg version="1.1"
	 xmlns="http://www.w3.org/2000/svg" xmlns:xlink="http://www.w3.org/1999/xlink" xmlns:a="http://ns.adobe.com/AdobeSVGViewerExtensions/3.0/"
	 x="0px" y="0px" width="64.574px" height="26.24px" viewBox="0 0 64.574 26.24" enable-background="new 0 0 64.574 26.24"
	 xml:space="preserve">
<defs>
</defs>
<g>
	<path d="M0.368,10.186h1.605l3.234,7.869l3.216-7.869h1.631L5.206,21.248L0.368,10.186z"/>
	<path d="M14.498,6.131c0-0.305,0.111-0.564,0.333-0.779c0.222-0.215,0.487-0.322,0.796-0.322c0.309,0,0.577,0.107,0.802,0.322
		c0.226,0.215,0.339,0.475,0.339,0.779c0,0.32-0.109,0.584-0.327,0.791c-0.218,0.207-0.489,0.311-0.814,0.311
		c-0.317,0-0.584-0.105-0.802-0.316C14.606,6.705,14.498,6.443,14.498,6.131z M14.866,20.58V10.186h1.509V20.58H14.866z"/>
	<path d="M30.623,20.58v-1.898c-0.705,1.57-1.929,2.355-3.672,2.355c-1.593,0-2.845-0.551-3.756-1.652
		c-0.855-1.023-1.284-2.336-1.284-3.938c0-1.562,0.412-2.871,1.236-3.926c0.903-1.148,2.123-1.723,3.661-1.723
		c1.822,0,3.094,0.762,3.815,2.285V2.416h1.486V20.58H30.623z M23.528,15.494c0,1.25,0.269,2.238,0.807,2.965
		c0.609,0.82,1.522,1.23,2.741,1.23c1.21,0,2.128-0.465,2.753-1.395c0.53-0.789,0.795-1.812,0.795-3.07
		c0-1.195-0.277-2.156-0.831-2.883c-0.625-0.812-1.522-1.219-2.693-1.219c-1.203,0-2.12,0.449-2.752,1.348
		C23.8,13.244,23.528,14.252,23.528,15.494z"/>
	<path d="M47.462,15.424h-8.379c0.04,1.227,0.333,2.223,0.88,2.988c0.634,0.883,1.541,1.324,2.722,1.324
		c1.561,0,2.729-0.832,3.506-2.496l1.343,0.727c-1.046,2.047-2.663,3.07-4.849,3.07c-1.601,0-2.876-0.535-3.827-1.605
		c-0.903-1.023-1.355-2.336-1.355-3.938c0-1.625,0.436-2.961,1.307-4.008c0.943-1.125,2.219-1.688,3.827-1.688
		c1.529,0,2.729,0.516,3.601,1.547c0.816,0.969,1.225,2.223,1.225,3.762V15.424z M45.727,14.193c-0.151-2-1.244-3-3.28-3
		c-0.903,0-1.65,0.275-2.24,0.826c-0.591,0.551-0.933,1.275-1.028,2.174H45.727z"/>
	<path d="M57.729,21.037c-1.529,0-2.876-0.566-4.041-1.699c-1.085-1.055-1.628-2.367-1.628-3.938c0-1.555,0.553-2.877,1.658-3.967
		c1.105-1.09,2.442-1.635,4.011-1.635c1.601,0,2.963,0.547,4.088,1.641s1.688,2.414,1.688,3.961c0,1.539-0.555,2.852-1.664,3.938
		C60.684,20.471,59.313,21.037,57.729,21.037z M57.776,19.689c1.188,0,2.183-0.422,2.983-1.266c0.776-0.82,1.165-1.82,1.165-3
		c0-1.188-0.392-2.197-1.176-3.029c-0.785-0.832-1.775-1.248-2.971-1.248c-1.197,0-2.185,0.416-2.965,1.248
		c-0.781,0.832-1.171,1.842-1.171,3.029c0,1.18,0.388,2.18,1.165,3C55.597,19.268,56.587,19.689,57.776,19.689z"/>
</g>
</svg>