<!-- Generator: Adobe Illustrator 19.0.0, SVG Export Plug-In  -->
<svg version="1.1"
	 xmlns="http://www.w3.org/2000/svg" xmlns:xlink="http://www.w3.org/1999/xlink" xmlns:a="http://ns.adobe.com/AdobeSVGViewerExtensions/3.0/"
	 x="0px" y="0px" width="639.987px" height="51.036px" viewBox="0 0 639.987 51.036"
	 style="enable-background:new 0 0 639.987 51.036;" xml:space="preserve">
<style type="text/css">
	.st0{fill:#FFFFFF;}
</style>
<defs>
</defs>
<g id="XMLID_43_">
	<path id="XMLID_69_" class="st0" d="M0,41.272l3.674-1.966c1.439,4.877,4.651,7.315,9.636,7.315c3.05,0,5.414-0.902,7.09-2.707
		c1.611-1.761,2.417-4.178,2.417-7.251c0-2.707-0.892-4.952-2.675-6.735c-1.139-1.139-3.234-2.524-6.284-4.157
		c-3.889-2.062-6.574-3.792-8.057-5.188c-2.514-2.341-3.771-5.124-3.771-8.347c0-3.459,1.181-6.241,3.545-8.347
		c2.256-1.998,5.145-2.997,8.669-2.997c4.77,0,8.25,1.998,10.441,5.994l-3.313,1.998c-1.416-2.771-3.872-4.157-7.367-4.157
		c-2.316,0-4.16,0.682-5.533,2.046C7.1,8.138,6.413,9.98,6.413,12.3c0,3.309,2.724,6.392,8.172,9.249l2.252,1.192
		c3.54,1.955,5.996,3.76,7.368,5.414c1.802,2.191,2.703,5.027,2.703,8.508c0,4.254-1.236,7.617-3.706,10.087
		c-2.471,2.47-5.833,3.706-10.087,3.706C6.864,50.457,2.492,47.395,0,41.272z"/>
	<path id="XMLID_67_" class="st0" d="M55.269,2.02h4.222v30.809c0,9.196,4.318,13.793,12.955,13.793
		c8.572,0,12.858-4.597,12.858-13.793V2.02h4.286v29.423c0,12.676-5.715,19.014-17.145,19.014c-11.452,0-17.177-6.337-17.177-19.014
		V2.02z"/>
	<path id="XMLID_65_" class="st0" d="M158.812,13.879c-3.889-6.015-9.389-9.023-16.5-9.023c-6.038,0-10.882,2.062-14.534,6.188
		c-3.502,3.953-5.253,8.991-5.253,15.114c0,5.822,1.912,10.688,5.736,14.599c3.738,3.824,8.422,5.736,14.051,5.736
		c5.199,0,9.453-1.503,12.762-4.512c3.416-3.094,5.167-7.219,5.253-12.375h-16.274V25.9h20.979v0.516
		c0,7.412-1.987,13.245-5.962,17.499c-4.082,4.362-9.797,6.542-17.145,6.542c-7.283,0-13.127-2.32-17.531-6.961
		c-4.318-4.533-6.478-10.462-6.478-17.789c0-7.046,2.17-12.879,6.51-17.499c4.555-4.834,10.323-7.251,17.306-7.251
		c9.711,0,16.446,3.405,20.206,10.216L158.812,13.879z"/>
	<path id="XMLID_62_" class="st0" d="M186.624,49.2l20.722-49.049L227.198,49.2h-4.693l-6.018-15.984h-19.264l-6.25,15.984H186.624z
		 M198.687,29.509h16.404l-8.056-20.506L198.687,29.509z"/>
	<path id="XMLID_59_" class="st0" d="M280.127,49.2h-5.202L258.36,26.706h-2.578V49.2h-4.286V2.02h8.669
		c10.205,0,15.308,4.289,15.308,12.866c0,3.741-1.104,6.648-3.309,8.723c-2.206,2.075-5.203,3.112-8.99,3.112L280.127,49.2z
		 M255.782,5.726v17.467h4.318c3.609,0,6.198-0.505,7.767-1.518c1.977-1.27,2.965-3.584,2.965-6.941
		c0-3.444-0.956-5.865-2.868-7.265c-1.611-1.162-4.232-1.743-7.863-1.743H255.782z"/>
	<path id="XMLID_56_" class="st0" d="M305.347,49.2V2.02h7.348c5.199,0,8.852,0.14,10.957,0.419
		c4.211,0.58,7.573,1.869,10.087,3.867c5.371,4.275,8.057,10.721,8.057,19.336c0,8.723-2.664,15.125-7.992,19.207
		c-2.514,1.934-5.64,3.202-9.378,3.803c-2.213,0.366-5.64,0.548-10.28,0.548H305.347z M309.633,45.494h6.026
		c3.846,0,6.574-0.129,8.186-0.387c3.137-0.472,5.597-1.547,7.38-3.223c3.996-3.717,5.994-9.152,5.994-16.307
		c0-7.283-2.02-12.718-6.059-16.307c-1.955-1.74-4.63-2.857-8.024-3.352c-1.654-0.236-4.608-0.354-8.862-0.354h-4.641V45.494z"/>
	<path id="XMLID_53_" class="st0" d="M398.979,49.2h-5.202l-16.564-22.494h-2.578V49.2h-4.286V2.02h8.669
		c10.205,0,15.308,4.289,15.308,12.866c0,3.741-1.104,6.648-3.309,8.723c-2.206,2.075-5.203,3.112-8.99,3.112L398.979,49.2z
		 M374.634,5.726v17.467h4.318c3.609,0,6.198-0.505,7.767-1.518c1.977-1.27,2.965-3.584,2.965-6.941
		c0-3.444-0.956-5.865-2.868-7.265c-1.611-1.162-4.232-1.743-7.863-1.743H374.634z"/>
	<path id="XMLID_51_" class="st0" d="M424.198,49.2V2.02h23.364v4.028h-19.078v14.76h19.078v4.028h-19.078v20.335h19.078V49.2
		H424.198z"/>
	<path id="XMLID_48_" class="st0" d="M470.637,49.2l20.722-49.049L511.211,49.2h-4.693L500.5,33.215h-19.265l-6.25,15.984H470.637z
		 M482.699,29.509h16.404l-8.056-20.506L482.699,29.509z"/>
	<path id="XMLID_46_" class="st0" d="M557.067,51.036l-16.571-37.885L536.932,49.2h-4.42l6.409-49.139l18.067,41.948L575.757,0
		l6.061,49.2h-4.416l-3.5-36.055L557.067,51.036z"/>
	<path id="XMLID_44_" class="st0" d="M604.647,49.2l28.026-43.28h-23.946V2.02h31.26l-27.908,43.216h25.072V49.2H604.647z"/>
</g>
</svg>