<!-- Generator: Adobe Illustrator 18.1.1, SVG Export Plug-In  -->
<svg version="1.1"
	 xmlns="http://www.w3.org/2000/svg" xmlns:xlink="http://www.w3.org/1999/xlink" xmlns:a="http://ns.adobe.com/AdobeSVGViewerExtensions/3.0/"
	 x="0px" y="0px" width="57.148px" height="26.24px" viewBox="0 0 57.148 26.24" enable-background="new 0 0 57.148 26.24"
	 xml:space="preserve">
<defs>
</defs>
<g>
	<path d="M1.949,20.58V10.186H3.34v1.605c0.855-1.328,2.096-1.992,3.72-1.992c1.196,0,2.127,0.326,2.793,0.979
		c0.666,0.652,0.999,1.568,0.999,2.748v7.055H9.365v-6.41c0-2.047-0.901-3.07-2.703-3.07c-2.175,0-3.263,1.352-3.263,4.055v5.426
		H1.949z"/>
	<path d="M26.122,15.424h-8.379c0.04,1.227,0.333,2.223,0.88,2.988c0.634,0.883,1.541,1.324,2.722,1.324
		c1.561,0,2.729-0.832,3.506-2.496l1.343,0.727c-1.046,2.047-2.663,3.07-4.849,3.07c-1.601,0-2.876-0.535-3.827-1.605
		c-0.903-1.023-1.355-2.336-1.355-3.938c0-1.625,0.436-2.961,1.307-4.008c0.943-1.125,2.219-1.688,3.827-1.688
		c1.529,0,2.729,0.516,3.601,1.547c0.816,0.969,1.225,2.223,1.225,3.762V15.424z M24.386,14.193c-0.151-2-1.244-3-3.28-3
		c-0.903,0-1.65,0.275-2.24,0.826c-0.591,0.551-0.933,1.275-1.028,2.174H24.386z"/>
	<path d="M34.157,21.258l-4.211-11.073h1.536l2.745,7.484l3.314-8.035l3.303,8.039l2.754-7.488h1.537l-4.22,11.063l-3.345-8.265
		L34.157,21.258z"/>
	<path d="M48.615,18.729l1.391-0.785c0.459,1.164,1.327,1.746,2.603,1.746c0.579,0,1.05-0.137,1.415-0.41
		c0.404-0.305,0.606-0.734,0.606-1.289c0-0.797-0.717-1.473-2.151-2.027c-0.087-0.039-0.207-0.086-0.357-0.141
		c-0.935-0.367-1.612-0.723-2.032-1.066c-0.642-0.523-0.963-1.176-0.963-1.957c0-0.93,0.337-1.676,1.01-2.238
		c0.642-0.523,1.442-0.785,2.401-0.785c1.759,0,2.928,0.707,3.506,2.121L54.7,12.635c-0.341-1.008-1.093-1.512-2.258-1.512
		c-0.483,0-0.888,0.137-1.212,0.41c-0.356,0.289-0.535,0.664-0.535,1.125c0,0.547,0.297,0.996,0.892,1.348
		c0.261,0.156,0.8,0.371,1.616,0.645c1.006,0.344,1.715,0.711,2.127,1.102c0.539,0.508,0.808,1.223,0.808,2.145
		c0,1.031-0.388,1.828-1.165,2.391c-0.689,0.5-1.573,0.75-2.65,0.75C50.445,21.037,49.209,20.268,48.615,18.729z"/>
</g>
</svg>