<!-- Generator: Adobe Illustrator 18.1.1, SVG Export Plug-In  -->
<svg version="1.1"
	 xmlns="http://www.w3.org/2000/svg" xmlns:xlink="http://www.w3.org/1999/xlink" xmlns:a="http://ns.adobe.com/AdobeSVGViewerExtensions/3.0/"
	 x="0px" y="0px" width="120.923px" height="129.159px" viewBox="0 0 120.923 129.159" enable-background="new 0 0 120.923 129.159"
	 xml:space="preserve">
<defs>
</defs>
<linearGradient id="SVGID_1_" gradientUnits="userSpaceOnUse" x1="102.1625" y1="77.9053" x2="85.8436" y2="45.8777">
	<stop  offset="0" style="stop-color:#FCD08F"/>
	<stop  offset="1" style="stop-color:#F79673"/>
</linearGradient>
<path fill="url(#SVGID_1_)" d="M89.177,84.522c15.287-8.367,26.962-14.758,28.024-15.34c3.168-1.734,6.487-6.159,0-9.696
	c-2.085-1.139-13.446-7.334-28.042-15.297L69.083,64.417L89.177,84.522z"/>
<linearGradient id="SVGID_2_" gradientUnits="userSpaceOnUse" x1="78.4339" y1="73.1367" x2="16.2988" y2="139.7684">
	<stop  offset="0" style="stop-color:#E74047"/>
	<stop  offset="1" style="stop-color:#7F50A0"/>
</linearGradient>
<path fill="url(#SVGID_2_)" d="M69.083,64.417L4.875,129.116c1.45,0.184,3.194-0.2,5.2-1.298
	c4.153-2.273,48.753-26.686,79.102-43.298L69.083,64.417z"/>
<linearGradient id="SVGID_3_" gradientUnits="userSpaceOnUse" x1="78.7644" y1="55.0686" x2="15.6434" y2="-10.2951">
	<stop  offset="0" style="stop-color:#E6FFAB"/>
	<stop  offset="1" style="stop-color:#47BEBC"/>
</linearGradient>
<path fill="url(#SVGID_3_)" d="M69.083,64.417l20.075-20.229c0,0-74.616-40.709-79.084-43.145C8.357,0.106,6.485-0.221,4.829,0.149
	L69.083,64.417z"/>
<linearGradient id="SVGID_4_" gradientUnits="userSpaceOnUse" x1="34.5417" y1="129.1155" x2="34.5417" y2="0.1487">
	<stop  offset="0" style="stop-color:#84E9DB"/>
	<stop  offset="1" style="stop-color:#197491"/>
</linearGradient>
<path fill="url(#SVGID_4_)" d="M69.083,64.417L4.829,0.149C2.174,0.741,0,3.037,0,7.655c0,7.5,0,107.453,0,113.75
	c0,4.348,1.711,7.406,4.875,7.711L69.083,64.417z"/>
</svg>