<!-- Generator: Adobe Illustrator 18.1.1, SVG Export Plug-In  -->
<svg version="1.1"
	 xmlns="http://www.w3.org/2000/svg" xmlns:xlink="http://www.w3.org/1999/xlink" xmlns:a="http://ns.adobe.com/AdobeSVGViewerExtensions/3.0/"
	 x="0px" y="0px" width="36.797px" height="33.117px" viewBox="0 0 36.797 33.117" enable-background="new 0 0 36.797 33.117"
	 xml:space="preserve">
<defs>
</defs>
<path fill="#231F20" d="M33.282,28.336c-0.517,0.469-1.032,0.821-1.547,1.055c-1.969,1.22-4.125,2.145-6.469,2.777
	c-2.345,0.633-4.641,0.949-6.891,0.949c-3.516,0-6.82-0.644-9.914-1.934c-3.094-1.289-5.836-3.059-8.227-5.309
	c-0.235-0.187-0.293-0.362-0.176-0.527c0.116-0.164,0.292-0.176,0.527-0.035c2.625,1.547,5.484,2.767,8.578,3.656
	c3.094,0.891,6.304,1.336,9.633,1.336c2.109,0,4.254-0.199,6.434-0.598c2.18-0.397,4.347-1.042,6.504-1.934
	c0.141-0.093,0.292-0.164,0.457-0.211c0.164-0.046,0.316-0.116,0.457-0.211c0.375-0.141,0.656-0.07,0.844,0.211
	C33.679,27.844,33.609,28.102,33.282,28.336z M28.782,20.32c-0.376,0.376-0.868,0.821-1.477,1.336
	c-0.61,0.517-1.125,0.961-1.547,1.336c-0.281,0.188-0.61,0.211-0.984,0.07c-0.657-0.562-1.102-1.02-1.336-1.371
	c-0.235-0.352-0.54-0.784-0.914-1.301c-1.172,1.313-2.391,2.18-3.656,2.602c-0.938,0.235-1.875,0.352-2.812,0.352
	c-1.642,0-3.036-0.527-4.184-1.582c-1.149-1.055-1.723-2.637-1.723-4.746c0-1.64,0.387-3.023,1.16-4.148s1.793-1.969,3.059-2.531
	c0.656-0.327,1.371-0.573,2.145-0.738c0.773-0.164,1.558-0.292,2.355-0.387c0.515-0.093,1.02-0.151,1.512-0.176
	c0.492-0.023,0.949-0.058,1.371-0.105V8.367c0-0.515-0.012-1.03-0.035-1.547c-0.024-0.515-0.153-0.984-0.387-1.406
	c-0.235-0.375-0.562-0.644-0.984-0.809c-0.422-0.164-0.844-0.246-1.266-0.246h-0.211c-0.703,0.095-1.325,0.329-1.863,0.703
	c-0.54,0.376-0.903,0.961-1.09,1.758c-0.095,0.469-0.329,0.728-0.703,0.773l-3.867-0.492c-0.095-0.046-0.223-0.128-0.387-0.246
	c-0.165-0.116-0.2-0.316-0.105-0.598c0.187-1.125,0.55-2.074,1.09-2.848c0.538-0.773,1.171-1.406,1.898-1.898
	c0.726-0.492,1.522-0.854,2.391-1.09C17.098,0.188,17.977,0.047,18.868,0h0.773c0.937,0,1.969,0.153,3.094,0.457
	c1.125,0.306,2.085,0.833,2.883,1.582c0.937,0.938,1.452,2.004,1.547,3.199c0.093,1.195,0.141,2.473,0.141,3.832v6.398
	c0,0.938,0.164,1.677,0.492,2.215c0.327,0.54,0.679,1.067,1.055,1.582c0.093,0.188,0.151,0.376,0.176,0.562
	C29.051,20.016,28.968,20.18,28.782,20.32z M21.75,13.078v-0.844c-0.517,0-1.02,0.024-1.512,0.07
	c-0.492,0.047-0.949,0.118-1.371,0.211c-0.844,0.235-1.547,0.645-2.109,1.23c-0.562,0.587-0.844,1.441-0.844,2.566
	c0,0.938,0.199,1.677,0.598,2.215c0.397,0.54,0.995,0.809,1.793,0.809c0.093,0,0.187-0.011,0.281-0.035
	c0.093-0.023,0.187-0.035,0.281-0.035c0.937-0.234,1.663-0.867,2.18-1.898c0.375-0.703,0.585-1.394,0.633-2.074
	C21.726,14.614,21.75,13.876,21.75,13.078z M36.657,24.961c-0.188-0.234-0.786-0.397-1.793-0.492
	c-1.009-0.093-2.051,0.024-3.129,0.352c-0.61,0.235-1.149,0.517-1.617,0.844c-0.188,0.141-0.271,0.271-0.246,0.387
	c0.023,0.118,0.128,0.176,0.316,0.176c0.234-0.046,0.48-0.081,0.738-0.105c0.257-0.023,0.527-0.058,0.809-0.105
	c0.656-0.046,1.301-0.058,1.934-0.035c0.633,0.024,1.065,0.153,1.301,0.387c0.141,0.141,0.176,0.411,0.105,0.809
	c-0.07,0.399-0.176,0.844-0.316,1.336s-0.293,0.974-0.457,1.441c-0.165,0.469-0.316,0.868-0.457,1.195
	c-0.095,0.188-0.07,0.306,0.07,0.352c0.141,0.047,0.304,0,0.492-0.141c0.796-0.703,1.382-1.617,1.758-2.742
	c0.375-1.125,0.585-2.039,0.633-2.742v-0.211C36.797,25.383,36.75,25.149,36.657,24.961z"/>
</svg>