<!-- Generator: Adobe Illustrator 18.1.1, SVG Export Plug-In  -->
<svg version="1.1"
	 xmlns="http://www.w3.org/2000/svg" xmlns:xlink="http://www.w3.org/1999/xlink" xmlns:a="http://ns.adobe.com/AdobeSVGViewerExtensions/3.0/"
	 x="0px" y="0px" width="47.556px" height="55.327px" viewBox="0 0 47.556 55.327" enable-background="new 0 0 47.556 55.327"
	 xml:space="preserve">
<defs>
</defs>
<g>
	<path fill-rule="evenodd" clip-rule="evenodd" d="M47.556,40.59c-1.299,2.881-1.922,4.166-3.595,6.711
		c-2.334,3.555-5.625,7.978-9.703,8.018c-3.625,0.033-4.555-2.359-9.473-2.332c-4.917,0.027-5.944,2.373-9.568,2.34
		c-4.078-0.037-7.197-4.033-9.532-7.586c-6.529-9.938-7.212-21.6-3.185-27.799c2.862-4.406,7.376-6.984,11.622-6.984
		c4.323,0,7.04,2.369,10.613,2.369c3.467,0,5.579-2.373,10.576-2.373c3.777,0,7.779,2.057,10.631,5.611
		C36.597,23.684,38.116,37.023,47.556,40.59L47.556,40.59z"/>
	<path fill-rule="evenodd" clip-rule="evenodd" d="M31.519,8.982c1.815-2.33,3.194-5.619,2.694-8.982
		c-2.966,0.205-6.435,2.092-8.46,4.551c-1.838,2.232-3.356,5.543-2.765,8.762C26.225,13.412,29.576,11.478,31.519,8.982
		L31.519,8.982z"/>
</g>
</svg>