<!-- Generator: Adobe Illustrator 18.1.1, SVG Export Plug-In  -->
<svg version="1.1"
	 xmlns="http://www.w3.org/2000/svg" xmlns:xlink="http://www.w3.org/1999/xlink" xmlns:a="http://ns.adobe.com/AdobeSVGViewerExtensions/3.0/"
	 x="0px" y="0px" width="122px" height="40px" viewBox="0 0 122 40" enable-background="new 0 0 122 40" xml:space="preserve">
<defs>
</defs>
<g id="google.png_x2B__x40_2x_copy">
	<g id="background_1_">
		<g>
			<path fill-rule="evenodd" clip-rule="evenodd" fill="#050708" d="M118.246,0H3.754C1.681,0,0,1.791,0,4v32
				c0,2.209,1.681,4,3.754,4h114.492c2.073,0,3.754-1.791,3.754-4V4C122,1.791,120.319,0,118.246,0z"/>
		</g>
	</g>
	<g id="get_it_on_google_play_copy">
		<g id="google_play_2_">
			<g>
				<path fill-rule="evenodd" clip-rule="evenodd" fill="#FFFFFF" d="M98.73,32h0.997V21H98.73V32z M104.406,23.949
					c-3.024,0-3.109,2.22-3.109,2.22l0.958-0.003c0,0-0.047-1.516,2.127-1.516c2.174,0,2.326,1.349,2.326,1.349v1h-1.995
					c-2.536,0-3.745,1.424-3.745,2.791s0.76,2.337,2.618,2.337S106.708,31,106.708,31c0,0.537,0,1,0,1h0.997c0,0,0-0.381,0-1v-5
					C107.706,26,107.429,23.949,104.406,23.949z M106.708,29c0,1.577-2.081,2.368-3.039,2.368s-1.753-0.456-1.753-1.507
					S103.194,28,104.714,28h1.995V29z M114.687,24l-2.442,6.788L109.7,24h-0.997l3.012,8.003l-0.561,1.34
					c0,0-0.772,1.028-1.216,1.028c-0.444,0-0.67-0.125-0.67-0.125l-0.25,0.701c0,0,0.452,0.265,0.904,0.265
					c1.005,0,2.426-0.394,2.769-1.212c0.343-0.818,2.992-10,2.992-10H114.687z M94.082,23.949c-1.66,0-2.302,1.013-2.333,1.051v-1
					h-0.997v11h0.997v-4c0.031,0.051,0.428,1.128,2.356,1.128c1.964,0,3.483-1.262,3.483-4.152S95.765,23.949,94.082,23.949z
					 M93.942,31.403c-1.611,0-2.162-2.353-2.193-2.403v-2c0.031-0.042,0.741-2.302,2.31-2.302c1.426,0,2.618,1.449,2.618,3.341
					S95.578,31.403,93.942,31.403z M44.653,28.771c0.653-0.165,2.385-0.145,2.385-0.145v2.413c0,0-0.767,0.434-1.93,0.434
					c-3.366,0-5.548-2.952-5.548-5.646c0-3.289,2.352-4.681,4.396-4.681c2.044,0,3.196,1.512,3.196,1.512l-0.373,0.611l0.6-0.161
					l1.298-1.223c0,0-1.298-1.319-4.542-1.319c-3.95,0-6.245,3.032-6.245,5.903c0,2.51,1.736,5.679,6.051,5.679
					c2.231,0,4.737-0.82,4.737-0.82s0-0.989,0-1.947c0-0.957,1.188-1.382,1.188-1.382h-3.989L44.653,28.771z M54.167,23.98
					c-2.315,0-4.202,1.68-4.202,4.131c0,1.766,1.424,3.891,3.945,3.891c2.521,0,4.288-1.68,4.288-4.045
					C58.199,25.592,56.483,23.98,54.167,23.98z M54.339,31.489c-1.911,0-2.813-2.948-2.813-4.44c0-1.491,1.012-2.554,2.178-2.554
					c1.664,0,2.813,1.962,2.813,4.252C56.517,29.534,56.25,31.489,54.339,31.489z M63.177,23.984c-2.314,0-4.2,1.679-4.2,4.129
					c0,1.765,1.423,3.889,3.943,3.889c2.52,0,4.286-1.679,4.286-4.043C67.206,25.595,65.492,23.984,63.177,23.984z M63.349,31.489
					c-1.91,0-2.811-2.947-2.811-4.438c0-1.49,1.012-2.553,2.177-2.553c1.663,0,2.812,1.961,2.812,4.249
					C65.526,29.536,65.259,31.489,63.349,31.489z M75.542,24.248c0,0-1.908,0-3.918,0c-2.01,0-3.527,1.55-3.527,3.219
					c0,1.175,0.997,2.579,2.965,2.579c0.204,0,0.341-0.043,0.341-0.043s-0.119,0.26-0.119,0.605c0,0.562,0.485,1.064,0.485,1.064
					s-4.541,0.004-4.541,2.912c0,1.758,1.985,2.418,3.612,2.418c1.627,0,4.413-0.877,4.413-3.116c0-1.068-0.57-1.881-1.397-2.452
					c-0.826-0.57-0.988-0.843-0.988-1.09c0-0.247,0.009-0.447,0.596-1.004c0.588-0.558,1.125-1.141,1.125-2.197
					c0-1.567-1.056-2.265-1.056-2.265l1.005-0.034L75.542,24.248z M74.064,34.478c0,1.648-1.904,1.801-2.453,1.801
					c-0.55,0-2.888-0.217-2.888-2.069c0-1.852,2.696-2.024,3.009-2.024c0.313,0,0.581,0.045,0.581,0.045
					C73.144,32.965,74.064,33.329,74.064,34.478z M71.7,29.536c-1.188,0-2.134-1.775-2.134-2.848c0-1.073,0.537-1.839,1.482-1.839
					c0.946,0,2.07,1.086,2.07,3.065C73.118,28.604,72.888,29.536,71.7,29.536z M77.787,30c0,0-0.015-6.574,0-8
					c0.015-1.426,0.424-1.694,0.997-2l-2.323-0.013L75.793,21h0.997v10c-0.005,0.382-0.997,1-0.997,1h2.992l0.709-0.584
					c0,0-0.178-0.075-0.566-0.075C78.502,31.34,77.787,30.544,77.787,30z M81.002,27.7l1.304-0.068l3.909-1.566
					c0,0-0.413-2.117-2.927-2.117c-2.514,0-3.823,1.979-3.823,3.924c0,1.944,1.154,4.13,4.029,4.13c2.015,0,2.927-1.497,2.927-1.497
					s-0.964,0.568-2.032,0.568C82.966,31.074,81.346,29.737,81.002,27.7z M80.928,26.909c0-1.67,1.165-2.341,1.894-2.341
					c1.464,0,1.73,1.317,1.602,1.549c-0.125,0.224-3.204,1.485-3.423,1.575C80.959,27.44,80.928,27.182,80.928,26.909z"/>
			</g>
		</g>
		<g id="Get_it_on_copy">
			<g>
				<path fill="#FFFFFF" d="M44.432,14.367c-0.389,0.14-1.156,0.37-2.063,0.37c-1.017,0-1.854-0.26-2.512-0.889
					c-0.578-0.56-0.937-1.459-0.937-2.509c0.01-2.009,1.385-3.478,3.638-3.478c0.778,0,1.385,0.17,1.675,0.31l-0.209,0.71
					c-0.359-0.16-0.807-0.29-1.485-0.29c-1.635,0-2.701,1.02-2.701,2.708c0,1.709,1.026,2.719,2.592,2.719
					c0.568,0,0.957-0.08,1.156-0.18v-2.009h-1.365v-0.7h2.213V14.367z"/>
				<path fill="#FFFFFF" d="M46.539,12.408c0.019,1.189,0.777,1.679,1.654,1.679c0.628,0,1.007-0.11,1.336-0.25l0.149,0.63
					c-0.309,0.14-0.837,0.3-1.605,0.3c-1.485,0-2.372-0.979-2.372-2.439c0-1.459,0.857-2.608,2.263-2.608
					c1.575,0,1.993,1.389,1.993,2.279c0,0.18-0.02,0.32-0.03,0.41H46.539z M49.11,11.778c0.01-0.56-0.229-1.43-1.216-1.43
					c-0.887,0-1.276,0.82-1.345,1.43H49.11z"/>
				<path fill="#FFFFFF" d="M51.944,8.44v1.389h1.256v0.67h-1.256v2.608c0,0.6,0.169,0.939,0.658,0.939
					c0.229,0,0.399-0.03,0.508-0.06l0.04,0.66c-0.169,0.07-0.439,0.12-0.778,0.12c-0.409,0-0.738-0.13-0.947-0.37
					c-0.249-0.26-0.339-0.689-0.339-1.259v-2.638h-0.748v-0.67h0.748V8.67L51.944,8.44z"/>
				<path fill="#FFFFFF" d="M56.88,8.47c0.01,0.3-0.209,0.54-0.558,0.54c-0.309,0-0.528-0.24-0.528-0.54
					c0-0.31,0.229-0.549,0.548-0.549C56.67,7.92,56.88,8.16,56.88,8.47z M55.903,14.667V9.829h0.877v4.837H55.903z"/>
				<path fill="#FFFFFF" d="M59.892,8.44v1.389h1.256v0.67h-1.256v2.608c0,0.6,0.169,0.939,0.658,0.939
					c0.229,0,0.399-0.03,0.508-0.06l0.04,0.66c-0.169,0.07-0.439,0.12-0.778,0.12c-0.409,0-0.738-0.13-0.947-0.37
					c-0.249-0.26-0.339-0.689-0.339-1.259v-2.638h-0.747v-0.67h0.747V8.67L59.892,8.44z"/>
				<path fill="#FFFFFF" d="M68.615,12.208c0,1.789-1.236,2.568-2.402,2.568c-1.306,0-2.313-0.959-2.313-2.489
					c0-1.619,1.056-2.568,2.392-2.568C67.678,9.719,68.615,10.729,68.615,12.208z M64.788,12.258c0,1.06,0.608,1.859,1.465,1.859
					c0.838,0,1.465-0.79,1.465-1.879c0-0.819-0.408-1.859-1.445-1.859C65.237,10.379,64.788,11.338,64.788,12.258z"/>
				<path fill="#FFFFFF" d="M69.745,11.139c0-0.5-0.01-0.91-0.04-1.31h0.777l0.051,0.8h0.019c0.24-0.46,0.798-0.91,1.594-0.91
					c0.668,0,1.705,0.4,1.705,2.059v2.888h-0.877v-2.789c0-0.779-0.289-1.429-1.116-1.429c-0.578,0-1.026,0.41-1.176,0.899
					c-0.04,0.11-0.059,0.26-0.059,0.41v2.908h-0.877V11.139z"/>
			</g>
		</g>
	</g>
	<g id="icon_xA0_Image_copy">
		<linearGradient id="SVGID_1_" gradientUnits="userSpaceOnUse" x1="30.5478" y1="23.2279" x2="26.581" y2="15.4426">
			<stop  offset="0" style="stop-color:#FCD08F"/>
			<stop  offset="1" style="stop-color:#F79673"/>
		</linearGradient>
		<path fill="url(#SVGID_1_)" d="M27.394,24.835c3.706-2.034,6.536-3.587,6.794-3.729c0.768-0.422,1.573-1.497,0-2.357
			c-0.506-0.277-3.26-1.783-6.798-3.718l-4.867,4.917L27.394,24.835z"/>
		<linearGradient id="SVGID_2_" gradientUnits="userSpaceOnUse" x1="24.8039" y1="22.0745" x2="9.7197" y2="38.2503">
			<stop  offset="0" style="stop-color:#E74047"/>
			<stop  offset="1" style="stop-color:#7F50A0"/>
		</linearGradient>
		<path fill="url(#SVGID_2_)" d="M22.523,19.948L6.958,35.675c0.351,0.045,0.774-0.049,1.261-0.315
			c1.007-0.553,11.819-6.487,19.176-10.525L22.523,19.948z"/>
		<linearGradient id="SVGID_3_" gradientUnits="userSpaceOnUse" x1="24.884" y1="17.6679" x2="9.5609" y2="1.8004">
			<stop  offset="0" style="stop-color:#E6FFAB"/>
			<stop  offset="1" style="stop-color:#47BEBC"/>
		</linearGradient>
		<path fill="url(#SVGID_3_)" d="M22.523,19.948l4.867-4.917c0,0-18.088-9.896-19.171-10.488c-0.416-0.228-0.87-0.307-1.272-0.217
			L22.523,19.948z"/>
		<linearGradient id="SVGID_4_" gradientUnits="userSpaceOnUse" x1="14.1495" y1="35.6747" x2="14.1495" y2="4.3252">
			<stop  offset="0" style="stop-color:#84E9DB"/>
			<stop  offset="1" style="stop-color:#197491"/>
		</linearGradient>
		<path fill="url(#SVGID_4_)" d="M22.523,19.948L6.946,4.325C6.303,4.469,5.776,5.027,5.776,6.15c0,1.823,0,26.12,0,27.651
			c0,1.057,0.415,1.8,1.182,1.874L22.523,19.948z"/>
	</g>
</g>
</svg>