<!-- Generator: Adobe Illustrator 18.1.1, SVG Export Plug-In  -->
<svg version="1.1"
	 xmlns="http://www.w3.org/2000/svg" xmlns:xlink="http://www.w3.org/1999/xlink" xmlns:a="http://ns.adobe.com/AdobeSVGViewerExtensions/3.0/"
	 x="0px" y="0px" width="699.535px" height="118.778px" viewBox="0 0 699.535 118.778" enable-background="new 0 0 699.535 118.778"
	 xml:space="preserve">
<defs>
</defs>
<g>
	<g>
		<path fill="#010101" d="M152.712,92.219V0.1h11.29v33.486h0.257c4.875-7.056,11.547-10.264,19.373-10.392
			c17.834,0,27.969,14.627,27.969,33.486c0,16.038-6.672,37.463-29.51,37.463c-11.418,0-16.165-6.542-18.475-10.264h-0.256v8.34
			H152.712z M181.58,33.329c-16.294,0-18.09,17.577-18.09,28.483c0,17.834,11.163,22.581,18.346,22.581
			c12.317,0,18.091-11.163,18.091-25.916C199.927,49.881,199.029,33.329,181.58,33.329z"/>
		<path fill="#010101" d="M218.146,45.518c0.513-16.038,11.163-22.324,27.713-22.324c5.388,0,24.89,1.54,24.89,18.732v38.618
			c0,2.822,1.412,3.978,3.721,3.978c1.025,0,2.436-0.257,3.72-0.514v8.212c-1.925,0.513-3.593,1.283-6.158,1.283
			c-10.008,0-11.547-5.133-11.933-10.264c-4.361,4.746-11.162,10.904-24.249,10.904c-12.316,0-21.041-7.825-21.041-19.373
			c0-5.646,1.667-18.731,20.399-21.041l18.604-2.31c2.695-0.256,5.902-1.283,5.902-7.955c0-7.057-5.132-10.906-15.78-10.906
			c-12.83,0-14.626,7.827-15.396,12.959H218.146z M259.459,57.963c-1.796,1.411-4.619,2.437-18.603,4.234
			c-5.518,0.77-14.37,2.437-14.37,10.905c0,7.312,3.721,11.676,12.188,11.676c10.521,0,20.785-6.8,20.785-15.781V57.963z"/>
		<path fill="#010101" d="M338.108,92.219h-11.29V50.906c0-11.675-3.335-17.577-14.37-17.577c-6.415,0-17.706,4.106-17.706,22.325
			v36.565h-11.29V25.119h10.648v9.494h0.256c2.438-3.593,8.725-11.419,20.272-11.419c10.392,0,23.479,4.233,23.479,23.351V92.219z"
			/>
		<path fill="#010101" d="M404.056,92.219h-10.648v-9.237h-0.258c-4.874,9.109-12.572,11.161-19.116,11.161
			c-22.837,0-29.509-21.426-29.509-37.463c0-18.859,10.136-33.486,27.97-33.486c12.187,0,17.32,7.569,20.015,11.419h0.257V0.1h11.29
			V92.219z M374.29,84.393c7.185,0,18.347-4.747,18.347-22.581c0-10.906-1.796-28.483-18.09-28.483
			c-17.449,0-18.348,16.552-18.348,25.147C356.199,73.23,361.974,84.393,374.29,84.393z"/>
		<path fill="#010101" d="M460.381,47.699c-1.411-8.981-6.416-14.37-15.91-14.37c-13.985,0-18.475,13.344-18.475,25.275
			c0,11.546,2.822,25.788,18.347,25.788c7.569,0,14.113-5.646,16.038-15.91h10.904c-1.154,10.649-7.696,25.66-27.328,25.66
			c-18.859,0-30.021-14.241-30.021-33.614c0-20.784,10.008-37.335,32.203-37.335c17.577,0,24.249,12.83,25.147,24.505H460.381z"/>
		<path fill="#010101" d="M475.778,45.518c0.513-16.038,11.161-22.324,27.712-22.324c5.389,0,24.89,1.54,24.89,18.732v38.618
			c0,2.822,1.413,3.978,3.722,3.978c1.026,0,2.438-0.257,3.721-0.514v8.212c-1.925,0.513-3.593,1.283-6.158,1.283
			c-10.008,0-11.548-5.133-11.932-10.264c-4.363,4.746-11.163,10.904-24.249,10.904c-12.317,0-21.041-7.825-21.041-19.373
			c0-5.646,1.668-18.731,20.399-21.041l18.604-2.31c2.694-0.256,5.901-1.283,5.901-7.955c0-7.057-5.132-10.906-15.781-10.906
			c-12.829,0-14.626,7.827-15.395,12.959H475.778z M517.09,57.963c-1.796,1.411-4.618,2.437-18.604,4.234
			c-5.517,0.77-14.369,2.437-14.369,10.905c0,7.312,3.72,11.676,12.188,11.676c10.521,0,20.784-6.8,20.784-15.781V57.963z"/>
		<path fill="#010101" d="M541.084,25.119h10.648v9.494h0.257c2.438-3.593,8.211-11.419,20.272-11.419
			c12.059,0,15.909,7.312,17.834,10.905c5.646-6.287,10.136-10.905,20.527-10.905c7.185,0,20.785,3.72,20.785,22.581v46.444h-11.29
			V48.854c0-9.238-2.823-15.525-12.445-15.525c-9.494,0-15.781,8.981-15.781,17.963v40.927h-11.29V45.775
			c0-5.646-2.182-12.446-10.521-12.446c-6.415,0-17.707,4.106-17.707,22.325v36.565h-11.289V25.119z"/>
		<path fill="#010101" d="M640.645,25.119h10.648v9.494h0.257c2.694-3.849,7.826-11.419,20.015-11.419
			c17.834,0,27.97,14.627,27.97,33.486c0,16.038-6.672,37.463-29.51,37.463c-8.981,0-14.882-4.233-17.833-8.98h-0.257v33.615h-11.29
			V25.119z M669.769,84.393c12.317,0,18.091-11.163,18.091-25.916c0-8.596-0.898-25.147-18.348-25.147
			c-16.294,0-18.091,17.577-18.091,28.483C651.422,79.646,662.585,84.393,669.769,84.393z"/>
	</g>
	<polygon fill="#2AAAB9" points="109.58,92.219 0,92.219 42.624,0 152.204,0 	"/>
</g>
</svg>