<!-- Generator: Adobe Illustrator 18.1.1, SVG Export Plug-In  -->
<svg version="1.1"
	 xmlns="http://www.w3.org/2000/svg" xmlns:xlink="http://www.w3.org/1999/xlink" xmlns:a="http://ns.adobe.com/AdobeSVGViewerExtensions/3.0/"
	 x="0px" y="0px" width="53px" height="65.244px" viewBox="0 0 53 65.244" enable-background="new 0 0 53 65.244"
	 xml:space="preserve">
<defs>
</defs>
<g>
	<rect y="5.693" fill="none" width="53" height="55"/>
	<path fill="#3B5998" d="M26.441,9.463c3.398,0,6.592,0.645,9.58,1.934s5.596,3.047,7.822,5.273s3.984,4.825,5.273,7.793
		c1.289,2.969,1.934,6.152,1.934,9.551s-0.645,6.592-1.934,9.58s-3.047,5.596-5.273,7.822s-4.834,3.984-7.822,5.273
		s-6.182,1.934-9.58,1.934s-6.583-0.645-9.551-1.934c-2.969-1.289-5.566-3.047-7.793-5.273s-3.984-4.834-5.273-7.822
		s-1.934-6.182-1.934-9.58s0.645-6.582,1.934-9.551c1.289-2.968,3.047-5.566,5.273-7.793s4.824-3.984,7.793-5.273
		C19.859,10.107,23.043,9.463,26.441,9.463z M35.699,20.186h-5.215c-1.016,0-1.954,0.176-2.812,0.527
		c-0.86,0.352-1.611,0.82-2.256,1.406s-1.143,1.25-1.494,1.992c-0.352,0.743-0.527,1.485-0.527,2.227v3.105h-4.629v6.094h4.629
		v12.305h6.152V35.537h4.57v-6.094h-4.57v-1.582c0-0.469,0.185-0.839,0.557-1.113c0.371-0.273,0.693-0.41,0.967-0.41h4.629V20.186z"
		/>
</g>
</svg>