<!-- Generator: Adobe Illustrator 18.1.1, SVG Export Plug-In  -->
<svg version="1.1"
	 xmlns="http://www.w3.org/2000/svg" xmlns:xlink="http://www.w3.org/1999/xlink" xmlns:a="http://ns.adobe.com/AdobeSVGViewerExtensions/3.0/"
	 x="0px" y="0px" width="88.316px" height="26.24px" viewBox="0 0 88.316 26.24" enable-background="new 0 0 88.316 26.24"
	 xml:space="preserve">
<defs>
</defs>
<g>
	<path d="M10.15,12.084c-0.982-0.672-2.076-1.008-3.28-1.008c-1.347,0-2.405,0.43-3.173,1.289c-0.745,0.82-1.117,1.902-1.117,3.246
		c0,1.234,0.402,2.242,1.207,3.023c0.804,0.781,1.832,1.172,3.084,1.172c1.172,0,2.321-0.391,3.447-1.172v1.582
		c-1.03,0.578-2.27,0.867-3.72,0.867c-1.632,0-2.958-0.523-3.976-1.57s-1.527-2.379-1.527-3.996c0-1.703,0.535-3.082,1.604-4.137
		c1.07-1.055,2.468-1.582,4.196-1.582c1.283,0,2.377,0.234,3.28,0.703L10.15,12.084z"/>
	<path d="M20.273,21.037c-1.529,0-2.876-0.566-4.041-1.699c-1.085-1.055-1.628-2.367-1.628-3.938c0-1.555,0.553-2.877,1.658-3.967
		c1.105-1.09,2.442-1.635,4.011-1.635c1.601,0,2.963,0.547,4.088,1.641s1.688,2.414,1.688,3.961c0,1.539-0.555,2.852-1.664,3.938
		C23.229,20.471,21.858,21.037,20.273,21.037z M20.321,19.689c1.188,0,2.183-0.422,2.983-1.266c0.776-0.82,1.165-1.82,1.165-3
		c0-1.188-0.392-2.197-1.176-3.029c-0.785-0.832-1.775-1.248-2.971-1.248c-1.197,0-2.185,0.416-2.965,1.248
		c-0.781,0.832-1.171,1.842-1.171,3.029c0,1.18,0.388,2.18,1.165,3C18.142,19.268,19.132,19.689,20.321,19.689z"/>
	<path d="M31.503,20.58V10.186h1.391v1.605c0.855-1.328,2.096-1.992,3.72-1.992c1.196,0,2.127,0.326,2.793,0.979
		c0.666,0.652,0.999,1.568,0.999,2.748v7.055h-1.486v-6.41c0-2.047-0.901-3.07-2.703-3.07c-2.175,0-3.263,1.352-3.263,4.055v5.426
		H31.503z"/>
	<path d="M46.927,11.416H44.99v-1.23h1.938V5.92h1.45v4.266h2.104v1.23h-2.104v9.164h-1.45V11.416z"/>
	<path d="M62.898,20.58v-1.898c-0.714,1.57-1.948,2.355-3.701,2.355c-1.595,0-2.849-0.551-3.761-1.652
		c-0.857-1.023-1.285-2.336-1.285-3.938c0-1.562,0.413-2.871,1.238-3.926c0.904-1.148,2.126-1.723,3.666-1.723
		c1.841,0,3.122,0.762,3.844,2.285v-1.898h1.45V20.58H62.898z M55.767,15.494c0,1.25,0.27,2.238,0.808,2.965
		c0.61,0.82,1.525,1.23,2.746,1.23s2.144-0.461,2.77-1.383c0.539-0.797,0.808-1.824,0.808-3.082c0-1.195-0.285-2.156-0.856-2.883
		c-0.626-0.812-1.525-1.219-2.698-1.219c-1.205,0-2.124,0.449-2.757,1.348C56.041,13.244,55.767,14.252,55.767,15.494z"/>
	<path d="M78.894,12.084c-0.982-0.672-2.076-1.008-3.28-1.008c-1.347,0-2.405,0.43-3.173,1.289c-0.745,0.82-1.117,1.902-1.117,3.246
		c0,1.234,0.402,2.242,1.207,3.023c0.804,0.781,1.832,1.172,3.084,1.172c1.172,0,2.321-0.391,3.447-1.172v1.582
		c-1.03,0.578-2.27,0.867-3.72,0.867c-1.632,0-2.958-0.523-3.976-1.57s-1.527-2.379-1.527-3.996c0-1.703,0.535-3.082,1.604-4.137
		c1.07-1.055,2.468-1.582,4.196-1.582c1.283,0,2.377,0.234,3.28,0.703L78.894,12.084z"/>
	<path d="M84.537,11.416h-1.938v-1.23h1.938V5.92h1.45v4.266h2.104v1.23h-2.104v9.164h-1.45V11.416z"/>
</g>
</svg>