<!-- Generator: Adobe Illustrator 18.1.1, SVG Export Plug-In  -->
<svg version="1.1"
	 xmlns="http://www.w3.org/2000/svg" xmlns:xlink="http://www.w3.org/1999/xlink" xmlns:a="http://ns.adobe.com/AdobeSVGViewerExtensions/3.0/"
	 x="0px" y="0px" width="82.396px" height="45.125px" viewBox="0 0 82.396 45.125" enable-background="new 0 0 82.396 45.125"
	 xml:space="preserve">
<defs>
</defs>
<g>
	<path d="M10.352,7.568h-0.62V0h0.62V7.568z"/>
	<path d="M12.291,1.548c0-0.127,0.045-0.235,0.137-0.325s0.2-0.134,0.327-0.134s0.237,0.045,0.33,0.134s0.139,0.198,0.139,0.325
		c0,0.133-0.045,0.243-0.134,0.33s-0.201,0.129-0.334,0.129c-0.13,0-0.24-0.044-0.33-0.132S12.291,1.678,12.291,1.548z
		 M12.442,7.568V3.237h0.62v4.331H12.442z"/>
	<path d="M15.708,7.568h-0.596V3.237h0.596v0.679c0.293-0.56,0.752-0.84,1.378-0.84c0.639,0,1.08,0.285,1.325,0.854
		c0.342-0.57,0.845-0.854,1.51-0.854c0.473,0,0.839,0.145,1.1,0.435c0.254,0.277,0.381,0.653,0.381,1.128v2.93h-0.596v-2.69
		c0-0.853-0.348-1.279-1.042-1.279c-0.802,0-1.204,0.563-1.204,1.689v2.28h-0.596v-2.69c0-0.853-0.341-1.279-1.023-1.279
		c-0.822,0-1.233,0.563-1.233,1.689V7.568z"/>
	<path d="M23.301,1.548c0-0.127,0.045-0.235,0.137-0.325s0.2-0.134,0.327-0.134s0.237,0.045,0.33,0.134s0.139,0.198,0.139,0.325
		c0,0.133-0.045,0.243-0.134,0.33s-0.201,0.129-0.334,0.129c-0.13,0-0.24-0.044-0.33-0.132S23.301,1.678,23.301,1.548z
		 M23.452,7.568V3.237h0.62v4.331H23.452z"/>
	<path d="M26.25,3.75h-0.796V3.237h0.796V1.46h0.596v1.777h0.864V3.75h-0.864v3.818H26.25V3.75z"/>
	<path d="M32.734,5.42h-3.442c0.016,0.511,0.137,0.926,0.361,1.245c0.26,0.368,0.633,0.552,1.118,0.552
		c0.641,0,1.122-0.347,1.44-1.04l0.552,0.303c-0.43,0.853-1.094,1.279-1.992,1.279c-0.658,0-1.182-0.223-1.572-0.669
		c-0.371-0.426-0.557-0.973-0.557-1.641c0-0.677,0.179-1.234,0.537-1.67c0.387-0.469,0.912-0.703,1.572-0.703
		c0.628,0,1.122,0.215,1.479,0.645c0.335,0.404,0.503,0.926,0.503,1.567V5.42z M32.021,4.907c-0.062-0.833-0.511-1.25-1.348-1.25
		c-0.371,0-0.678,0.115-0.92,0.344s-0.383,0.531-0.422,0.906H32.021z"/>
	<path d="M37.607,7.568V6.777c-0.29,0.654-0.792,0.981-1.509,0.981c-0.654,0-1.168-0.229-1.543-0.688
		c-0.352-0.426-0.527-0.973-0.527-1.641c0-0.651,0.169-1.196,0.508-1.636c0.371-0.479,0.873-0.718,1.504-0.718
		c0.749,0,1.271,0.317,1.567,0.952V0h0.61v7.568H37.607z M34.692,5.449c0,0.521,0.11,0.933,0.332,1.235
		c0.25,0.342,0.625,0.513,1.126,0.513c0.497,0,0.874-0.194,1.131-0.581c0.218-0.329,0.327-0.755,0.327-1.279
		c0-0.498-0.114-0.898-0.341-1.201c-0.257-0.338-0.625-0.508-1.106-0.508c-0.494,0-0.871,0.187-1.131,0.562
		C34.804,4.512,34.692,4.932,34.692,5.449z"/>
	<path d="M47.226,5.42h-3.442c0.016,0.511,0.137,0.926,0.361,1.245c0.26,0.368,0.633,0.552,1.118,0.552
		c0.641,0,1.122-0.347,1.44-1.04l0.552,0.303c-0.43,0.853-1.094,1.279-1.992,1.279c-0.658,0-1.182-0.223-1.572-0.669
		c-0.371-0.426-0.557-0.973-0.557-1.641c0-0.677,0.179-1.234,0.537-1.67c0.387-0.469,0.912-0.703,1.572-0.703
		c0.628,0,1.122,0.215,1.479,0.645c0.335,0.404,0.503,0.926,0.503,1.567V5.42z M46.513,4.907c-0.062-0.833-0.511-1.25-1.348-1.25
		c-0.371,0-0.678,0.115-0.92,0.344s-0.383,0.531-0.422,0.906H46.513z"/>
	<path d="M52.099,7.568V6.777c-0.29,0.654-0.793,0.981-1.509,0.981c-0.654,0-1.169-0.229-1.543-0.688
		C48.696,6.644,48.52,6.097,48.52,5.43c0-0.651,0.169-1.196,0.508-1.636c0.371-0.479,0.872-0.718,1.504-0.718
		c0.749,0,1.271,0.317,1.567,0.952V0h0.61v7.568H52.099z M49.184,5.449c0,0.521,0.11,0.933,0.331,1.235
		c0.251,0.342,0.626,0.513,1.127,0.513c0.497,0,0.874-0.194,1.131-0.581c0.218-0.329,0.326-0.755,0.326-1.279
		c0-0.498-0.113-0.898-0.341-1.201c-0.257-0.338-0.626-0.508-1.106-0.508c-0.494,0-0.871,0.187-1.132,0.562
		C49.296,4.512,49.184,4.932,49.184,5.449z"/>
	<path d="M54.594,1.548c0-0.127,0.046-0.235,0.137-0.325s0.2-0.134,0.327-0.134s0.236,0.045,0.33,0.134
		c0.092,0.089,0.139,0.198,0.139,0.325c0,0.133-0.045,0.243-0.135,0.33c-0.089,0.086-0.2,0.129-0.334,0.129
		c-0.13,0-0.24-0.044-0.33-0.132C54.639,1.787,54.594,1.678,54.594,1.548z M54.745,7.568V3.237h0.62v4.331H54.745z"/>
	<path d="M57.543,3.75h-0.796V3.237h0.796V1.46h0.596v1.777h0.864V3.75h-0.864v3.818h-0.596V3.75z"/>
	<path d="M60.195,1.548c0-0.127,0.046-0.235,0.137-0.325s0.2-0.134,0.327-0.134s0.236,0.045,0.33,0.134
		c0.092,0.089,0.139,0.198,0.139,0.325c0,0.133-0.045,0.243-0.135,0.33c-0.089,0.086-0.2,0.129-0.334,0.129
		c-0.13,0-0.24-0.044-0.33-0.132C60.24,1.787,60.195,1.678,60.195,1.548z M60.346,7.568V3.237h0.62v4.331H60.346z"/>
	<path d="M64.984,7.759c-0.628,0-1.182-0.236-1.66-0.708c-0.446-0.439-0.669-0.986-0.669-1.641c0-0.648,0.227-1.199,0.682-1.653
		c0.453-0.454,1.003-0.681,1.647-0.681c0.657,0,1.218,0.228,1.68,0.684s0.693,1.006,0.693,1.65c0,0.641-0.228,1.188-0.684,1.641
		C66.198,7.523,65.635,7.759,64.984,7.759z M65.003,7.197c0.488,0,0.896-0.176,1.226-0.527c0.319-0.342,0.479-0.758,0.479-1.25
		c0-0.495-0.161-0.916-0.483-1.262s-0.729-0.52-1.221-0.52s-0.897,0.173-1.218,0.52c-0.321,0.347-0.481,0.768-0.481,1.262
		c0,0.492,0.159,0.908,0.479,1.25C64.108,7.021,64.515,7.197,65.003,7.197z"/>
	<path d="M69.007,7.568V3.237h0.571v0.669c0.352-0.553,0.861-0.83,1.528-0.83c0.491,0,0.874,0.136,1.147,0.408
		s0.41,0.653,0.41,1.145v2.939h-0.61V4.897c0-0.853-0.37-1.279-1.11-1.279c-0.894,0-1.341,0.563-1.341,1.689v2.261H69.007z"/>
</g>
<g>
	<path d="M0.497,30.844l8.482-16.747H0v-1.435h11.413l-9.356,18.98L0.497,30.844z"/>
	<path d="M10.99,19.505l2.45-6.843l1.904,0.825l-3.339,6.424L10.99,19.505z M15.078,19.505l2.476-6.843l1.892,0.825l-3.326,6.424
		L15.078,19.505z"/>
	<path d="M28.748,19.81h1.714l3.455,8.525l3.436-8.525h1.743l-5.18,11.985L28.748,19.81z"/>
	<path d="M43.528,15.417c0-0.33,0.118-0.611,0.355-0.844s0.521-0.349,0.851-0.349s0.615,0.116,0.857,0.349
		c0.24,0.233,0.361,0.514,0.361,0.844c0,0.347-0.116,0.633-0.35,0.857c-0.232,0.224-0.522,0.336-0.869,0.336
		c-0.339,0-0.624-0.114-0.857-0.343C43.645,16.04,43.528,15.756,43.528,15.417z M43.922,31.071V19.81h1.612v11.261H43.922z"/>
	<path d="M52.088,31.071V19.81h1.485v1.739c0.914-1.439,2.238-2.158,3.974-2.158c1.278,0,2.272,0.354,2.983,1.06
		s1.066,1.699,1.066,2.977v7.643H60.01v-6.945c0-2.217-0.963-3.326-2.888-3.326c-2.323,0-3.485,1.464-3.485,4.393v5.878H52.088z"/>
	<path d="M66.386,19.81h1.66l3.23,8.809l2.966-8.809h1.665L70.08,36.733h-1.611l1.965-5.744L66.386,19.81z"/>
	<path d="M82.396,31.071h-1.612V11.393h1.612V31.071z"/>
</g>
<g>
	<path d="M14.427,41.97l-0.34,2.599h-0.349l0.054-0.39c-0.215,0.336-0.517,0.504-0.906,0.504c-0.346,0-0.619-0.138-0.818-0.413
		c-0.18-0.246-0.27-0.549-0.27-0.908c0-0.404,0.113-0.748,0.34-1.031c0.244-0.305,0.563-0.457,0.958-0.457
		c0.436,0,0.739,0.206,0.911,0.618l0.071-0.521H14.427z M12.982,44.384c0.299,0,0.536-0.134,0.712-0.401
		c0.152-0.23,0.229-0.503,0.229-0.817c0-0.273-0.063-0.502-0.19-0.686c-0.146-0.207-0.351-0.311-0.612-0.311
		c-0.303,0-0.543,0.131-0.721,0.393c-0.156,0.229-0.234,0.501-0.234,0.817c0,0.281,0.064,0.513,0.193,0.694
		C12.505,44.28,12.713,44.384,12.982,44.384z"/>
	<path d="M16.293,44.729l-0.905-2.76h0.37l0.63,2.033l1.164-2.033h0.4L16.293,44.729z"/>
	<path d="M21.304,41.97l-0.34,2.599h-0.349l0.054-0.39c-0.215,0.336-0.517,0.504-0.906,0.504c-0.346,0-0.619-0.138-0.818-0.413
		c-0.18-0.246-0.27-0.549-0.27-0.908c0-0.404,0.113-0.748,0.34-1.031c0.244-0.305,0.563-0.457,0.958-0.457
		c0.436,0,0.739,0.206,0.911,0.618l0.071-0.521H21.304z M19.86,44.384c0.299,0,0.536-0.134,0.712-0.401
		c0.152-0.23,0.229-0.503,0.229-0.817c0-0.273-0.063-0.502-0.19-0.686c-0.146-0.207-0.351-0.311-0.612-0.311
		c-0.303,0-0.543,0.131-0.721,0.393c-0.156,0.229-0.234,0.501-0.234,0.817c0,0.281,0.064,0.513,0.193,0.694
		C19.382,44.28,19.59,44.384,19.86,44.384z"/>
	<path d="M22.482,44.568l0.343-2.599h0.352l-0.34,2.599H22.482z M22.849,41.012c0-0.076,0.025-0.14,0.075-0.19
		s0.113-0.076,0.189-0.076s0.139,0.025,0.189,0.076s0.075,0.114,0.075,0.19c0,0.074-0.025,0.137-0.076,0.188
		s-0.113,0.076-0.188,0.076c-0.076,0-0.139-0.025-0.189-0.074C22.873,41.15,22.849,41.088,22.849,41.012z"/>
	<path d="M24.358,44.568l0.601-4.541h0.346l-0.598,4.541H24.358z"/>
	<path d="M28.8,41.97l-0.34,2.599h-0.349l0.054-0.39c-0.215,0.336-0.517,0.504-0.906,0.504c-0.346,0-0.619-0.138-0.818-0.413
		c-0.18-0.246-0.27-0.549-0.27-0.908c0-0.404,0.113-0.748,0.34-1.031c0.244-0.305,0.563-0.457,0.958-0.457
		c0.436,0,0.739,0.206,0.911,0.618l0.071-0.521H28.8z M27.356,44.384c0.299,0,0.536-0.134,0.712-0.401
		c0.152-0.23,0.229-0.503,0.229-0.817c0-0.273-0.063-0.502-0.19-0.686c-0.146-0.207-0.351-0.311-0.612-0.311
		c-0.303,0-0.543,0.131-0.721,0.393c-0.156,0.229-0.234,0.501-0.234,0.817c0,0.281,0.064,0.513,0.193,0.694
		C26.878,44.28,27.086,44.384,27.356,44.384z"/>
	<path d="M29.949,44.568l0.598-4.541h0.349l-0.305,2.338c0.236-0.324,0.536-0.486,0.899-0.486c0.348,0,0.622,0.137,0.823,0.41
		c0.18,0.244,0.27,0.546,0.27,0.905c0,0.402-0.113,0.745-0.34,1.028c-0.246,0.307-0.565,0.46-0.958,0.46
		c-0.443,0-0.749-0.208-0.917-0.624l-0.067,0.51H29.949z M31.394,42.169c-0.299,0-0.535,0.134-0.709,0.401
		c-0.15,0.23-0.225,0.503-0.225,0.817c0,0.273,0.063,0.502,0.19,0.686c0.146,0.207,0.351,0.311,0.612,0.311
		c0.303,0,0.543-0.131,0.721-0.393c0.156-0.23,0.234-0.504,0.234-0.82c0-0.277-0.066-0.508-0.199-0.691
		C31.869,42.272,31.661,42.169,31.394,42.169z"/>
	<path d="M33.714,44.568l0.601-4.541h0.346l-0.598,4.541H33.714z"/>
	<path d="M38.054,43.32h-2.177v0.067c0,0.303,0.075,0.541,0.226,0.715c0.158,0.182,0.387,0.272,0.686,0.272
		c0.352,0,0.638-0.163,0.858-0.489l0.24,0.231c-0.277,0.377-0.646,0.565-1.104,0.565c-0.381,0-0.688-0.113-0.921-0.34
		s-0.35-0.529-0.35-0.908c0-0.443,0.122-0.81,0.366-1.099c0.262-0.309,0.609-0.463,1.043-0.463c0.371,0,0.656,0.104,0.855,0.312
		c0.199,0.207,0.299,0.498,0.299,0.871C38.075,43.119,38.068,43.207,38.054,43.32z M37.726,43.027c0-0.26-0.062-0.464-0.185-0.612
		c-0.135-0.16-0.329-0.24-0.583-0.24c-0.543,0-0.892,0.284-1.046,0.853H37.726z"/>
	<path d="M43.018,44.568l0.145-1.049h-1.976l2.766-3.343l-0.396,3.018h0.457L43.97,43.52h-0.456l-0.142,1.049H43.018z
		 M43.195,43.194l0.302-2.063l-1.68,2.063H43.195z"/>
	<path d="M45.061,45.125l2.291-4.942h0.307l-2.294,4.942H45.061z"/>
	<path d="M48.685,44.539l2.165-3.858h-2.057l0.053-0.36h2.619l-2.46,4.403L48.685,44.539z"/>
	<path d="M52.075,45.125l2.291-4.942h0.307l-2.294,4.942H52.075z"/>
	<path d="M55.208,44.568l1.544-1.415c0.387-0.355,0.646-0.614,0.779-0.776c0.281-0.348,0.422-0.675,0.422-0.981
		c0-0.281-0.09-0.494-0.27-0.639c-0.164-0.135-0.391-0.202-0.68-0.202c-0.297,0-0.538,0.099-0.724,0.296
		c-0.178,0.189-0.272,0.435-0.284,0.735h-0.352c0.018-0.428,0.148-0.761,0.393-0.999s0.579-0.357,1.005-0.357
		c0.383,0,0.688,0.094,0.914,0.281c0.242,0.201,0.363,0.489,0.363,0.864c0,0.537-0.478,1.242-1.433,2.115l-0.103,0.094l-0.721,0.647
		h1.884l-0.041,0.337H55.208z"/>
	<path d="M62.205,41.935c0,0.812-0.17,1.494-0.51,2.045c-0.291,0.473-0.677,0.709-1.157,0.709c-0.432,0-0.75-0.186-0.955-0.557
		c-0.16-0.291-0.24-0.672-0.24-1.143c0-0.826,0.168-1.51,0.504-2.051c0.291-0.469,0.686-0.703,1.184-0.703
		c0.42,0,0.731,0.188,0.935,0.565C62.125,41.098,62.205,41.476,62.205,41.935z M61.004,40.566c-0.352,0-0.631,0.182-0.838,0.545
		c-0.301,0.527-0.451,1.18-0.451,1.957c0,0.859,0.272,1.289,0.817,1.289c0.463,0,0.81-0.327,1.04-0.981
		c0.162-0.465,0.243-0.979,0.243-1.544C61.815,40.988,61.545,40.566,61.004,40.566z"/>
	<path d="M64.247,44.568l0.521-3.929h-0.772l0.149-0.319h1.028l-0.56,4.248H64.247z"/>
	<path d="M67.225,43.766c0.268,0.395,0.609,0.592,1.025,0.592c0.33,0,0.611-0.111,0.846-0.334c0.232-0.223,0.35-0.499,0.35-0.829
		c0-0.332-0.097-0.593-0.289-0.784c-0.192-0.189-0.454-0.285-0.786-0.285c-0.346,0-0.64,0.099-0.882,0.296l-0.126-0.091l0.744-2.01
		h1.74l-0.044,0.349h-1.45l-0.487,1.266c0.191-0.08,0.377-0.12,0.557-0.12c0.422,0,0.761,0.118,1.015,0.354
		c0.262,0.242,0.393,0.572,0.393,0.99c0,0.436-0.147,0.8-0.442,1.091c-0.295,0.293-0.66,0.438-1.096,0.438
		c-0.557,0-0.994-0.214-1.312-0.642L67.225,43.766z"/>
</g>
</svg>