<!-- Generator: Adobe Illustrator 18.1.1, SVG Export Plug-In  -->
<svg version="1.1"
	 xmlns="http://www.w3.org/2000/svg" xmlns:xlink="http://www.w3.org/1999/xlink" xmlns:a="http://ns.adobe.com/AdobeSVGViewerExtensions/3.0/"
	 x="0px" y="0px" width="122px" height="40px" viewBox="0 0 122 40" enable-background="new 0 0 122 40" xml:space="preserve">
<defs>
</defs>
<g id="amazon.png_x2B__x40_2x_copy">
	<g id="background_2_">
		<g>
			<path fill-rule="evenodd" clip-rule="evenodd" fill="#050708" d="M118.246,0H3.754C1.681,0,0,1.791,0,4v32
				c0,2.209,1.681,4,3.754,4h114.492c2.073,0,3.754-1.791,3.754-4V4C122,1.791,120.319,0,118.246,0z"/>
		</g>
	</g>
	<g id="available_at_amazon_copy">
		<g id="amazon_1_">
			<g>
				<path fill-rule="evenodd" clip-rule="evenodd" fill="#FFFFFF" d="M91.805,24.131c-1.422-0.726-3.077-0.938-4.642-0.905
					l4.215-5.466c0.391-0.491,0.611-0.801,0.613-1.038l0.001-1.414c-0.001-0.244-0.209-0.416-0.47-0.417l-8.138,0.001
					c-0.251,0-0.459,0.167-0.46,0.418v1.649c0.002,0.247,0.21,0.415,0.47,0.415l4.252,0.001l-4.884,6.363
					c-0.297,0.408-0.303,0.866-0.303,1.133v1.673c0,0.243,0.296,0.519,0.579,0.382c2.77-1.336,6.094-1.206,8.599-0.014
					c0.307,0.146,0.599-0.134,0.599-0.377v-1.759C92.211,24.537,92.126,24.294,91.805,24.131z M63.493,14.678
					c-1.456,0-2.82,0.68-3.42,2.137c-0.694-1.457-1.664-2.137-3.213-2.137c-1.525,0-2.658,0.68-3.258,2.137h-0.046v-1.507
					c-0.015-0.21-0.209-0.376-0.45-0.388l-2.306,0.001c-0.264,0-0.478,0.185-0.478,0.415l-0.002,11.54
					c0.019,0.205,0.207,0.366,0.443,0.38h2.476c0.264,0,0.478-0.185,0.477-0.415l0.001-6.117c0-1.336-0.069-3.181,1.71-3.181
					c1.756,0,1.525,1.894,1.525,3.181l0.003,6.118c0,0.221,0.196,0.4,0.445,0.414h2.473c0.264,0,0.477-0.185,0.477-0.415v-6.117
					c0-0.656-0.023-1.627,0.231-2.21c0.254-0.583,0.878-0.947,1.479-0.947c0.716,0,1.271,0.219,1.456,0.996
					c0.116,0.461,0.069,1.676,0.069,2.161l0.001,6.118c0,0.221,0.196,0.4,0.445,0.414h2.473c0.264,0,0.477-0.185,0.477-0.415
					l0.002-7.283c0-1.239,0.162-2.647-0.624-3.618C65.665,15.067,64.533,14.678,63.493,14.678z M98.997,14.678
					c-3.582,0-5.57,2.793-5.57,6.387c0,3.57,1.964,6.435,5.57,6.435c3.467,0,5.662-2.793,5.662-6.314
					C104.659,17.544,102.672,14.678,98.997,14.678z M98.997,25.121c-1.941,0-1.918-3.011-1.918-4.42s0.115-3.667,1.941-3.667
					c0.785,0,1.34,0.316,1.618,1.117c0.324,0.923,0.37,2.089,0.37,3.06C101.008,22.692,100.916,25.121,98.997,25.121z
					 M116.032,16.038c-0.693-0.996-1.78-1.36-2.889-1.36c-1.71,0-2.681,0.753-3.374,2.331h-0.047v-1.765
					c-0.046-0.179-0.224-0.313-0.44-0.323l-2.297,0.001c-0.25,0-0.455,0.166-0.476,0.377l0.004,11.545
					c0,0.221,0.196,0.4,0.444,0.414h2.467c0.264,0,0.478-0.185,0.482-0.415v-6.214c0-0.777,0.047-1.481,0.393-2.186
					c0.277-0.559,0.832-0.923,1.433-0.923c1.71,0,1.548,1.846,1.548,3.108v6.266c0.027,0.197,0.212,0.35,0.441,0.364h2.482
					c0.245,0,0.447-0.159,0.474-0.364v-7.262C116.679,18.515,116.679,16.961,116.032,16.038z M79.911,23.059v-3.503
					c0-1.485,0.116-2.848-1.088-3.87c-0.95-0.828-2.525-1.12-3.729-1.12c-2.356,0-4.985,0.799-5.537,3.443
					c-0.058,0.281,0.167,0.429,0.369,0.47l2.4,0.236c0.224-0.01,0.387-0.211,0.43-0.413c0.206-0.911,1.046-1.35,1.99-1.35
					c0.51,0,1.089,0.17,1.39,0.584c0.347,0.462,0.301,1.095,0.301,1.631v0.292c-1.436,0.146-3.312,0.243-4.655,0.779
					c-1.552,0.608-2.64,1.85-2.64,3.675c0,2.336,1.621,3.505,3.706,3.505c1.76,0,2.723-0.377,4.082-1.634
					c0.449,0.591,0.597,0.878,1.419,1.498c0.185,0.09,0.421,0.081,0.585-0.052l0.006,0.005c0.494-0.399,1.393-1.108,1.899-1.493
					c0.202-0.149,0.166-0.393,0.008-0.597C80.393,24.575,79.911,24.113,79.911,23.059z M76.437,21.746
					c0,0.876,0.023,1.606-0.463,2.385c-0.394,0.633-1.019,1.022-1.714,1.022c-0.95,0-1.505-0.657-1.505-1.631
					c0-1.915,1.892-2.263,3.683-2.263V21.746z M47.455,23.059v-3.503c0-1.485,0.116-2.848-1.089-3.87
					c-0.95-0.828-2.525-1.12-3.729-1.12c-2.356,0-4.985,0.799-5.536,3.443c-0.059,0.281,0.167,0.429,0.369,0.47l2.399,0.236
					c0.225-0.01,0.387-0.211,0.43-0.413c0.206-0.911,1.046-1.35,1.99-1.35c0.509,0,1.089,0.17,1.39,0.584
					c0.347,0.462,0.301,1.095,0.301,1.631v0.292c-1.436,0.146-3.312,0.243-4.655,0.779c-1.552,0.608-2.64,1.85-2.64,3.675
					c0,2.336,1.621,3.505,3.706,3.505c1.76,0,2.723-0.377,4.082-1.634c0.45,0.591,0.597,0.878,1.419,1.498
					c0.185,0.09,0.421,0.081,0.585-0.052l0.006,0.005c0.494-0.399,1.393-1.108,1.899-1.493c0.202-0.149,0.166-0.393,0.008-0.597
					C47.937,24.575,47.455,24.113,47.455,23.059z M43.981,21.746c0,0.876,0.023,1.606-0.463,2.385
					c-0.394,0.633-1.019,1.022-1.714,1.022c-0.949,0-1.505-0.657-1.505-1.631c0-1.915,1.891-2.263,3.682-2.263V21.746z"/>
			</g>
		</g>
		<g id="arrow_1_">
			<g>
				<path fill-rule="evenodd" clip-rule="evenodd" fill="#FF9900" d="M85.429,30.693c-5.21,2.007-11.092,2.302-16.243,2.302
					c-7.637,0-14.603-1.218-20.582-4.378c-0.523-0.276-0.911,0.211-0.476,0.568c5.542,4.545,12.864,6.123,20.997,6.123
					c5.802,0,11.657-0.35,16.305-3.464C86.198,31.329,86.215,30.39,85.429,30.693z M90.229,28.308
					c-0.507-0.568-4.866-1.058-7.526,0.639c-0.409,0.261-0.339,0.621,0.115,0.571c1.498-0.163,4.833-0.526,5.428,0.165
					c0.595,0.691-0.661,3.54-1.222,4.813c-0.17,0.385,0.195,0.54,0.578,0.249C90.096,32.85,90.74,28.881,90.229,28.308z"/>
			</g>
		</g>
		<g id="Available_at_copy">
			<g>
				<path fill="#FFFFFF" d="M39.095,9.427l-0.657,1.834h-0.845l2.15-5.829h0.986l2.159,5.829h-0.873l-0.676-1.834H39.095z
					 M41.17,8.838l-0.62-1.677c-0.141-0.38-0.235-0.727-0.329-1.064h-0.019c-0.094,0.346-0.197,0.701-0.319,1.055l-0.62,1.686H41.17
					z"/>
				<path fill="#FFFFFF" d="M43.86,7.075l0.892,2.352c0.15,0.381,0.272,0.727,0.366,1.072h0.028
					c0.103-0.346,0.234-0.691,0.385-1.072l0.882-2.352h0.864l-1.784,4.185h-0.788l-1.728-4.185H43.86z"/>
				<path fill="#FFFFFF" d="M50.228,11.26l-0.066-0.527h-0.028c-0.253,0.329-0.742,0.623-1.389,0.623
					c-0.92,0-1.389-0.597-1.389-1.202c0-1.011,0.976-1.565,2.732-1.557V8.51c0-0.346-0.103-0.968-1.033-0.968
					c-0.422,0-0.864,0.122-1.183,0.312l-0.188-0.502c0.376-0.225,0.92-0.372,1.493-0.372c1.389,0,1.727,0.874,1.727,1.712v1.566
					c0,0.363,0.019,0.717,0.075,1.003H50.228z M50.106,9.124c-0.901-0.017-1.924,0.13-1.924,0.943c0,0.493,0.357,0.726,0.779,0.726
					c0.591,0,0.967-0.346,1.098-0.701c0.028-0.078,0.047-0.164,0.047-0.242V9.124z"/>
				<path fill="#FFFFFF" d="M52.943,5.899c0.009,0.259-0.197,0.466-0.526,0.466c-0.291,0-0.498-0.207-0.498-0.466
					c0-0.269,0.216-0.476,0.516-0.476C52.746,5.423,52.943,5.63,52.943,5.899z M52.023,11.26V7.075h0.826v4.185H52.023z"/>
				<path fill="#FFFFFF" d="M53.817,5.12h0.826v6.14h-0.826V5.12z"/>
				<path fill="#FFFFFF" d="M58.719,11.26l-0.066-0.527h-0.028c-0.254,0.329-0.742,0.623-1.389,0.623c-0.92,0-1.39-0.597-1.39-1.202
					c0-1.011,0.976-1.565,2.732-1.557V8.51c0-0.346-0.104-0.968-1.033-0.968c-0.422,0-0.864,0.122-1.183,0.312l-0.188-0.502
					c0.375-0.225,0.92-0.372,1.492-0.372c1.389,0,1.727,0.874,1.727,1.712v1.566c0,0.363,0.019,0.717,0.075,1.003H58.719z
					 M58.596,9.124c-0.901-0.017-1.924,0.13-1.924,0.943c0,0.493,0.357,0.726,0.779,0.726c0.592,0,0.967-0.346,1.098-0.701
					c0.028-0.078,0.047-0.164,0.047-0.242V9.124z"/>
				<path fill="#FFFFFF" d="M60.298,11.26c0.019-0.286,0.038-0.709,0.038-1.081V5.12h0.817v2.629h0.019
					c0.291-0.467,0.817-0.77,1.549-0.77c1.126,0,1.924,0.864,1.914,2.136c0,1.496-1.023,2.24-2.036,2.24
					c-0.658,0-1.183-0.234-1.521-0.788h-0.028l-0.038,0.692H60.298z M61.152,9.583c0,0.095,0.019,0.19,0.038,0.276
					c0.16,0.527,0.638,0.891,1.239,0.891c0.864,0,1.38-0.648,1.38-1.608c0-0.839-0.47-1.557-1.352-1.557
					c-0.563,0-1.089,0.355-1.258,0.935c-0.019,0.086-0.047,0.19-0.047,0.311V9.583z"/>
				<path fill="#FFFFFF" d="M65.914,5.12h0.826v6.14h-0.826V5.12z"/>
				<path fill="#FFFFFF" d="M68.619,9.306c0.019,1.029,0.732,1.453,1.558,1.453c0.592,0,0.948-0.095,1.258-0.215l0.14,0.544
					c-0.291,0.122-0.789,0.259-1.512,0.259c-1.399,0-2.234-0.848-2.234-2.11s0.807-2.257,2.131-2.257
					c1.483,0,1.878,1.202,1.878,1.971c0,0.156-0.019,0.277-0.028,0.355H68.619z M71.042,8.761c0.009-0.484-0.216-1.236-1.146-1.236
					c-0.836,0-1.202,0.709-1.268,1.236H71.042z"/>
				<path fill="#FFFFFF" d="M77.372,11.26l-0.065-0.527h-0.028c-0.253,0.329-0.741,0.623-1.39,0.623
					c-0.92,0-1.389-0.597-1.389-1.202c0-1.011,0.976-1.565,2.732-1.557V8.51c0-0.346-0.104-0.968-1.033-0.968
					c-0.422,0-0.863,0.122-1.182,0.312l-0.188-0.502c0.375-0.225,0.92-0.372,1.492-0.372c1.39,0,1.727,0.874,1.727,1.712v1.566
					c0,0.363,0.019,0.717,0.075,1.003H77.372z M77.25,9.124c-0.901-0.017-1.924,0.13-1.924,0.943c0,0.493,0.357,0.726,0.78,0.726
					c0.592,0,0.967-0.346,1.098-0.701c0.028-0.078,0.047-0.164,0.047-0.242V9.124z"/>
				<path fill="#FFFFFF" d="M80.135,5.872v1.202h1.182v0.579h-1.182v2.257c0,0.519,0.16,0.813,0.619,0.813
					c0.216,0,0.376-0.025,0.479-0.052l0.038,0.571c-0.16,0.06-0.413,0.103-0.732,0.103c-0.385,0-0.694-0.112-0.892-0.319
					c-0.235-0.225-0.319-0.597-0.319-1.09V7.654h-0.704V7.075h0.704V6.071L80.135,5.872z"/>
			</g>
		</g>
	</g>
	<g id="icon_1_">
		<g>
			<path fill-rule="evenodd" clip-rule="evenodd" fill="#FFFFFF" d="M13.942,23.991c0.703,0.277,1.438,0.334,2.188,0.33
				c1.551-0.007,2.947-0.425,4.113-1.481c0.253-0.229,0.503-0.46,0.776-0.71c0.102,0.136,0.198,0.255,0.284,0.381
				c0.38,0.554,0.819,1.054,1.339,1.483c0.324,0.268,0.649,0.28,0.973,0.011c0.759-0.63,1.512-1.267,2.265-1.905
				c0.218-0.185,0.267-0.422,0.134-0.677c-0.067-0.128-0.159-0.247-0.255-0.355c-0.707-0.8-1.022-1.727-1.007-2.795
				c0.024-1.666,0.013-3.334,0.004-5.001c-0.004-0.698-0.007-1.398-0.071-2.092c-0.109-1.189-0.622-2.175-1.615-2.884
				c-0.834-0.594-1.777-0.915-2.775-1.092c-0.359-0.064-3.078-0.276-4.784,0.356c-2.001,0.672-3.298,2.009-3.71,4.116
				c-0.069,0.352,0.124,0.575,0.524,0.62c0.859,0.098,1.718,0.197,2.574,0.309c0.54,0.071,0.699-0.045,0.874-0.56
				c0.11-0.324,0.253-0.666,0.474-0.92c0.663-0.759,1.538-1.017,2.52-0.846c0.907,0.157,1.491,0.692,1.606,1.624
				c0.066,0.537,0.051,1.085,0.073,1.628c0.006,0.152-0.097,0.155-0.212,0.166c-0.909,0.092-1.818,0.178-2.725,0.287
				c-1.156,0.139-2.275,0.418-3.327,0.931c-1.277,0.623-2.199,1.57-2.642,2.927c-0.373,1.14-0.387,2.304-0.058,3.455
				C11.852,22.591,12.681,23.493,13.942,23.991z M18.484,16.209c0.545-0.092,1.104-0.099,1.656-0.151
				c0.226-0.022,0.334,0.046,0.314,0.292c-0.018,0.227-0.004,0.455-0.004,0.683c-0.011,0.812-0.011,1.627-0.344,2.391
				c-0.363,0.83-0.867,1.53-1.782,1.83c-1.204,0.394-2.295-0.241-2.507-1.484C15.48,17.795,16.552,16.537,18.484,16.209z
				 M27.765,26.37c-0.159,0.012-0.321,0.06-0.469,0.122c-2.344,0.985-4.766,1.658-7.307,1.902c-1.659,0.159-3.292,0.063-4.909-0.334
				c-1.941-0.476-3.735-1.312-5.492-2.235c-0.599-0.315-1.191-0.643-1.793-0.954c-0.312-0.161-0.646-0.086-0.809,0.155
				c-0.16,0.238-0.097,0.549,0.172,0.778c1.313,1.115,2.665,2.177,4.156,3.055c2.127,1.252,4.399,2.002,6.899,2.023
				c0.674-0.061,1.351-0.099,2.021-0.186c2.2-0.284,4.28-0.952,6.226-2.009c0.608-0.329,1.182-0.723,1.757-1.108
				c0.285-0.191,0.365-0.496,0.262-0.77C28.371,26.52,28.107,26.345,27.765,26.37z M30.667,24.036
				c-0.41-0.095-0.834-0.131-1.251-0.194c-0.669,0.055-1.334,0.079-1.95,0.345c-0.385,0.167-0.754,0.382-1.105,0.613
				c-0.192,0.126-0.264,0.35-0.162,0.585c0.097,0.223,0.284,0.308,0.517,0.283c0.332-0.034,0.662-0.1,0.994-0.117
				c0.519-0.027,1.04-0.028,1.56-0.033c0.209-0.001,0.268,0.133,0.233,0.313c-0.058,0.294-0.107,0.592-0.196,0.877
				c-0.161,0.51-0.36,1.008-0.521,1.518c-0.101,0.321,0.134,0.63,0.467,0.602c0.173-0.014,0.377-0.09,0.5-0.207
				c1.077-1.031,1.548-2.321,1.556-3.788C31.312,24.374,31.123,24.141,30.667,24.036z"/>
		</g>
	</g>
</g>
</svg>