<!-- Generator: Adobe Illustrator 18.1.1, SVG Export Plug-In  -->
<svg version="1.1"
	 xmlns="http://www.w3.org/2000/svg" xmlns:xlink="http://www.w3.org/1999/xlink" xmlns:a="http://ns.adobe.com/AdobeSVGViewerExtensions/3.0/"
	 x="0px" y="0px" width="260.815px" height="53.574px" viewBox="0 0 260.815 53.574" enable-background="new 0 0 260.815 53.574"
	 xml:space="preserve">
<defs>
</defs>
<g id="Dropdown_x5F_over_copy">
	<g>
		<path d="M3.924,42.018V20.795h2.799v3.278c1.723-2.711,4.219-4.067,7.489-4.067c2.408,0,4.283,0.666,5.623,1.998
			c1.34,1.332,2.01,3.202,2.01,5.61v14.403h-2.991V28.93c0-4.179-1.814-6.269-5.442-6.269c-4.379,0-6.569,2.76-6.569,8.278v11.078
			H3.924z"/>
		<path d="M61.8,31.49H44.933c0.08,2.504,0.67,4.538,1.771,6.101c1.276,1.803,3.102,2.704,5.479,2.704
			c3.142,0,5.495-1.699,7.058-5.096l2.704,1.483c-2.105,4.179-5.359,6.269-9.762,6.269c-3.222,0-5.79-1.093-7.704-3.278
			c-1.818-2.089-2.728-4.769-2.728-8.039c0-3.317,0.877-6.045,2.632-8.183c1.898-2.297,4.466-3.445,7.704-3.445
			c3.078,0,5.495,1.053,7.25,3.158c1.643,1.978,2.464,4.538,2.464,7.68V31.49z M58.307,28.978c-0.303-4.083-2.504-6.125-6.604-6.125
			c-1.818,0-3.322,0.562-4.51,1.687c-1.188,1.124-1.878,2.604-2.07,4.438H58.307z"/>
		<path d="M87.193,43.402l-8.478-22.607h3.092l5.525,15.279l6.672-16.403l6.65,16.412l5.545-15.288h3.093l-8.495,22.587
			l-6.734-16.874L87.193,43.402z"/>
		<path d="M174.825,20.795v17.538c0,5.057-0.326,8.278-0.98,9.666c-1.483,3.126-4.521,4.689-9.115,4.689
			c-5.631,0-8.781-2.201-9.451-6.604h3.7c0.48,2.647,2.491,3.972,6.031,3.972c3.797,0,6.023-1.476,6.681-4.426
			c0.145-0.702,0.217-1.779,0.217-3.23v-4.307c-1.41,3.238-3.965,4.857-7.664,4.857c-3.188,0-5.67-1.141-7.448-3.422
			c-1.602-2.073-2.401-4.753-2.401-8.039c0-3.27,0.832-5.958,2.498-8.063c1.81-2.281,4.309-3.421,7.496-3.421
			c1.649,0,3.146,0.415,4.492,1.244c1.409,0.861,2.418,2.034,3.027,3.517v-3.972H174.825z M164.693,22.709
			c-2.396,0-4.227,0.901-5.488,2.704c-1.087,1.579-1.63,3.621-1.63,6.125c0,2.473,0.511,4.466,1.534,5.981
			c1.182,1.787,2.947,2.68,5.296,2.68c2.444,0,4.338-0.901,5.68-2.704c1.215-1.611,1.822-3.685,1.822-6.221
			c0-2.504-0.568-4.514-1.702-6.029C168.943,23.555,167.105,22.709,164.693,22.709z"/>
		<path d="M206.408,42.951c-3.079,0-5.791-1.157-8.135-3.47c-2.186-2.153-3.278-4.833-3.278-8.039c0-3.174,1.112-5.874,3.338-8.099
			c2.225-2.226,4.917-3.338,8.075-3.338c3.222,0,5.965,1.117,8.23,3.35c2.265,2.233,3.396,4.929,3.396,8.087
			c0,3.143-1.116,5.822-3.35,8.039C212.357,41.794,209.598,42.951,206.408,42.951z M206.504,40.199c2.393,0,4.394-0.861,6.005-2.584
			c1.563-1.675,2.345-3.716,2.345-6.125c0-2.424-0.789-4.486-2.369-6.185c-1.578-1.699-3.572-2.548-5.98-2.548
			c-2.409,0-4.399,0.849-5.97,2.548c-1.571,1.698-2.356,3.76-2.356,6.185c0,2.409,0.781,4.45,2.344,6.125
			C202.117,39.338,204.111,40.199,206.504,40.199z"/>
		<path d="M253.973,42.018v-3.876c-1.42,3.206-3.884,4.81-7.394,4.81c-3.205,0-5.726-1.125-7.561-3.374
			c-1.723-2.089-2.584-4.769-2.584-8.039c0-3.19,0.83-5.862,2.488-8.015c1.818-2.345,4.275-3.517,7.369-3.517
			c3.669,0,6.229,1.555,7.681,4.666V4.933h2.991v37.085H253.973z M239.688,31.634c0,2.552,0.542,4.57,1.625,6.053
			c1.226,1.675,3.064,2.512,5.518,2.512c2.437,0,4.283-0.949,5.541-2.847c1.067-1.611,1.601-3.7,1.601-6.269
			c0-2.44-0.558-4.402-1.672-5.886c-1.258-1.659-3.065-2.488-5.422-2.488c-2.421,0-4.268,0.917-5.542,2.751
			C240.238,27.04,239.688,29.098,239.688,31.634z"/>
	</g>
</g>
</svg>