<!-- Generator: Adobe Illustrator 18.1.1, SVG Export Plug-In  -->
<svg version="1.1"
	 xmlns="http://www.w3.org/2000/svg" xmlns:xlink="http://www.w3.org/1999/xlink" xmlns:a="http://ns.adobe.com/AdobeSVGViewerExtensions/3.0/"
	 x="0px" y="0px" width="132.789px" height="14.619px" viewBox="0 0 132.789 14.619" enable-background="new 0 0 132.789 14.619"
	 xml:space="preserve">
<defs>
</defs>
<g>
	<path d="M0,11.353V4.856h0.857v1.003c0.527-0.83,1.291-1.245,2.292-1.245c0.737,0,1.312,0.204,1.722,0.611
		c0.41,0.408,0.615,0.98,0.615,1.718v4.409H4.57V7.346c0-1.279-0.556-1.919-1.666-1.919c-1.341,0-2.011,0.845-2.011,2.534v3.391H0z"
		/>
	<path d="M25.999,8.13h-5.163c0.023,0.767,0.205,1.389,0.541,1.868c0.391,0.552,0.95,0.828,1.678,0.828
		c0.962,0,1.682-0.52,2.16-1.56l0.828,0.454c-0.645,1.279-1.641,1.919-2.988,1.919c-0.986,0-1.772-0.334-2.358-1.003
		c-0.557-0.64-0.835-1.46-0.835-2.461c0-1.016,0.269-1.851,0.806-2.505c0.581-0.703,1.367-1.055,2.358-1.055
		c0.942,0,1.682,0.322,2.219,0.967c0.503,0.605,0.755,1.389,0.755,2.351V8.13z M24.93,7.361c-0.093-1.25-0.767-1.875-2.021-1.875
		c-0.557,0-1.017,0.172-1.381,0.516c-0.363,0.345-0.574,0.797-0.633,1.359H24.93z"/>
	<path d="M42.054,11.776l-2.595-6.92h0.946l1.691,4.677l2.042-5.021l2.036,5.024l1.697-4.68h0.946l-2.6,6.915l-2.062-5.166
		L42.054,11.776z"/>
	<path d="M91.084,4.856v5.369c0,1.548-0.101,2.534-0.301,2.959c-0.454,0.957-1.385,1.436-2.791,1.436
		c-1.724,0-2.688-0.674-2.893-2.021h1.133c0.147,0.811,0.763,1.216,1.847,1.216c1.162,0,1.844-0.452,2.045-1.355
		c0.044-0.215,0.065-0.544,0.065-0.989v-1.318c-0.431,0.991-1.213,1.487-2.346,1.487c-0.976,0-1.735-0.349-2.279-1.047
		c-0.49-0.635-0.736-1.455-0.736-2.461c0-1.001,0.255-1.824,0.766-2.468c0.554-0.698,1.318-1.047,2.294-1.047
		c0.505,0,0.964,0.127,1.376,0.381c0.431,0.264,0.74,0.623,0.926,1.077V4.856H91.084z M87.981,5.442
		c-0.733,0-1.294,0.276-1.68,0.828c-0.333,0.483-0.499,1.108-0.499,1.875c0,0.757,0.156,1.367,0.47,1.831
		c0.361,0.547,0.902,0.82,1.621,0.82c0.748,0,1.328-0.276,1.739-0.828c0.371-0.493,0.557-1.128,0.557-1.904
		c0-0.767-0.173-1.382-0.521-1.846C89.282,5.701,88.72,5.442,87.981,5.442z"/>
	<path d="M109.032,11.638c-0.942,0-1.771-0.354-2.49-1.062c-0.669-0.659-1.003-1.479-1.003-2.461c0-0.972,0.341-1.798,1.021-2.479
		c0.682-0.681,1.505-1.021,2.472-1.021c0.986,0,1.826,0.342,2.52,1.025s1.041,1.509,1.041,2.476c0,0.962-0.343,1.782-1.025,2.461
		C110.854,11.284,110.009,11.638,109.032,11.638z M109.062,10.796c0.732,0,1.346-0.264,1.839-0.791
		c0.479-0.513,0.718-1.138,0.718-1.875c0-0.742-0.242-1.373-0.725-1.894c-0.484-0.52-1.095-0.78-1.832-0.78s-1.346,0.26-1.827,0.78
		c-0.48,0.521-0.722,1.151-0.722,1.894c0,0.737,0.239,1.362,0.719,1.875C107.719,10.532,108.329,10.796,109.062,10.796z"/>
	<path d="M131.874,11.353v-1.187c-0.435,0.981-1.189,1.472-2.263,1.472c-0.982,0-1.754-0.344-2.314-1.033
		c-0.527-0.64-0.791-1.46-0.791-2.461c0-0.977,0.253-1.794,0.762-2.454c0.557-0.718,1.308-1.077,2.256-1.077
		c1.122,0,1.906,0.476,2.351,1.428V0h0.915v11.353H131.874z M127.502,8.174c0,0.781,0.165,1.399,0.497,1.853
		c0.375,0.513,0.938,0.769,1.688,0.769c0.746,0,1.312-0.291,1.696-0.872c0.327-0.493,0.49-1.133,0.49-1.919
		c0-0.747-0.171-1.348-0.512-1.802c-0.386-0.508-0.938-0.762-1.66-0.762c-0.741,0-1.307,0.281-1.696,0.842
		C127.67,6.768,127.502,7.397,127.502,8.174z"/>
</g>
</svg>