<!-- Generator: Adobe Illustrator 18.1.1, SVG Export Plug-In  -->
<svg version="1.1"
	 xmlns="http://www.w3.org/2000/svg" xmlns:xlink="http://www.w3.org/1999/xlink" xmlns:a="http://ns.adobe.com/AdobeSVGViewerExtensions/3.0/"
	 x="0px" y="0px" width="554.332px" height="26.24px" viewBox="0 0 554.332 26.24" enable-background="new 0 0 554.332 26.24"
	 xml:space="preserve">
<defs>
</defs>
<g>
	<path fill="#0A00DF" d="M16.425,7.736c-1.434-2.188-3.463-3.281-6.085-3.281c-2.227,0-4.013,0.75-5.36,2.25
		c-1.292,1.438-1.938,3.27-1.938,5.496c0,2.117,0.705,3.887,2.116,5.309c1.378,1.391,3.106,2.086,5.182,2.086
		c1.917,0,3.486-0.547,4.707-1.641c1.26-1.125,1.906-2.625,1.938-4.5h-6.002v-1.348h7.737v0.188c0,2.695-0.733,4.816-2.199,6.363
		c-1.506,1.586-3.613,2.379-6.323,2.379c-2.686,0-4.841-0.844-6.465-2.531c-1.593-1.648-2.389-3.805-2.389-6.469
		c0-2.562,0.8-4.684,2.4-6.363c1.68-1.758,3.807-2.637,6.382-2.637c3.582,0,6.065,1.238,7.452,3.715L16.425,7.736z"/>
	<path fill="#0A00DF" d="M33.324,15.424h-8.379c0.04,1.227,0.333,2.223,0.88,2.988c0.634,0.883,1.541,1.324,2.722,1.324
		c1.561,0,2.729-0.832,3.506-2.496l1.343,0.727c-1.046,2.047-2.663,3.07-4.849,3.07c-1.601,0-2.876-0.535-3.827-1.605
		c-0.903-1.023-1.355-2.336-1.355-3.938c0-1.625,0.436-2.961,1.307-4.008c0.943-1.125,2.219-1.688,3.827-1.688
		c1.529,0,2.729,0.516,3.601,1.547c0.816,0.969,1.225,2.223,1.225,3.762V15.424z M31.588,14.193c-0.151-2-1.244-3-3.28-3
		c-0.903,0-1.65,0.275-2.24,0.826c-0.591,0.551-0.933,1.275-1.028,2.174H31.588z"/>
	<path fill="#0A00DF" d="M39.109,11.416h-1.938v-1.23h1.938V5.92h1.45v4.266h2.104v1.23h-2.104v9.164h-1.45V11.416z"/>
	<path fill="#0A00DF" d="M57.027,11.416H55.09v-1.23h1.938V5.92h1.45v4.266h2.104v1.23h-2.104v9.164h-1.45V11.416z"/>
	<path fill="#0A00DF" d="M65.19,20.58V2.416h1.391v9.375c0.855-1.328,2.096-1.992,3.72-1.992c1.196,0,2.127,0.326,2.793,0.979
		c0.666,0.652,0.999,1.568,0.999,2.748v7.055h-1.486v-6.41c0-2.047-0.901-3.07-2.703-3.07c-2.175,0-3.263,1.352-3.263,4.055v5.426
		H65.19z"/>
	<path fill="#0A00DF" d="M89.362,15.424h-8.379c0.04,1.227,0.333,2.223,0.88,2.988c0.634,0.883,1.541,1.324,2.722,1.324
		c1.561,0,2.729-0.832,3.506-2.496l1.343,0.727c-1.046,2.047-2.663,3.07-4.849,3.07c-1.601,0-2.876-0.535-3.827-1.605
		c-0.903-1.023-1.355-2.336-1.355-3.938c0-1.625,0.436-2.961,1.307-4.008c0.943-1.125,2.219-1.688,3.827-1.688
		c1.529,0,2.729,0.516,3.601,1.547c0.816,0.969,1.225,2.223,1.225,3.762V15.424z M87.627,14.193c-0.151-2-1.244-3-3.28-3
		c-0.903,0-1.65,0.275-2.24,0.826c-0.591,0.551-0.933,1.275-1.028,2.174H87.627z"/>
	<path fill="#0A00DF" d="M108.825,20.58V4.982h-3.138l0.749-1.395h3.922V20.58H108.825z"/>
	<path fill="#0A00DF" d="M130.834,19.232v1.348h-11.18l4.89-5.288c3.1-3.319,4.65-5.709,4.65-7.17c0-1.07-0.373-1.925-1.117-2.565
		c-0.713-0.609-1.621-0.914-2.722-0.914c-1.212,0-2.155,0.383-2.829,1.148c-0.634,0.727-0.951,1.695-0.951,2.906h-1.557V8.533
		c0-1.656,0.495-2.951,1.486-3.885c0.99-0.934,2.329-1.4,4.017-1.4c1.569,0,2.84,0.406,3.815,1.219
		c1.046,0.859,1.569,2.047,1.569,3.562c0,1.711-1.367,4.062-4.1,7.055l-0.107,0.117l-3.827,4.031H130.834z"/>
	<path fill="#0A00DF" d="M136.513,9.354l2.294-6.316l1.783,0.762l-3.126,5.93L136.513,9.354z M140.34,9.354l2.317-6.316l1.771,0.762
		l-3.114,5.93L140.34,9.354z"/>
	<path fill="#0A00DF" d="M159.719,20.58V3.424h8.617v1.465H161.3v5.367h7.036v1.465H161.3v7.395h7.036v1.465H159.719z"/>
	<path fill="#0A00DF" d="M176.035,20.58h-1.509V2.416h1.509V20.58z"/>
	<path fill="#0A00DF" d="M191.52,15.424h-8.379c0.04,1.227,0.333,2.223,0.88,2.988c0.634,0.883,1.541,1.324,2.722,1.324
		c1.561,0,2.729-0.832,3.506-2.496l1.343,0.727c-1.046,2.047-2.663,3.07-4.849,3.07c-1.601,0-2.876-0.535-3.827-1.605
		c-0.903-1.023-1.355-2.336-1.355-3.938c0-1.625,0.436-2.961,1.307-4.008c0.943-1.125,2.219-1.688,3.827-1.688
		c1.529,0,2.729,0.516,3.601,1.547c0.816,0.969,1.225,2.223,1.225,3.762V15.424z M189.784,14.193c-0.151-2-1.244-3-3.28-3
		c-0.903,0-1.65,0.275-2.24,0.826c-0.591,0.551-0.933,1.275-1.028,2.174H189.784z"/>
	<path fill="#0A00DF" d="M205.197,12.084c-0.982-0.672-2.076-1.008-3.28-1.008c-1.347,0-2.405,0.43-3.173,1.289
		c-0.745,0.82-1.117,1.902-1.117,3.246c0,1.234,0.402,2.242,1.207,3.023c0.804,0.781,1.832,1.172,3.084,1.172
		c1.172,0,2.321-0.391,3.447-1.172v1.582c-1.03,0.578-2.27,0.867-3.72,0.867c-1.632,0-2.958-0.523-3.976-1.57
		s-1.527-2.379-1.527-3.996c0-1.703,0.535-3.082,1.604-4.137c1.07-1.055,2.468-1.582,4.196-1.582c1.283,0,2.377,0.234,3.28,0.703
		L205.197,12.084z"/>
	<path fill="#0A00DF" d="M210.84,11.416h-1.938v-1.23h1.938V5.92h1.45v4.266h2.104v1.23h-2.104v9.164h-1.45V11.416z"/>
	<path fill="#0A00DF" d="M220.452,12.271c0.993-1.648,2.129-2.473,3.408-2.473c0.397,0,0.814,0.074,1.251,0.223l-0.477,1.359
		c-0.374-0.109-0.703-0.164-0.989-0.164c-1.009,0-1.815,0.48-2.419,1.441c-0.517,0.82-0.775,1.758-0.775,2.812v5.109h-1.45V10.186
		h1.45V12.271z"/>
	<path fill="#0A00DF" d="M228.829,6.131c0-0.305,0.111-0.564,0.333-0.779c0.222-0.215,0.487-0.322,0.796-0.322
		c0.309,0,0.577,0.107,0.802,0.322c0.226,0.215,0.339,0.475,0.339,0.779c0,0.32-0.109,0.584-0.327,0.791
		c-0.218,0.207-0.489,0.311-0.814,0.311c-0.317,0-0.584-0.105-0.802-0.316C228.938,6.705,228.829,6.443,228.829,6.131z
		 M229.198,20.58V10.186h1.509V20.58H229.198z"/>
	<path fill="#0A00DF" d="M245.335,12.084c-0.982-0.672-2.076-1.008-3.28-1.008c-1.347,0-2.405,0.43-3.173,1.289
		c-0.745,0.82-1.117,1.902-1.117,3.246c0,1.234,0.402,2.242,1.207,3.023c0.804,0.781,1.832,1.172,3.084,1.172
		c1.172,0,2.321-0.391,3.447-1.172v1.582c-1.03,0.578-2.27,0.867-3.72,0.867c-1.632,0-2.958-0.523-3.976-1.57
		s-1.527-2.379-1.527-3.996c0-1.703,0.535-3.082,1.604-4.137c1.07-1.055,2.468-1.582,4.196-1.582c1.283,0,2.377,0.234,3.28,0.703
		L245.335,12.084z"/>
	<path fill="#0A00DF" d="M260.33,20.58V3.424h3.019c1.054,0,1.806,0.027,2.258,0.082c0.887,0.117,1.589,0.367,2.104,0.75
		c1.18,0.875,1.771,2.086,1.771,3.633c0,0.898-0.233,1.664-0.701,2.297c-0.483,0.656-1.157,1.09-2.021,1.301
		c1.117,0.164,1.993,0.604,2.627,1.318c0.634,0.715,0.951,1.627,0.951,2.736c0,1.602-0.495,2.855-1.486,3.762
		c-0.642,0.586-1.505,0.965-2.591,1.137c-0.562,0.094-1.525,0.141-2.888,0.141H260.33z M261.91,11.053h1.977
		c1.31,0,2.263-0.184,2.858-0.552c0.747-0.47,1.12-1.303,1.12-2.501c0-1.268-0.354-2.145-1.06-2.63
		c-0.58-0.399-1.553-0.599-2.918-0.599h-1.977V11.053z M261.91,19.232h2.021c1.775,0,2.936-0.207,3.482-0.621
		c0.816-0.617,1.224-1.535,1.224-2.754c0-1.445-0.463-2.438-1.391-2.977c-0.546-0.32-1.537-0.48-2.971-0.48h-2.365V19.232z"/>
	<path fill="#0A00DF" d="M277.62,20.58h-1.509V2.416h1.509V20.58z"/>
	<path fill="#0A00DF" d="M285.497,10.186v5.191c0,1.367,0.159,2.363,0.477,2.988c0.452,0.883,1.294,1.324,2.524,1.324
		c1.223,0,2.064-0.445,2.525-1.336c0.333-0.633,0.5-1.625,0.5-2.977v-5.191h1.45v5.93c0,3.281-1.482,4.922-4.445,4.922
		c-2.987,0-4.48-1.641-4.48-4.922v-5.93H285.497z"/>
	<path fill="#0A00DF" d="M308.363,15.424h-8.38c0.04,1.227,0.333,2.223,0.88,2.988c0.634,0.883,1.541,1.324,2.722,1.324
		c1.561,0,2.729-0.832,3.506-2.496l1.343,0.727c-1.045,2.047-2.662,3.07-4.849,3.07c-1.601,0-2.876-0.535-3.827-1.605
		c-0.903-1.023-1.355-2.336-1.355-3.938c0-1.625,0.436-2.961,1.307-4.008c0.943-1.125,2.219-1.688,3.827-1.688
		c1.529,0,2.729,0.516,3.601,1.547c0.817,0.969,1.225,2.223,1.225,3.762V15.424z M306.627,14.193c-0.151-2-1.244-3-3.28-3
		c-0.903,0-1.65,0.275-2.24,0.826c-0.591,0.551-0.933,1.275-1.028,2.174H306.627z"/>
	<path fill="#0A00DF" d="M327.931,21.247l-6.809-17.823h1.816l5.014,13.959l5.281-13.959h1.734L327.931,21.247z"/>
	<path fill="#0A00DF" d="M338.852,6.131c0-0.305,0.11-0.564,0.333-0.779c0.222-0.215,0.487-0.322,0.796-0.322
		c0.31,0,0.577,0.107,0.802,0.322c0.227,0.215,0.34,0.475,0.34,0.779c0,0.32-0.109,0.584-0.327,0.791s-0.489,0.311-0.814,0.311
		c-0.317,0-0.584-0.105-0.802-0.316C338.96,6.705,338.852,6.443,338.852,6.131z M339.22,20.58V10.186h1.51V20.58H339.22z"/>
	<path fill="#0A00DF" d="M347.158,20.58V10.186h1.391v1.605c0.855-1.328,2.096-1.992,3.719-1.992c1.197,0,2.128,0.326,2.793,0.979
		c0.666,0.652,0.999,1.568,0.999,2.748v7.055h-1.485v-6.41c0-2.047-0.901-3.07-2.703-3.07c-2.176,0-3.264,1.352-3.264,4.055v5.426
		H347.158z"/>
	<path fill="#0A00DF" d="M360.835,10.186h1.554l3.024,8.131l2.776-8.131h1.559l-5.455,15.621h-1.509l1.84-5.302L360.835,10.186z"/>
	<path fill="#0A00DF" d="M376.117,20.58h-1.51V2.416h1.51V20.58z"/>
	<path fill="#0A00DF" d="M401.047,15.424h-8.38c0.04,1.227,0.334,2.223,0.881,2.988c0.633,0.883,1.54,1.324,2.721,1.324
		c1.561,0,2.73-0.832,3.506-2.496l1.344,0.727c-1.046,2.047-2.662,3.07-4.85,3.07c-1.6,0-2.876-0.535-3.826-1.605
		c-0.904-1.023-1.355-2.336-1.355-3.938c0-1.625,0.436-2.961,1.307-4.008c0.943-1.125,2.219-1.688,3.828-1.688
		c1.529,0,2.729,0.516,3.601,1.547c0.816,0.969,1.225,2.223,1.225,3.762V15.424z M399.312,14.193c-0.15-2-1.244-3-3.28-3
		c-0.903,0-1.65,0.275-2.24,0.826c-0.591,0.551-0.933,1.275-1.028,2.174H399.312z"/>
	<path fill="#0A00DF" d="M404.96,10.186h1.812l2.579,3.82l2.579-3.82h1.784l-3.556,4.992l3.923,5.402h-1.798l-2.957-4.194
		l-2.912,4.194h-1.83l3.953-5.411L404.96,10.186z"/>
	<path fill="#0A00DF" d="M426.75,12.084c-0.982-0.672-2.076-1.008-3.28-1.008c-1.347,0-2.405,0.43-3.173,1.289
		c-0.746,0.82-1.117,1.902-1.117,3.246c0,1.234,0.401,2.242,1.206,3.023c0.804,0.781,1.832,1.172,3.084,1.172
		c1.173,0,2.321-0.391,3.446-1.172v1.582c-1.029,0.578-2.27,0.867-3.72,0.867c-1.632,0-2.958-0.523-3.976-1.57
		s-1.527-2.379-1.527-3.996c0-1.703,0.535-3.082,1.604-4.137s2.468-1.582,4.196-1.582c1.283,0,2.377,0.234,3.279,0.703
		L426.75,12.084z"/>
	<path fill="#0A00DF" d="M433.689,20.58h-1.51V2.416h1.51V20.58z"/>
	<path fill="#0A00DF" d="M441.566,10.186v5.191c0,1.367,0.158,2.363,0.477,2.988c0.451,0.883,1.293,1.324,2.523,1.324
		c1.223,0,2.064-0.445,2.525-1.336c0.334-0.633,0.5-1.625,0.5-2.977v-5.191h1.45v5.93c0,3.281-1.481,4.922-4.445,4.922
		c-2.987,0-4.48-1.641-4.48-4.922v-5.93H441.566z"/>
	<path fill="#0A00DF" d="M454.185,18.729l1.391-0.785c0.46,1.164,1.327,1.746,2.604,1.746c0.578,0,1.049-0.137,1.414-0.41
		c0.404-0.305,0.605-0.734,0.605-1.289c0-0.797-0.717-1.473-2.15-2.027c-0.088-0.039-0.207-0.086-0.357-0.141
		c-0.935-0.367-1.611-0.723-2.031-1.066c-0.643-0.523-0.963-1.176-0.963-1.957c0-0.93,0.336-1.676,1.01-2.238
		c0.643-0.523,1.442-0.785,2.4-0.785c1.76,0,2.928,0.707,3.507,2.121l-1.343,0.738c-0.342-1.008-1.094-1.512-2.258-1.512
		c-0.484,0-0.889,0.137-1.213,0.41c-0.356,0.289-0.535,0.664-0.535,1.125c0,0.547,0.297,0.996,0.892,1.348
		c0.261,0.156,0.8,0.371,1.616,0.645c1.006,0.344,1.715,0.711,2.127,1.102c0.539,0.508,0.809,1.223,0.809,2.145
		c0,1.031-0.389,1.828-1.164,2.391c-0.689,0.5-1.573,0.75-2.65,0.75C456.015,21.037,454.78,20.268,454.185,18.729z"/>
	<path fill="#0A00DF" d="M466.829,6.131c0-0.305,0.11-0.564,0.333-0.779c0.222-0.215,0.487-0.322,0.796-0.322
		c0.31,0,0.577,0.107,0.802,0.322c0.227,0.215,0.34,0.475,0.34,0.779c0,0.32-0.109,0.584-0.327,0.791s-0.489,0.311-0.814,0.311
		c-0.317,0-0.584-0.105-0.802-0.316C466.937,6.705,466.829,6.443,466.829,6.131z M467.197,20.58V10.186h1.51V20.58H467.197z"/>
	<path fill="#0A00DF" d="M473.553,10.186h1.604l3.234,7.869l3.217-7.869h1.631l-4.85,11.062L473.553,10.186z"/>
	<path fill="#0A00DF" d="M497.012,15.424h-8.38c0.04,1.227,0.334,2.223,0.881,2.988c0.633,0.883,1.54,1.324,2.721,1.324
		c1.561,0,2.73-0.832,3.506-2.496l1.344,0.727c-1.046,2.047-2.662,3.07-4.85,3.07c-1.6,0-2.876-0.535-3.826-1.605
		c-0.904-1.023-1.355-2.336-1.355-3.938c0-1.625,0.436-2.961,1.307-4.008c0.943-1.125,2.219-1.688,3.828-1.688
		c1.529,0,2.729,0.516,3.601,1.547c0.816,0.969,1.225,2.223,1.225,3.762V15.424z M495.277,14.193c-0.15-2-1.244-3-3.28-3
		c-0.903,0-1.65,0.275-2.24,0.826c-0.591,0.551-0.933,1.275-1.028,2.174H495.277z"/>
	<path fill="#0A00DF" d="M504.093,20.58h-1.51V2.416h1.51V20.58z"/>
	<path fill="#0A00DF" d="M509.083,10.186h1.554l3.024,8.131l2.776-8.131h1.559l-5.455,15.621h-1.509l1.84-5.302L509.083,10.186z"/>
	<path fill="#0A00DF" d="M540.015,20.58v-1.898c-0.715,1.57-1.947,2.355-3.701,2.355c-1.596,0-2.849-0.551-3.762-1.652
		c-0.856-1.023-1.285-2.336-1.285-3.938c0-1.562,0.413-2.871,1.238-3.926c0.904-1.148,2.127-1.723,3.666-1.723
		c1.84,0,3.121,0.762,3.844,2.285v-1.898h1.449V20.58H540.015z M532.884,15.494c0,1.25,0.27,2.238,0.808,2.965
		c0.61,0.82,1.525,1.23,2.745,1.23c1.221,0,2.145-0.461,2.77-1.383c0.539-0.797,0.809-1.824,0.809-3.082
		c0-1.195-0.285-2.156-0.855-2.883c-0.627-0.812-1.525-1.219-2.698-1.219c-1.204,0-2.124,0.449-2.757,1.348
		C533.158,13.244,532.884,14.252,532.884,15.494z"/>
	<path fill="#0A00DF" d="M548.119,11.416h-1.938v-1.23h1.938V5.92h1.449v4.266h2.104v1.23h-2.104v9.164h-1.449V11.416z"/>
</g>
</svg>