<!-- Generator: Adobe Illustrator 18.1.1, SVG Export Plug-In  -->
<svg version="1.1"
	 xmlns="http://www.w3.org/2000/svg" xmlns:xlink="http://www.w3.org/1999/xlink" xmlns:a="http://ns.adobe.com/AdobeSVGViewerExtensions/3.0/"
	 x="0px" y="0px" width="425.3px" height="497.8px" viewBox="0 0 425.3 497.8" enable-background="new 0 0 425.3 497.8"
	 xml:space="preserve">
<defs>
</defs>
<g>
	<path d="M181.9,357c-0.9-0.9-2.6-0.8-2.4-2.7c1.6-0.6,1.7-1.9,1.7-3.6c-0.1-1.3,0.7-2.6,1-3.9c0.1-0.4,0-0.9,0-1.4
		c-0.2,0-0.3,0-0.5-0.1c-0.3,0.6-0.6,1.1-1,1.9c-0.3-0.5-0.6-0.9-0.8-1.3c-0.4-0.9-1.1-1.2-1.9-1.1c-1.2,0.2-2.1-0.4-3.1-0.9
		c-1.3-0.6-2.6-1.3-4-1.6c-3.3-0.7-6.7-1.3-10.1-1.9c-0.5-0.1-1.1-0.2-1.6-0.4c-1.9-0.8-1.9-0.9-3,0.9c-0.1,0.2-0.3,0.3-0.6,0.7
		c-0.1-0.8,0-1.4-0.2-1.8c-0.3-0.6-0.7-1.3-1.3-1.5c-2.3-1-4.6-1.9-6.9-2.6c-2.9-1-6-1.7-8.9-2.7c-3.7-1.2-7.5-2.1-10.9-4.1
		c-1.4-0.8-3.3-0.8-5.1-1.1c-1.7-0.3-3.5-0.4-5.2-0.6c-2.5-0.3-4.5-1.5-6.5-2.8c-1.7-1-3.6-1.7-5.5-2.2c-2.9-0.7-6-1.1-8.9-1.8
		c-2-0.5-4-1.5-5.9-2.4c-0.5-0.2-1-0.8-1.3-1.3c-0.7-0.9-0.7-0.9-2.2-1c-0.5,0.8,0,1.4,0.5,1.8c2.1,1.6,4,3.5,6.9,3.6
		c1.2,0,2.4,0.4,3.4,1.4c1.1,1,2.7,1.4,4.1,2c5.1,2,10.2,3.7,15.2,6c3.1,1.4,6.2,2.5,9.5,3.1c1.5,0.3,2.2,0.9,2.1,1.8
		c-0.1,1-1.7,2.1-2.8,1.6c-3.4-1.3-7.2-1.3-10.2-3.8c-0.3-0.3-0.7-0.5-1-0.6c-2.9-0.4-5.4-1.9-7.9-3.2c-1-0.5-2.1-0.7-3.1-1.1
		c-3.3-1.2-6.6-2.5-9.8-3.7c-0.4-0.1-0.7-0.3-1.1-0.4c-1.2-0.2-1.9,0.3-1.4,1.4c0.8,2.1,0.7,4.4,2.1,6.3c0.6,0.8,0.7,2.1,0.7,3.2
		c0,3.3-0.3,6.5-0.3,9.8c0,2.4,0.1,4.8,0.2,7.2c0,0.3,0.1,0.7-0.1,1c-1.2,2.6-0.2,5.3-0.3,8c-0.1,4.3,0,8.7-0.6,12.9
		c-0.5,3.3-1.5,6.6-3.2,9.7c-1.4,2.5-2,5.5-3,8.3c-0.9,2.5-1.8,5-2.8,7.3c-1.2,2.6-2.7,5.1-3.9,7.7c-0.5,1-0.4,2.2-0.9,3.2
		c-1.3,2.4-2.2,4.9-4.1,7c-1.3,1.4-2.4,3-3.5,4.5c-1.3,1.8-3.1,2.7-5,3.5c-1.9,0.8-3.6,1.9-5.7,3c0.7,0.4,1.1,0.7,1.5,0.8
		c2.2,0.1,4.4,0,6.6,0.2c2.1,0.2,4.2,0.9,6.3,1.3c3.4,0.7,6.9,1.2,10.3,2c2.4,0.6,4.7,1.5,7,2.4c1.9,0.7,3.6,1.7,5.7,1.5
		c0.4,0,0.8,0.1,1.2,0.2c3.7,1.1,7.3,2.2,11,3.3c0.3,0.1,0.6,0.2,0.9,0.3c2.5,1.2,5.2,1.6,7.9,1.8c1.5,0.1,3,0.5,4.4,1
		c2.7,1.1,5.2,2.4,7.8,3.6c1.5,0.7,3.1,1.2,4.7,1.8c0.7,0.3,1.5,0.6,2.1,1.1c2.6,2.1,5.5,3,8.8,3.3c1.8,0.1,3.7,0.9,5.4,1.8
		c2.7,1.3,5.4,1.9,8.3,1.8c3.3-0.1,6.3,1,8.9,3c2.6,1.9,5.6,2.6,8.6,3.7c1.3,0.5,2.8,0.9,3.9,1.7c3.4,2.5,7.4,3.2,11.1,4.9
		c0.5,0.2,1.2,0,1.9,0c1.2,0,2.4,0.8,2.4,1.8c0,1-1,2-2.4,1.8c-2.4-0.5-4.8-1.1-7.1-2c-2.1-0.8-4-2-6.1-2.9
		c-3.2-1.3-6.6-2.5-9.8-3.8c-1.3-0.5-2.7-1.1-3.8-1.9c-2.7-2.2-5.7-3.3-9.2-3.4c-1.6,0-3.1-0.6-4.7-0.7c-1.3-0.1-2.6,0-4.2,0
		c-0.4-2.2-2.5-2.5-4.4-2.8c-3.2-0.7-6.3-1.6-9.2-3.2c-1.4-0.7-3-1.1-4.5-1.4c-1-0.2-1.7-0.6-2.5-1.2c-1.9-1.3-4-2.3-6-3.3
		c-2-1-4.1-1.5-6.4-1.7c-2-0.2-4-1.1-6-1.6c-3-0.9-6-1.6-8.9-2.7c-2.8-1-5.6-2-8.5-2.6c-2.4-0.5-4.7-1.9-7.1-2.9
		c-0.9-0.3-1.8-0.5-2.8-0.6c-4.3-0.5-8.5-1.1-12.7-2.2c-2.2-0.6-4.6-0.4-6.9-0.5c-0.9,0-1.8,0.1-2.6,0c-1.4-0.1-2.7,0.3-3.8,1.2
		c-0.3,0.3-0.6,0.5-1,0.7c-0.8,0.5-1.7,1.1-2.6,0.1c-0.6-0.8-0.1-3.1,0.9-3.3c1.9-0.4,2.7-1.3,2.9-3.2c0.1-0.5,1.1-1.2,1.8-1.3
		c3.6-0.7,6.1-3.4,9.1-5.2c1.1-0.6,2.1-1.8,2.8-2.9c2.1-3.2,4.2-6.4,5.1-10.2c0.7-3,2.2-5.7,4.2-8c2-2.4,3-5.1,3.3-8.1
		c0.4-3,1.6-5.8,2.9-8.3c2.1-3.8,2.9-7.7,3-11.9c0.1-2.7,0.2-5.4,0.2-8.1c0-3.7-0.1-7.3,0.6-10.9c0.3-1.8-0.3-3.8-0.4-5.7
		c0-0.5-0.1-0.9-0.1-1.4c0.3-5.5,0.7-11-1.8-16.2c0-0.1-0.1-0.1-0.1-0.2c0.2-3.1-1.8-5.3-3-7.9c-0.3-0.6-0.7-1.1-1-1.6
		c-0.7-1.4-1.5-2.8-1.9-4.4c-0.5-1.7,0.1-2.6,1.9-2.8c1.4-0.2,2.9-0.2,4.3-0.2c2,0,4,0.1,6-0.1c4.4-0.4,8.9-1,13.1-2.7
		c0.3-0.1,0.6-0.2,0.9-0.4c3.2-2.5,6.8-2.9,10.7-2.6c2.3,0.2,4.6-0.2,6.9-0.6c1.9-0.4,4-0.3,6-0.5c1.6-0.2,3.1-0.5,4.7-0.7
		c3.2-0.4,6.2-1.4,9.2-2.2c2.4-0.6,5.1-0.1,7.6-0.2c1.1,0,2.2-0.1,3.3-0.3c4.6-1.1,9.1-2.2,13.9-2.3c1.5,0,2.9-0.7,4.3-1.3
		c1.1-0.4,1.7-1.3,1.9-2.6c-0.4-0.3-0.7-0.6-1.1-0.8c-3.1-1.7-6.2-3.3-9.3-5c-2-1.1-3.8-2.3-5.8-3.3c-1.8-0.9-3.6-1.7-5.4-2.5
		c-2.8-1.2-5.6-2.4-8.4-3.5c-1.6-0.6-3.2-1.1-4.8-1.6c-2.1-0.6-4.3-1.3-6.4-1.8c-3.5-0.8-7-1.7-10.6-1.7c-2.1,0-4.3-0.4-6.4-0.2
		c-3.5,0.3-7-0.4-10.5,0.4c-2.8,0.7-5.7,0.8-8.5,1.2c-0.2,0-0.5,0-0.7,0.1c-3.3,1.9-7.7,1.7-10.3,5.2c-0.3,0.5-1.1,0.7-1.6,0.9
		c-0.2,0.1-0.5,0.1-0.7,0.1c-3.4,0.2-6.9,0.6-10.3,0.4c-3.4-0.2-6.8-0.8-10-2.2c-0.7-0.3-1.5-0.5-2.2-0.8c-1.5-0.6-3.1-1.2-4.6-2
		c-3-1.5-6-3.1-8.9-4.6c-0.3-0.1-0.6-0.2-0.8-0.4c-2.6-2.5-5.2-4.9-7.8-7.4c-2.4-2.3-4.8-4.7-7.2-7c-0.4-0.4-0.9-0.9-1.2-1.4
		c-1-1.3-2-2.7-2.9-4.1c-0.4-0.5-0.8-1-1-1.6c-1.8-3.9-3.9-7.7-6.6-11.1c-1.7-2.2-3.4-4.4-5.2-6.5c-2-2.3-4.1-4.5-6.2-6.7
		c-3.4-3.6-6.5-7.4-8.7-11.9c-0.3-0.6-0.8-1.2-1.2-1.8c-0.3-0.4-0.8-0.8-1.1-1.3c-1-1.3-1.2-2.7-0.4-3.3c1.2-0.9,2.1,0,3,0.6
		c1.8,1.1,3.5,2.2,5.2,3.4c1.1,0.8,2.2,1.6,3.2,2.6c2.8,2.8,5.4,5.6,8.2,8.4c2,2,4,3.9,6,5.9c0.4,0.4,1,0.7,1.6,1
		c1,0.6,2.2,1,3.1,1.7c2.5,1.9,4.9,4.1,7.4,6c1.6,1.2,3.5,2,5.1,3.1c4.4,3.1,9.4,5.1,14.1,7.7c0.4,0.2,0.9,0.4,1.4,0.4
		c4.8,0.6,9.6,1.6,14.3,3c2.7,0.8,5.6,0.6,8.3,0.2c2.4-0.4,4.8-1.1,7.2-1.7c1.9-0.5,3.7-0.9,5.6-1.4c1-0.3,2-0.6,2.9-1
		c4.3-2,8.7-3.6,13.1-5.1c5-1.7,10.2-2.4,15.3-3.7c2.3-0.6,4.8-0.4,7.2-0.2c2.8,0.2,5.5,0.9,8.2,1.4c4.2,0.9,7.3,3.6,10.3,6.3
		c3.5,3.2,6.9,6.5,9.3,10.6c0.4,0.6,0.9,1.2,1.1,1.8c1.8,5.2,4.7,9.9,7.5,14.6c2,3.4,4.3,6.5,6.4,9.8c0.5,0.7,0.9,1.5,1.1,2.4
		c0.8,2.5,2.4,4.3,4.2,6c1,0.9,2.1,1.3,3.5,1c1.4-0.3,2.9-0.4,4.3-0.6c0.4-3.1-0.6-5.8-1.4-8.4c-0.9-2.8-1.9-5.6-3-8.3
		c-1-2.6-2.3-5-3.4-7.6c-0.1-0.3-0.4-0.6-0.4-0.9c0.3-2.4-1.2-4.3-1.7-6.4c-0.3-1-0.5-2-0.7-3c-0.1-0.5-0.1-1-0.4-1.4
		c-2.2-2.6-2-5.9-2.8-9c-0.8-3.2-1.9-6.4-2.9-9.6c-1-3.2-2.1-6.3-2.9-9.6c-0.8-3.3-1.4-6.7-1.1-10.2c0.2-3.1-0.1-6.2,0.1-9.3
		c0.3-3.9,0.6-7.7,1.6-11.5c1.2-4.6,3.3-8.5,5.9-12.2c2.8-4,6.4-7.5,10.5-10.4c3-2.1,6-3.9,9.4-5.2c0.9-0.4,2-0.7,3-0.8
		c2.5-0.3,4.9-0.5,7.2-1.6c0.8-0.4,1.6-0.8,2.3-1.3c1-0.7,1.3-1.6,0.9-2.9c-1.5-5.4,2.1-11.7,7.3-12.2c2-0.2,2.4-0.9,2.9-2.9
		c0.2-0.8,0.4-1.6,0.9-2.2c2.7-3.8,6.2-6.6,10.4-8.7c0.8-0.4,1.5-0.9,2.2-1.4c3.8-3.3,8.1-5.6,12.8-7.4c1.4-0.5,2.6-1.4,3.9-2.2
		c2.9-1.8,5.8-3.7,8.7-5.5c1.3-0.8,2.6-1.6,3.8-2.4c2-1.3,4-2.6,5.9-4c4.2-2.8,8.1-5.9,10.9-10.3c1.7-2.6,3.3-5.1,6-7
		c2.4-1.6,4.6-3.7,5.6-6.7c0.4-1.2,1.4-2.3,2.4-3.3c2.5-2.7,5.1-5.3,7.7-7.9c3.5-3.5,6-7.7,8.1-12.1c1.6-3.3,3.2-6.6,4.9-9.9
		c1.2-2.4,1.4-3.6,1.4-6c0-1.4,0.3-2.9,0.9-4.2c1-2,0.4-3.5-0.5-5.2c-0.4-0.7-0.7-1.4-1.1-2.1c-1.3-2.4-0.1-4.7,0.4-7
		c0.9-4.1,1-8.3,0.3-12.4c-0.4-2.9-1.7-5.8-4.2-7.8c-0.9-0.7-1.6-1.8-2.5-2.6c-1.6-1.3-3.3-2.5-5-3.6c-2.2-1.4-2.4-2.2-0.5-4
		c0.7-0.6,1.6-1.1,2.4-1.5c0.5-0.2,1.2-0.1,1.6-0.4c3.2-1.8,6.4-1.5,9.6-0.1c1.2,0.5,2.7,0.6,4,0.6c4-0.2,7.5,1,11.1,2.5
		c3.2,1.3,6.3,2.7,9.1,4.7c4,3,7.2,6.8,9.6,11.2c0.6,1,0.8,2.3,0.9,3.4c0.1,1.4,0.6,2.5,1.8,3.2c1.9,1.2,3.2,2.8,3.9,5
		c0.4,1.1,1.3,2,2.1,2.9c3.3,3.7,6.1,7.7,8.6,12c3.1,5.3,5.1,11.2,8.8,16.1c1.4,1.8,2.1,4.4,2.4,6.7c0.5,3.5,0.9,7.2-0.6,10.7
		c-0.5,1.2-0.2,2.4,0.6,3.4c0.5,0.7,1.1,1.4,1.8,1.9c1.8,1.6,2.9,3.5,3.1,6c0.1,1.1,0.6,2.1,1,3.2c1,2.5,2.1,4.9,2.9,7.4
		c0.4,1.3,0.3,2.8,0.5,4.3c0.3,1.8,0.6,3.6,1,5.4c0.4,1.9,0.8,3.7,1.1,5.6c0.6,3.6,1.2,7.2,1.7,10.9c0.3,2,0.4,4.1,0.5,6.2
		c0,0.7-0.3,1.6-0.8,2.2c-0.8,1.2-0.9,2.4,0,3.5c1.4,1.9,1.8,4,2.2,6.2c0.7,3.3,1.9,6.4,2.6,9.7c0.9,4.2,1,8.4,0,12.6
		c-0.4,1.4-0.7,2.8-1.1,4.2c-0.4,1.6-0.3,3,0.9,4.2c1.5,1.4,2,3.2,2,5.2c0,1.9,0.5,3.8,0.7,5.7c0.5,4.4,0.7,8.7-0.1,13.1
		c-0.4,2.3-0.4,4.6-0.6,6.9c-0.1,1.2-0.2,2.4-0.6,3.5c-0.8,1.8-1.3,3.7-1.8,5.7c-1.1,4.3-1,8.5-0.2,12.8c0.4,2.2,0.4,4.6,0.3,6.9
		c0,0.8-0.5,1.7-1,2.3c-1.1,1.4-1.9,1.2-3.1,0c-4.9-4.6-7.9-10.6-11.6-16.1c-1.6-2.4-3.8-4.3-5.7-6.4c-0.3-0.4-0.8-0.6-1.1-1
		c-2.1-2.8-5.1-4.6-8-6.4c-2.7-1.6-5.4-3.1-8-4.8c-1.3-0.9-2.6-1.9-3.7-3c-2.5-2.6-5.3-4.1-8.9-4.6c-2.2-0.3-4.3-1.1-6.5-1.8
		c-0.8-0.2-1.6-0.5-2.1-1.1c-2.3-2.4-5.3-3-8.4-3.5c-0.7-0.1-1.4-0.4-2.1-0.5c-1.7-0.4-3.4-0.7-5.1-1c-0.6-0.1-1.3-0.2-1.8-0.5
		c-3-1.4-6-2.9-9.1-4.2c-1.7-0.8-3.6-1.4-5.4-1.8c-2.1-0.5-4.3-0.6-6.2-1.7c-0.4-0.2-1.1-0.1-1.6-0.1c-2.7,0.1-5.4,0.4-8,1.2
		c-1.2,0.3-2.5,0.1-3.8,0.1c-2.1,0-4.1,0-6.2,0c-3.9,0-7.5,1.3-11.1,2.6c-1.5,0.5-3.1,0.8-4.7,1c-1.7,0.2-3.2,0.8-4.7,1.5
		c-2.2,1.1-4.6,1.9-6.9,2.7c-1.4,0.5-2.8,0.7-4.2,1.1c-2.9,0.9-6.4-1.3-6.7-4.4c0-0.5,0.2-1.2,0.5-1.4c0.7-0.5,1.1,0.3,1.4,0.8
		c0.4,0.6,0.7,1.2,1.2,1.8c0.8,0.9,1.8,1.3,3,0.8c3.2-1.2,6.4-2.4,9.6-3.6c3.4-1.3,6.8-2.6,10.5-3.2c1.7-0.3,3.4-0.8,5-1.4
		c4.6-1.7,9.4-1.8,14.2-1.6c1.8,0.1,3.5,0,5.2-0.5c1.9-0.4,3.7-0.9,5.6-1.2c1.4-0.2,2.9,0,4.3,0c2.2,0.1,4.4,0.3,6.6,0.5
		c2.5,0.2,4.9,0.2,7.3,1c3.7,1.2,7.6,1.9,11.3,2.8c0.4,0.1,0.8,0.1,1.2,0.2c3.3,0.2,6.5,0.3,9.8,0.7c1.4,0.2,2.9,0.9,4.2,1.6
		c0.4,0.2,0.6,1.1,0.5,1.6c-0.3,0.8-1,1.4-1.9,1c-4.3-1.9-9-1.8-13.5-2c-2.5-0.1-5-0.9-7.5-1.3c-0.6-0.1-1.1-0.2-1.7-0.3
		c-0.1,0.2-0.2,0.3-0.3,0.5c0.4,0.5,0.6,1.1,1.1,1.3c1,0.5,2,1,3.1,1.3c1.2,0.4,2.5,0.5,3.7,0.9c3.5,0.9,6.9,1.9,10.3,2.9
		c0.6,0.2,1.2,0.5,1.7,0.8c3.1,2,6.5,3.3,10.2,3.9c3.4,0.6,6.6,2,9.1,4.5c2,2,4.4,3.5,6.8,4.9c1.2,0.7,2.4,1.3,3.5,2.1
		c2.3,1.8,5.1,2.7,7.1,4.9c3.2,3.5,6.8,6.8,9.7,10.6c2.8,3.6,5,7.6,7.4,11.4c0.2,0.3,0.3,0.8,0.6,1c0.4,0.3,0.9,0.5,1.4,0.7
		c0.2-0.5,0.7-1.1,0.7-1.6c-0.2-2.8-0.6-5.7-0.9-8.5c-0.5-4.2,1-8,1.8-12c0.7-3.7,1.4-7.4,2-11.1c0.3-2.1,0.4-4.2,0.6-6.4
		c0-0.2,0-0.3,0-0.5c-0.4-5-0.6-10.1-2-14.9c-0.5-1.8-1.6-3-3.7-3.2c-1.7-0.1-2.2-1.1-1.5-2.7c0.5-1.1,1-2.3,2.5-2.6
		c1.1-0.2,1.3-1.3,1.5-2.2c1.3-5.3,0.8-10.6-0.5-15.8c-0.7-3-1.2-6.1-2.1-9.1c-0.5-1.7-1.6-3.3-2.8-4.6c-1.7-1.8-3.6-3.4-6.3-3.6
		c-0.7-0.1-1.4-0.5-1.4-1.4c0.1-1.1,0.9-1.7,1.8-1.6c1.7,0.3,3.4,0.9,5,1.4c0.5,0.2,0.9,0.5,1.7,1c0.3-0.9,0.7-1.6,0.7-2.3
		c-0.2-2.3-0.6-4.6-0.9-6.8c-0.1-1.1-0.2-2.2-0.3-3.3c-0.6-4.6-0.9-9.2-1.8-13.7c-0.7-3.7-1.2-7.6-3.8-10.7
		c-0.4-0.4-0.3-1.2-0.5-1.8c-0.5-2.1-1-4.2-1.5-6.3c-0.4-1.3-1-2.4-2.6-2.3c-0.2,0-0.5-0.1-0.7-0.2c-3-0.8-3.4-0.7-5.3,1.8
		c-0.6,0.7-1.2,1.5-2,2.1c-0.4,0.3-1,0.7-1.5,0.6c-0.6-0.1-1.4-0.5-1.7-1c-0.2-0.4,0-1.3,0.3-1.7c1.9-2.3,4-4.4,5.8-6.7
		c1.2-1.5,2.4-3.2,3.2-5c1-2.1,1.6-4.4,0.3-6.7c-0.3-0.5-0.5-1.2-0.5-1.8c-0.2-2.9-1.6-5.3-3.4-7.5c-2.8-3.4-4.6-7.4-6.2-11.5
		c-1.8-4.4-4.2-8.4-7.5-11.9c-0.6-0.6-1.1-1.3-1.6-2.1c-1-1.5-1.7-1.8-3.4-1.3c-0.8,0.2-1.7,0.2-2.5,0.4c-0.4,0.1-1,0.1-1.3,0.4
		c-1.2,1.2-2.2,2.5-3.4,3.7c-0.5,0.6-1.1,1.3-1.8,1.5c-0.5,0.2-1.4-0.1-1.9-0.5c-0.3-0.3-0.3-1.2-0.1-1.7c1.2-2,2.4-4,3.7-5.9
		c2.5-3.6,2.5-10.1,0-13.6c-1.3-1.8-2.5-3.7-4-5.3c-1.1-1.2-2.7-2-3.8-3.2c-2.1-2.2-5-2.9-7.6-3.9c-3.1-1.3-6.4-2-9.7-2.7
		c-2.8-0.6-5.7-0.9-8.5-1.2c-0.5-0.1-1-0.1-1.4,0.1c-1.7,0.5-3.3,1-5.1,1.6c0.1,0.2,0.1,0.6,0.3,0.8c2,1.8,4,3.4,5.9,5.2
		c3.3,3,5.4,6.7,6,11.2c0.6,4.8,0.3,9.6-1.1,14.2c-0.6,1.8-0.6,3.6,0.7,5.3c1.9,2.6,1.9,5.4,0.9,8.2c-0.6,1.6-0.5,3,0.1,4.6
		c0.8,1.9,1.3,3.9,2,5.9c0.3,0.8,0.5,1.6-0.5,2.1c-1,0.4-1.7,0-2.2-0.9c-0.4-0.7-0.7-1.4-1.4-2.9c-0.4,0.8-0.7,1.3-1,1.8
		c-1.6,2.9-3.2,5.9-4.8,8.8c-1.5,2.8-2.7,5.9-4.7,8.3c-3.2,4-6.8,7.6-10.4,11.2c-1.7,1.7-3.2,3.6-4,5.9c-0.8,2-2,3.7-3.9,4.7
		c-3.4,1.9-5.7,4.8-7.6,8.1c-2.7,4.7-7,7.8-11.4,10.7c-1.3,0.9-2.7,1.7-3.9,2.7c-3,2.5-6.5,4.4-10.1,6c-0.7,0.3-1.5,0.7-2,1.2
		c-2.7,2.9-6.4,4.2-9.9,5.7c-1.9,0.8-3.5,1.9-5.2,3c-2.9,1.9-5.6,4-8.6,5.7c-2.7,1.5-4.7,3.6-6.5,5.9c-1.1,1.5-0.6,3.3-0.2,5.3
		c1.3-0.4,2.4-0.7,3.5-1c1.7-0.5,2.3-0.2,3.3,2c-0.6,0.2-1.1,0.5-1.7,0.5c-3,0.4-5.4,2.8-5.3,5.7c0,2,0.2,4.2,0.9,6.1
		c0.5,1.4,1.7,2.6,2.7,3.9c1.5-0.8,2.7-1.4,4-2.1c0.2-0.1,0.4-0.3,0.6-0.4c1-0.4,2,0,2.4,0.9c0.4,1-0.2,1.5-1,1.9
		c-1.4,0.5-2.7,1.2-3.6,2.6c-1.1,1.8-1.1,3.5-0.4,5.2c1.5,3.4,4,5.9,6.9,8.1c0.7,0.5,1.6,0.7,2.4,0.9c1.6,0.4,2.8,1.4,2.7,2.3
		c-0.1,0.9-2.1,1.7-3.5,1.2c-1.4-0.5-2.7-1.3-4-2.1c-0.5-0.3-0.9-0.7-1.3-1.1c-1.7-2-3.6-2.4-5.8-0.6c-1.1,0.9-2.3,0.7-3.7,0.3
		c-4-1.2-6-4.6-8.2-7.7c-1.1-1.5-1.8-2.1-3.9-2c-4.9,0.3-9.3,2.3-13.7,4.2c-4.5,1.9-8,5.5-11.1,9.3c-0.9,1.1-1.4,2.4-1.7,3.9
		c-0.3,1.4-0.9,2.9-1.7,4.2c-1.2,1.9-1.9,3.9-1.9,6.1c0,6.1,0,12.2,0.1,18.2c0,0.9,0.4,1.9,0.6,2.8c0.2,1.2,0.3,2.4,0.6,3.5
		c0.2,1.2,0.5,2.5,0.9,3.7c0.8,2.7,1.5,5.3,2.4,8c1.1,3.4,2.2,6.8,3.3,10.3c0.4,1.4,0.8,2.7,1.2,4.1c0.3,1.1,0.5,2.2,0.9,3.2
		c1.6,4.5,3.2,9,4.9,13.5c0.6,1.7,1.5,3.3,2.2,5c1.8,4.1,3.6,8.2,5.4,12.3c0.9,2,2.1,2.8,4.5,2.7c4.5-0.3,9.1-0.3,13.7-0.2
		c1.5,0,3.2,0.5,4.6,1.1c3.7,1.8,7.6,2.8,11.7,3.4c2.1,0.3,4.2,1,6.2,1.7c1.7,0.5,3.3,1.3,5,1.7c4.3,1.2,8.2,3.2,12.2,5.1
		c1,0.5,2,1,3.1,1.3c5.7,1.7,11,4.2,16.6,6.2c0.5,0.2,1.1,0.4,1.6,0.4c5.5,0.5,10.6,2.2,15.3,5.3c2,1.3,4.3,1.7,6.6,1.7
		c1.1,0,2.3,0,3.3,0.3c2.1,0.5,3.3,2.4,2.9,4.6c-0.4,2.9-0.2,3.2,2.5,4.2c1.9,0.7,3.8,1.5,5.8,2.3c0.4,0.2,0.8,0.3,1.1,0.6
		c5,4.1,10.5,7.7,13.7,13.6c0.8,1.5,1.6,3.1,2.2,4.8c1.2,3.5,3.9,5.8,6.7,7.9c0.6,0.4,1.4,0.4,2,0.7c2.4,0.9,4.9,1.4,7.2,2.6
		c3.5,1.9,7.2,3,11.1,3.5c3.8,0.5,7.4,1.7,11,3.2c2.7,1.1,5.3,2.5,8,3.7c0.2,0.1,0.4,0.3,0.7,0.3c3.2,0,5.9,1.8,8.9,2.5
		c1.8,0.4,3.2,1.3,4.4,2.7c0.8,0.9,0.9,1.9,0,2.8c-0.5,0.5-0.9,1.1-1.5,1.6c-1.6,1.3-1.8,3.1-2,5c-0.1,1.4,0.4,2.6,1.8,3.1
		c2.9,1,5.9,2,8.9,2.9c1.1,0.4,2.3,0.5,3.5,0.8c0.8,0.1,1.5,0.2,2.3,0.3c0.6,0.1,1.3,0.1,1.8,0.3c1.5,0.6,1.7,1.3,0.5,2.5
		c-0.9,1-2,1.9-2.9,2.9c-1.1,1.1-1.2,1.5-0.2,3.3c1.6-1,3.3-1.9,4.7-3c4.1-3.3,3.5-3.1,7.6-0.7c1.6,0.9,3.2,1.9,3.8,3.8
		c0,0.2,0,0.4-0.1,0.5c-2.3,3-3,6.4-2.9,10.1c0,1.9-0.4,3.8-0.7,5.7c-0.1,0.7-0.6,1.4-0.9,2.1c-1.3-0.6-1.5-1.5-1.5-2.5
		c0.1-4.1,0.2-8.1,0.3-12.2c0-1.6,0-3.2,1-4.6c0.2-0.2-0.2-0.8-0.5-1.7c-0.9,2.4-2.7,2.7-4.4,3.2c-1.3,0.4-2.6,1.1-3.8,1.9
		c-1.6,1.1-2.9,2.5-4.8,0.6c-0.8,0.7-1.4,1.3-2.4,2.2c0.8,0,1.2,0,1.6,0c0.9-0.1,1.9-0.3,2.8-0.4c1.2-0.2,2.3-0.4,3.5-0.6
		c0.7-0.1,1.4-0.4,2.1-0.4c1.8,0,2.6,0.9,2.1,2.6c-1.1,3.1-1,6.1-0.1,9.2c0.2,0.7,0.1,1.4,0.1,2.1c0.3,2.5,1.2,4.8,3.6,6.1
		c1.8,1,1.8,2.6,0.1,3.7c-0.7,0.4-1.5,0.6-2.2,0.8c-1.3,0.4-2.6,0.6-3.9,1.1c-3.9,1.5-7.8,3.3-11.8,4.8c-2.8,1-5.7,1.6-8.6,1.7
		c-1.3,0-2.6,0.5-3.9,0.8c-2.5,0.6-5,1.1-7.4,1.8c-2,0.5-4,1.1-6,1.7c-4.4,1.3-8.7,2.7-13.1,3.9c-5.9,1.6-11.9,3.1-17.8,4.6
		c-2.7,0.7-5.5,1.1-8.2,1.6c-0.4,0.1-0.8,0.2-1.1,0.4c-4.8,1.8-9.5,3.7-14.3,5.5c-1.2,0.5-2.4,0.9-3.5,1.5c-2.8,1.5-5.7,2.3-8.7,3.2
		c-1.3,0.4-2.5,1-3.6,1.7c1.6,0.2,3.2,0.1,4.8-0.5c4.9-1.8,9.7-3.6,14.6-5.3c1.3-0.5,2.8-0.8,4.2-1c3.4-0.7,6.9-1.2,10.3-2
		c1.2-0.3,2.5-0.7,3.6-1.4c3.9-2.5,8.1-4.1,12.5-5.1c1.6-0.4,3.3-0.5,5-0.6c2.9-0.1,5.7-0.8,8.3-2.2c1.5-0.8,2.9-0.9,4.6-0.9
		c2.5,0,5.1-0.5,7.6-0.9c2.8-0.5,5.7-0.9,8.4-1.7c4-1.2,8.1-2.3,12-4c4.3-1.8,8.5-2.8,13.2-2.5c1.9,0.1,3.9-0.6,5.9-0.9
		c0.8-0.1,1.6-0.2,2.5-0.3c0.5,0.9,1,1.7,1.6,3c-1.2,0.1-2.2,0.3-3.2,0.3c-4.1,0.3-8.1,0.5-12.2,0.8c-0.6,0-1.2,0.3-1.8,0.6
		c-2.6,1-5.2,2.1-7.8,3.1c-0.9,0.3-1.9,0.5-2.8,0.8c-1.2,0.4-2.4,0.8-3.6,1.3c-0.7,0.3-1.5,0.9-2.2,0.9c-3.6,0-6.8,1.5-10.3,2.1
		c-1.4,0.2-2.8,0.7-4.2,0.7c-3.3,0-6.5,0.6-9.6,1.9c-2.4,1-4.9,1.8-7.6,1.7c-1.9-0.1-3.9,0.7-5.9,1.1c-2.7,0.5-5.2,1.5-7.6,2.6
		c-5.1,2.4-10.5,3.7-16,4.7c-2.1,0.4-4.1,1.3-6.2,1.7c-3.5,0.8-6.7,1.9-9.8,3.7c-0.1,0.1-0.3,0.2-0.4,0.2c-3.7,0.4-7.3,1.8-10.9,2.7
		c-2.6,0.6-5.1,1.4-7.3,2.8c-3.1,2.1-6.7,3.2-10.1,4.3c-3.1,1-5.9,2.5-8.4,4.4c-1.8,1.3-3.6,2.3-5.9,2.4c-3.6,0.1-6.5,1.5-8.8,4.2
		c-0.3,0.4-0.7,0.7-1.1,0.9c-3.6,1.6-6.3,4.3-9.6,6.4c-0.5,0.3-1.1,0.7-1.6,1c-1.7,0.9-3.1,1.3-5-0.2c-2.6-2-5.6-3.4-8.4-5
		c-1.1-0.6-2-1.4-2.5-2.7c-0.5-1.1-1.6-2-2.5-2.8c-1.9-1.8-4.5-2.2-6.9-3.2c-0.7-0.3-1.4-0.5-2-0.9c-3.3-2.1-7-2.9-10.8-3.4
		c-2.2-0.3-4.3-1-6.5-1.7c-1.4-0.4-2.7-1-4-1.5c-1.3-0.5-1.5-1.3-0.5-2.3c0.9-1,3-1.2,3.9-0.2c1.8,2,4.3,2.5,6.6,2.9
		c5.4,0.8,10.6,2.6,15.6,4.7c2.4,1,4.5,2.7,6.7,4.1c0.5,0.3,1,0.9,1.5,1.2c1.8,1.1,3.3,2.4,4.5,4.2c0.6,0.9,1.7,1.6,2.8,2.5
		c0.1-0.7,0.3-1,0.2-1.1c-2.3-3.1-2.9-6.9-3.7-10.5c-1.2-5.2-0.8-10.4,0.6-15.6c0.4-1.5,1.2-2.7,2.3-3.8c1.1-1.1,2.1-2.3,3.2-3.7
		c-1.8-0.7-3.3-1.7-4.9-1.9c-2.3-0.3-4-2-6.1-2.6c-2.3-0.6-3.9-2.3-5.9-3.4c-1.2-0.7-1.2-1.9,0-2.6c0.5-0.3,1-0.5,1.5-0.8
		c1.4-0.9,2.2-2.1,2.1-3.8c-0.1-2.4-0.2-4.8-0.4-7.2c-0.3-3.5,0.4-5.7,2.5-8.2c-0.9-0.6-1.7-1.3-2.6-1.8c-3.1-2-5.2-5-7.5-7.7
		c-1.7-2-3.3-4.1-4.8-6.3c-1.8-2.6-3.4-5.4-5.4-7.9c-2-2.6-4.3-5.1-6.5-7.6c-1.2-1.4-2.4-2.8-3.5-4.2c-0.8-1-1.6-1.7-2.9-2
		c-1.3-0.4-2.6-0.9-3.8-1.4c-2.3-0.9-4.6-1.2-7-1c-0.9,0.1-1.9-0.2-2.9-0.2c-0.8,0-1.7,0-2.5,0.3c-0.8,0.2-1.4,0.3-2-0.3
		c-0.6-0.7-1.1-1.4-0.7-2.4c0.3-0.7,0.8-1.4,1-2.2c0.5-1.9,1-3.8,0.5-5.9c-0.2-1,0-2,0.1-3.1c0.1-1.7,0.4-3.3,0.4-5
		c0-2.6-0.3-5.1-0.3-7.7C181.2,359.7,181.7,358.3,181.9,357z M381.8,378c-1.5-0.4-3.1-0.7-4.6-1.2c-0.3-0.1-0.7-0.7-0.7-1.1
		c0-0.3,0.6-0.7,1-0.8c0.5-0.1,1.1,0.1,1.6,0.2c0.4,0.1,0.8,0.1,1.2,0.2c-0.9-0.8-1.8-1.4-2.8-1.8c-2.4-1-4.8-2.1-7.3-3
		c-2.9-1.1-5.9-1.7-9-2.3c-4.9-1.1-9.6-2.7-14.2-5c-2.1-1.1-4.5-1.8-6.8-2.1c-1.8-0.2-3.2-0.7-4.6-1.7c-0.7-0.4-1.4-0.7-2.1-1.1
		c-2-1-4-1.9-6-2.9c-1.9-1-3.7-2.2-5.7-3c-2.2-1-4.5-1.7-6.7-2.5c-1.3-0.5-2.7-0.6-3.8-1.3c-3.3-2.1-7.1-2.9-10.5-4.4
		c-1.6-0.7-3.3-1.2-4.9-1.8c-2.9-1.3-5.8-2.6-8.7-4c-1.1-0.6-2.2-1.4-3.3-2c0-0.2,0.1-0.4,0.1-0.6c-1.4,0.3-2.9,0.3-4.1,1
		c-2.1,1.2-4.4,1.1-6.6,1.6c-2.6,0.6-5.4,0.3-8,0.5c-0.8,0.1-1.5,0.5-2.3,0.8c0,0.2,0,0.4,0.1,0.6c0.7,0.2,1.4,0.4,2.2,0.5
		c3.5,0.4,6.9,0.8,10.4,1.2c0.7,0.1,1.4,0.2,2.1,0.4c2.4,0.7,4.7,1.5,7.1,2c4.5,0.9,9.1,1.5,13.2,4.1c0.1,0.1,0.3,0.2,0.4,0.2
		c3.8,1.1,7.2,2.9,10.7,4.7c4.7,2.4,9,5.4,13,8.8c2.1,1.8,3.7,4.3,4.3,7.1c0.4,1.9,1.2,3.1,2.6,4.3c2.3,1.9,1.9,5.3-0.7,6.9
		c-1.8,1.1-3.6,2-5.4,3c-3.1,1.6-6.2,3.3-9.4,4.8c-4,1.9-8.1,3.4-12.6,3.5c-4.5,0-9.1,0-13.5,1.3c-1.4,0.4-3,0.4-4.5,0.5
		c-2.4,0.2-4.7,0.4-7.1,0.6c-1.4,0.1-2.9,0.2-4.3,0c-2.6-0.3-5.2-0.8-7.8-1c-3.4-0.3-6.8-0.5-10.2-0.4c-3.3,0-6.7,0.3-10,0.6
		c-2.3,0.2-4.4-0.1-6.5-1c-2.6-1.2-5.3-2.3-7.9-3.4c-0.7-0.3-1.5-0.4-2.3-0.7c-2.9-1-6-1.8-8.8-3.1c-4.3-2-8.4-4.3-12.6-6.4
		c-2.4-1.2-4.5-2.7-6.2-4.8c-1.5-1.9-2.9-3.9-4.6-5.5c-2.3-2.2-3.2-4.9-4-7.8c-0.1-0.5-0.1-1.1-0.3-1.7c-0.4-1.5-0.9-1.8-2.9-1.9
		c-0.1,0.4-0.3,0.9-0.3,1.3c-0.2,2.6-0.4,5.2-0.6,7.9c-0.4,4.7-0.7,9.4-1,14.1c-0.1,1.5,0.2,1.7,1.7,2c3.1,0.6,6.2,1,9.1,1.9
		c2.9,0.9,6,1.3,8.2,3.7c1.7,1.9,3.6,3.6,5.2,5.6c1.6,1.9,3.6,3,5.9,4.6c-0.1-1.6-0.2-2.6-0.3-3.7c-0.1-1.2,0.2-2.2,1.5-2.7
		c0.7-0.2,1.2-0.7,1.8-1.2c3.3-2.7,5.8-2.8,8.8,0.2c2.3,2.3,5.2,4.1,6.6,7.2c0.2,0.4,0.7,0.7,1.1,0.8c2.8,1.2,5.1,3.3,7.3,5.4
		c1.7,1.6,3.3,3.5,4.8,5.3c0.6,0.7,1.3,1.5,1.7,2.3c1,2,0.4,3.1-1.7,3.6c-1.4,0.4-2.9,0.4-4.2,1.6c-0.9,0.8-2.2,1.2-3.3,1.7
		c-1.1,0.5-2.3,0.7-3.3,1.2c-1.4,0.6-1.9,0.5-2.8-0.8c-0.8-1.2-1.7-2.3-2.6-3.4c-0.8-1-1.8-1.8-2.7-2.7c-2.3-2.2-4.6-4.4-6.9-6.6
		c-0.3-0.3-0.7-0.4-1.3-0.7c0.1,0.5,0,0.8,0.1,0.9c3,4,5.4,8.5,9,12c2.6,2.5,5,4.8,8.8,5.1c1.9,0.1,3.6,0.4,5.3-0.5
		c1.5-0.8,3-1.4,4.7-1.9c6.3-1.7,12.6-3.3,19-5c1.2-0.3,2.5-0.6,3.6-1.2c2.1-1.1,4.1-2.5,6.2-3.6c1.5-0.8,3.2-1.4,4.9-1.9
		c4-1.2,8-2.1,11.5-4.5c2.1-1.4,4.5-2.4,6.9-3.3c2.4-0.9,4.8-1.5,7.4-1.7c3.7-0.2,7.2-1.3,10-3.9c0.7-0.6,1.6-1.1,2.5-1.2
		c2.4-0.4,4.7-0.6,7.1-0.9c0.7-0.1,1.4-0.2,2.1-0.4c2.7-0.6,4.8-2.2,6.7-4c1.5-1.4,3.2-2,5.3-1.5c0.9,0.2,1.9,0,2.8-0.1
		c4.3-0.8,8-3.2,12-4.8c2.6-1,5.2-2,8-2.1c1.6,0,3-0.5,4.3-1.2c2.4-1.4,4.9-1.8,7.6-1.3C378.1,379,380,379.2,381.8,378
		c0.4-0.3,1.1-0.3,0.7-1.2C382.3,377.2,382,377.6,381.8,378z M101.1,317.7c0,0.2,0,0.5,0.1,0.7c1,0.3,1.9,0.8,2.9,0.9
		c3.9,0.5,7.6,1.6,11,3.7c2.4,1.5,5.3,2.1,8,2c2.4-0.1,4.2,0.5,5.9,1.8c0.6,0.4,1.3,0.7,1.9,0.9c1.9,0.7,3.7,1.4,5.6,2
		c2.3,0.8,4.6,1.9,7,2.2c5.3,0.8,10.1,3.3,15.4,4.2c3.7,0.6,7.2,2.5,11.2,2.4c0.5,0,1.1,0.2,1.6,0.4c2.4,0.8,4.8,1.7,7.2,2.5
		c1.5,0.5,3.3,1.3,4.6,0.9c1.9-0.6,3.7-0.7,5.6-1c3.1-0.5,6.2-0.8,9.2-1.2c1.2-0.2,2.5-0.5,3.7-0.8c2.8-0.7,5.7-1.7,8.5-2.3
		c3.3-0.7,6.6-0.9,9.9-1.6c3.7-0.8,7.4-1.9,11.1-2.9c1.7-0.5,3.3-1.2,5-1.5c2.8-0.4,5.7-0.9,8.6-0.7c5.7,0.3,11.1-0.6,16.6-1.8
		c3.6-0.8,7.1-2.5,11-2.1c0.1,0,0.3-0.1,0.5-0.1c4.4-1.8,9.1-2.3,13.8-2.6c0.3,0,0.7,0,0.9-0.2c0.2-0.1,0.5-0.5,0.5-0.7
		c0-0.2-0.3-0.6-0.5-0.7c-0.4-0.1-0.8-0.1-1.2-0.2c-3.6-0.5-7.2-1.1-10.6-2.9c-2.8-1.4-5.8-2.5-8.9-3.5c-3.5-1.1-6.9-2.3-10.3-3.8
		c-5-2.3-10.4-3-15.7-4.1c-2.9-0.6-5.9-0.3-8.6-1.4c-2.7-1.1-5.5-2.2-8.2-3.2c-0.6-0.2-1.4-0.3-2.1-0.4c-0.9-0.1-1.9-0.2-2.8-0.4
		c-1.1-0.2-2.2-0.7-3.5-0.1c0.1,0.4,0.2,0.8,0.3,1c2,3.2,2.4,6.5,1.1,10.1c-0.5,1.5-1.2,2.8-2.8,3.3c-1.2,0.4-2.4,0.8-3.6,1.1
		c-2.2,0.5-4.5,1-6.8,1.5c-1.2,0.2-2.4,0.2-3.6,0.3c-0.7,0-1.5-0.2-2.1,0.1c-0.6,0.3-0.9,1.1-1.1,1.3c-1-0.3-1.7-0.6-2.4-0.8
		c-0.5-0.1-1,0.1-1.4,0c-2.7-0.9-5.5-0.4-8.3-0.7c-2.9-0.3-5.9-0.8-7.9-3c-2.2-2.3-4.1-4.9-4.8-8.1c-0.1-0.6-0.5-1.1-0.7-1.7
		c-3.2,0-6.3,0.2-9.4,1c-1.7,0.4-3.5,0.5-5.2,0.8c-4.7,0.7-9.3,1.4-14,2.1c-2.5,0.4-5.1,0.7-7.6,1.1c-2.5,0.4-5,0.9-7.5,1.3
		c-0.9,0.2-1.8,0.5-2.8,0.6c-2,0.2-4,0.3-6,0.6c-3.2,0.5-6.4,1.3-9.6,1.8c-2.5,0.4-5.1,0.6-7.6,1
		C102.1,317.1,101.6,317.5,101.1,317.7z M175.4,290.5c0.1-0.2,0.3-0.3,0.4-0.5c-0.4-0.7-0.7-1.4-1.1-2c-1.3-1.8-2.7-3.5-3.9-5.3
		c-3.3-4.9-5.6-10.4-8.3-15.6c-1.7-3.2-3.3-6.6-5.3-9.6c-3-4.3-6.7-8.1-10.8-11.4c-0.5-0.4-1-0.8-1.6-1c-2.5-0.8-5.1-1.4-7.5-2.3
		c-3.2-1.2-6.3-1.3-9.6-0.3c-1.3,0.4-2.7,0.4-4,0.8c-3.9,1.1-7.8,2.4-11.7,3.4c-4.5,1.1-8.8,2.7-13.1,4.5c-2.6,1.1-5.4,2-8.1,2.9
		c-0.3,0.1-0.6,0.1-1,0.1c-3.3,0.4-6.6,0.8-9.9,1.2c-1.2,0.1-2.4,0.2-3.5,0.1c-4.7-0.7-9.3-1.5-13.9-2.4c-1.8-0.3-3.7-0.6-5.2-1.4
		c-4.2-2.2-8.2-4.6-12.3-7c-2.4-1.3-4.8-2.5-7.1-3.9c-3.5-2.1-6.8-4.4-10.2-6.7c-0.7-0.4-1.2-1-1.8-1.5c-0.6-0.5-1.3-0.9-1.9-1.4
		c-1-0.8-2.1-1.6-3.1-2.6c-0.7-0.7-1.1-1.8-1.9-2.5c-3.4-3.4-6.4-7.1-10.1-10.1c-0.8-0.6-1.6-1.1-2.5-1.6c0.6,2.8,2.2,4.9,3.9,6.9
		c3.7,4.3,7.5,8.4,11.2,12.7c2.1,2.4,4.1,4.9,5.9,7.5c2,3,4.3,5.8,5.7,9.1c0.4,0.9,1,1.8,1.7,2.6c4.6,5.9,9.6,11.3,15.4,16
		c4.5,3.7,9.3,6.7,14.9,8.4c3.6,1.1,7.1,2.5,10.9,2.5c2.8,0,5.6-0.1,8.3-0.3c0.5,0,1.1-0.6,1.4-1c0.4-0.8,0.9-1.1,1.7-0.9
		c2.3,0.6,4.2-0.4,6.2-1.4c4.3-2.2,8.8-3.4,13.6-3.5c6.9-0.2,13.7-0.3,20.6-0.3c1.3,0,2.7,0.1,4,0.4c7.9,1.8,15.8,3.8,23.3,7.1
		c1.8,0.8,3.8,1.3,5.6,2.2c2.8,1.5,5.5,3.2,8.3,4.7C170.9,288.2,173.1,289.3,175.4,290.5z M390.9,392.5c-0.1,0.1-0.2,0.2-0.3,0.4
		c0.3,0.5,0.6,1,1,1.5c1.1,1.3,1.9,2.5,1.3,4.3c-0.2,0.7,0.1,1.6,0.4,2.3c1,3-1.3,6.1-4.4,6.2c-1.7,0-3.3,0.2-4.9,0.7
		c-2.1,0.7-4.4,1.2-6.6,1c-3-0.3-6-1.2-8.3-3.4c-0.6-0.6-1.2-1.4-1.9-1.8c-1.8-1-2.6-2.5-2.4-4.5c0-0.1-0.2-0.2-0.4-0.5
		c-2.9,0.1-5.8,0.4-8.5,1.9c-1.3,0.7-2.5,0.5-2.8-0.3c-0.5-1.1,0.5-1.7,1.1-2.5c0.2-0.2,0.5-0.4,0.8-0.5c1.7-0.5,3.4-1,5.1-1.3
		c1.2-0.2,2.5,0,3.3,0c1.2-1.7,1.9-3.2,3.1-4.3c1.9-1.7,4.1-3.2,6.3-4.7c0.5-0.4,1.4-0.3,2.1-0.3c3.7,0.1,7.2,1.3,10.6,2.9
		c0.7,0.3,1.4,0.5,2.3,0.9c0.1-0.7,0.2-1.2,0.1-1.5c-0.6-1.4-0.3-2.6,0.2-3.9c0.5-1.2,0.4-2.6,0.7-4.2c-1.4,0.2-2.6,0.3-3.7,0.4
		c-2.1,0.3-4.3,0.8-6.4,0.8c-3.8,0-7.5-0.2-10.8,2.1c-0.3,0.2-0.7,0.3-1.1,0.4c-4,0.9-8.1,1.8-12.1,2.7c-1.2,0.3-2.4,0.8-3.6,1.3
		c-2.4,0.8-4.8,1.7-7.2,2.5c-0.8,0.3-1.8,0.6-2.6,0.4c-2.6-0.6-4.1,0.9-5.4,2.7c-0.3,0.5-0.5,1.1-1,1.3c-2.1,0.8-4.2,1.9-6.6,1.7
		c-1.4-0.1-2.9-0.1-4.2,0.3c-2.5,0.9-5,2-7.2,3.6c-2.4,1.7-5.1,2.5-8.1,2.5c-1.6,0-3.4,0.3-4.9,0.8c-3.8,1.4-7.7,2.6-11.3,4.5
		c-3.4,1.7-6.8,3.6-10.8,3.9c-0.2,0-0.4,0.2-0.7,0.2c-2.1,0.3-3.7,1.9-5.5,2.7c-3.1,1.3-6.1,3-9.5,3.7c-4.8,1-9.5,2.6-14.3,3.9
		c-1.7,0.5-3.7,0.4-4.7,2.4c-0.1,0.2-0.4,0.2-0.6,0.3c-3.5,1.7-7.8,1.6-10.9,4.2c-0.1,0.1-0.3,0.1-0.5,0.1c-1.7-0.2-2.3,1.1-2.8,2.4
		c-0.6,1.5-0.9,3-0.5,4.6c0.4,1.3,0.5,2.7,0.8,4c0.3,1.9,0.4,3.8-0.8,5.6c-0.5,0.8-1.2,1.4-2,2.3c0.8,0.6,1.4,1.1,2.2,1.5
		c0.5,0.3,1.2,0.5,1.8,0.8c3.1,1.2,6.1,2.6,9.5,3.2c1.8,0.3,3.8,0.4,5,2.3c1.4-0.6,2.8-1,3.6-2.4c0.2-0.3,0.6-0.6,0.9-0.7
		c1.9-0.3,3.8-0.5,5.6-0.8c1.7-0.3,3.3-0.5,4.9-1c3.5-1,7-2.2,10.5-3.3c1.5-0.5,3.1-1,4.4-1.9c2-1.3,4-2.6,6.3-3.4
		c2-0.7,3.8-1.7,5.8-2.4c3.3-1.1,6.7-2.1,10-3.1c3.1-0.9,6.3-1.6,9.4-2.6c3.2-1.1,6.4-2.5,9.7-3.1c1.2-0.2,2.3-0.6,3.4-1.1
		c3.1-1.5,6.4-2.6,9.7-3.3c1.8-0.4,3.5-0.9,5.3-1.5c3-1,6-2.1,9.1-3c2-0.7,4.2-1,6.2-1.8c3.6-1.4,7-3.5,11-3.9
		c1.2-0.1,2.5-0.6,3.7-1.1c5.3-2.3,11-3.4,16.5-4.9c1.6-0.5,3.2-0.9,4.8-1.4c1.7-0.5,3.5-1.2,5.2-1.5c3.1-0.5,5.8-2.2,8.8-3.2
		c-0.3-1.5-0.7-2.9-0.6-4.2c0-1.3,0.6-2.5,1-4.1C399.3,395.7,395.1,394.1,390.9,392.5z M297.9,382c2.9-0.3,5.6-0.2,7.9-1.9
		c0.4-0.3,1.5-0.2,2.1,0.1c2.3,1.1,4.5,0.3,6.7-0.2c2.2-0.5,3.6-2.2,5.3-3.5c1.6-1.3,2.4-2.9,3-4.8c0.5-1.6,0.4-3-0.9-4.2
		c-1.9-1.7-3.6-3.6-5.5-5.3c-1.8-1.5-3.6-2.8-5.6-4c-1.9-1.1-4-2-6-3c-0.9-0.4-1.7-0.9-2.6-1.3c-1.7-0.7-3.4-1.3-5.1-2
		c-2.7-1.1-5.3-2.3-8-3.3c-1.8-0.6-3.8-0.6-5.5-1.3c-3.3-1.5-6.9-1.9-10.4-2.7c-1.1-0.2-2.4-0.2-3.5-0.3c-1.8-0.2-3.6-0.4-5.5-0.5
		c-2.4-0.1-4.7-0.1-7.1-0.3c-0.5,0-1-0.4-1.4-0.8c-0.5-0.4-0.8-0.9-1-1.1c-2.2,0.3-4.1,0.9-5.9,0.8c-3.3-0.2-6.5,0-9.5,1.6
		c-1.3,0.7-2.7,1.5-4.3,0.9c-0.3-0.1-0.6,0.1-0.9,0.1c-2.9,0.5-5.7,1.4-8.6,1.5c-2.4,0.1-4.7,0.7-7,1c-0.7,0.1-1.5,0.2-2.3,0.4
		c0.9,2.2,3.3-0.4,4.2,1.7c-3,0.7-4,0.4-6.1-1.5c-0.4-0.3-1.2-0.5-1.7-0.4c-2.3,0.6-4.5,1.3-6.8,2c-0.6,0.2-1.3,0.2-1.9,0.3
		c-2.3,0.2-4.1,1.4-6.2,2.4c2,0.6,4,1.1,6.1,1.7c0.2-1.8,0.6-2.3,2.1-2.7c1.3-0.3,2.1,0.3,1.9,1.6c-0.1,0.8-0.5,1.6-0.9,2.7
		c2,0.9,4,1.9,6,2.6c4.2,1.5,8.4,3,12.6,4.4c4.8,1.7,9.4,3.8,14.4,5.1c1.5,0.4,3,0.2,4.4,0.5c2.7,0.7,5.4,1.5,8,2.4
		c0.8,0.3,1.6,1.1,2.3,1.1c3.2,0,5.1,1.6,5.8,4.6c0.1,0.2,0.3,0.4,0.4,0.6c0.6,1.2,0.3,2.1-1,2.5c-0.6,0.2-1.3,0.2-1.9,0.1
		c-2.5-0.5-4.3,0.5-5.8,2.4c-0.8,1.1-3.3,1.7-4.3,0.9c-1.7-1.2-3.6-1.4-5.7-1.3c1.1-1.4,1.1-1.7,0.1-2.6c-0.3-0.3-0.7-0.6-1.2-0.8
		c-1.1-0.6-1.8-1.4-2.3-2.6c-0.4-0.8-1.3-1.7-2.2-2c-2.7-1.1-5.6-1.9-8.3-2.9c-4-1.4-8-2.8-11.7-4.9c-1.9-1.1-4.1-1.3-6.3-1.3
		c-0.5,0-1.1,0.3-1.6,0.5c-0.1,0.2-0.2,0.5-0.3,0.7c0.4,0.2,0.8,0.4,1.2,0.7c3,1.9,5.9,3.8,8.9,5.6c1,0.6,1.7,1.4,1.6,2.6
		c-2.3,0.8-2.5,0.6-3.9-1c-1-1.1-2.2-2.2-3.6-2.7c-2.5-0.9-4.7-2.4-5.9-4.3c-1.5-2.3-2.9-4-5.6-4.4c-0.5-0.1-1-0.4-1.5-0.7
		c-0.1,0.2-0.3,0.3-0.4,0.5c1.1,2.3,2.4,4.4,4.1,6.2c2.3,2.3,4.6,4.5,7.5,6.2c6.5,3.8,13,7.4,20.7,8.3c1.6,0.2,3.1,0.5,4.6,1.3
		c0.8,0.4,1.8,0.5,2.8,0.7c1.8,0.3,3.8,0.3,5.4,1c2.2,1,4.4,0.8,6.6,1c5.6,0.3,11.2,0,16.7,0.5c4.6,0.4,9.1-0.4,13.6-0.8
		c2.1-0.2,4.1-0.5,6.2-0.8c2.8-0.4,5.5-0.7,8.3-1.1C296.6,384.5,297.8,383.8,297.9,382z M192.5,180.2c-0.6-0.9-1-1.5-1.4-2.1
		c-0.8-1.3-1.2-1.3-2.5-0.5c-1.3,0.9-2.6,1.8-3.9,2.7c-0.5,0.3-0.9,0.6-1.3,1.1c-2,2.7-4.4,5-6.1,7.9c-2.7,4.4-4.8,9.1-5.2,14.3
		c-0.5,7.4-1.2,14.8-0.2,22.2c0.3,2.3,1.1,4.4,1.6,6.7c0.8,3.4,1.8,6.8,3.5,9.9c0.2,0.4,0.1,0.9,0.2,1.4c0.7,3.4,1.2,6.8,2.1,10.1
		c1,3.7,2.3,7.3,3.6,10.9c0.6,1.7,1.2,3.3,1.8,4.9c0.5,1.1,1.1,2.1,1.6,3.2c1.1,2.9,2.2,5.8,3.3,8.7c2.2,5.9,4.1,11.8,2.4,18.2
		c-0.4,1.4-0.9,2.7-1.5,4.1c1.5,1.7,3.4,2.2,5.6,2c2.2-0.3,3.5-2,3.3-4.2c-0.1-0.6-0.2-1.4,0.1-1.9c1.1-1.7,0.6-3.2-0.3-4.3
		c0.3-1.2,0.8-2.1,0.6-3c-0.3-1.5-0.9-3-1.6-4.5c-1.3-2.9-2.8-5.7-3.9-8.7c-2.7-6.9-5.2-13.9-7.7-20.8c-0.1-0.4-0.2-0.8-0.1-1.2
		c0.1-1.3-0.2-2.3-1.1-3.3c-0.6-0.7-1-1.7-1.2-2.6c-0.8-2.8-1.4-5.7-2.1-8.5c-0.1-0.5-0.1-1.1-0.3-1.6c-0.6-1.9-1.5-3.7-2-5.6
		c-0.5-1.9-0.6-3.9-1.1-5.9c-0.6-2.7-0.4-5.4-0.7-8.1c-0.2-2.6-1.2-5.1-1.5-7.6c-0.5-5.3-0.6-10.5,2.2-15.4c0.5-0.9,0.8-2.1,1-3.2
		c0.9-4.2,3.1-7.5,6.7-9.8c0.5-0.3,0.8-0.7,1.2-1.1c1-0.9,2-1.9,2.9-2.8C191.2,181.3,191.8,180.8,192.5,180.2z M305.7,326.2
		c-1-0.1-2.1,0-3.2-0.3c-1.1-0.2-2-0.1-3,0.2c-1.1,0.3-2.3,0.5-3.5,0.5c-3.6,0.2-7.2,0-10.8,0.4c-3.3,0.4-6.5,1.4-9.8,2.2
		c-0.6,0.1-1.2,0.3-1.9,0.3c-2.4,0.3-4.9,0.5-7.3,0.9c-5,0.8-9.9,1.7-14.9,2.4c-1.2,0.2-2.4,0.1-3.6,0c-3.4-0.3-6.7,0.1-9.9,1.2
		c-2.3,0.8-4.8,1.2-7.2,1.7c-2,0.4-4.2,0.4-6,1.2c-3.8,1.7-7.9,1.7-11.9,2.3c-3.2,0.5-6.2,1.2-9.3,2.1c-3,0.9-6,1.7-9,2.3
		c-1.5,0.3-3.2,0.1-4.8,0.2c-1.2,0.1-2.2,0.6-2.7,1.7c-0.8,1.8-1.6,3.6-2.3,5.5c-0.4,1.1,0.3,1.8,1.5,1.8c1.5,0,3-0.3,4.3-1.3
		c1.5-1.1,3.2-1.9,5.1-1.7c0.4,0,0.9,0,1.2-0.2c2.2-1.4,4.8-1.5,7.3-2.3c4.8-1.6,9.7-3.1,14.8-3c3.8,0.1,7.4-0.5,11.1-1.3
		c3.1-0.6,6.2-1.3,9.3-2.2c3.7-1.1,7.7-1.3,11.5-2c1.7-0.3,3.4-0.7,5.1-1.1c3-0.7,6-1.7,9.1-2c3.3-0.3,6.6-0.4,9.9-1
		c3.8-0.6,7.1-2.6,10.9-3.3c1.2-0.2,2.4-0.7,3.7-0.7c0.8,0,1.6-0.1,2.4-0.2c4.2-0.8,8.4-1.7,12.7-2.5
		C305.5,328,306,327.5,305.7,326.2z M367.3,425c-0.4-0.1-0.6-0.1-0.7-0.1c-3.9,1.4-7.8,2.8-11.6,4.4c-0.7,0.3-1.3,1.1-1.7,1.9
		c-1.5,2.8-0.2,5.4,0.5,8.1c0.2,0.8,0.8,1.6,1.3,2.3c0.3,0.4,0.7,0.9,1,0.9c1.6-0.1,2.4,0.9,2.9,2.4c5.1-1.4,10.1-2.8,15.1-4.2
		c0.6-0.2,1-0.6,1.9-1.2c-2.4-1.5-4.6-2.8-6.3-5.5c0.8,0.2,1.2,0.3,1.4,0.4c1.3,1,2.5,1.9,4.1,2.4c0.5,0.2,1,0.8,1.3,1.3
		c0.4,0.5,0.5,1.3,0.9,1.5c0.5,0.2,1.2-0.2,1.8-0.4c3.5-1.4,7-2.6,10.8-2.7c0.3,0,0.5-0.2,0.7-0.3c-1.3-2.8-3-5.3-3.6-8
		c-0.7-2.8-0.3-5.8-0.5-8.9c-0.5,0.1-1.1,0.3-1.6,0.4c-2.1,0.5-4.1,1.1-6.2,1.6c-1.8,0.4-3.6,0.6-5.4,1c-2.8,0.7-3.9,2.1-3.9,5
		c0,1.4,0.2,2.7,0.3,4.1c0,0.6-0.1,1.1-0.2,2c-1.8-1.3-1.2-2.9-1.5-4.2C367.7,427.7,367.5,426.3,367.3,425z M290.4,450.1
		c-1.2,0.4-2,0.6-2.8,0.8c-4.5,1.6-9,3.2-13.5,4.9c-0.5,0.2-1,0.7-1.2,1.3c-1.4,3.2-0.6,6.4,0.4,9.5c1,3.3,3.8,4.3,6.8,5
		c0.6,0.1,1.5-0.1,2-0.4c3.1-2.1,6.8-2.7,10.2-4.1c1.5-0.6,3.2-0.8,4.6-2.1c-1.3-1.1-2.4-2.1-3.5-3c-1.4-1.2-2.4-2.6-2.6-4.4
		c-0.2-1.6-0.2-3.2-0.3-4.8C290.4,452,290.4,451.2,290.4,450.1z M293.2,452.8c-1.4,1.5-1.5,2-1.1,3c0.2,0.5,0.6,1,0.8,1.5
		c1.1,2.8,3,4.4,5.9,4.8c0.5,0.1,1.2,0.3,1.5,0.6c0.8,1.1,1.7,0.9,2.8,0.5c1.9-0.7,3.9-1.3,5.9-2.1c2.6-1.1,5.1-2.3,7.6-3.5
		c0.5-0.2,1-0.6,1.3-1c0.4-0.5,0.9-1.1,0.8-1.6c-0.1-0.4-1-0.9-1.5-0.9c-2,0.1-2.8-1.1-3.6-2.6c-1.1-2.3-1.5-4.7-1.7-7.2
		c-0.1-1.6-0.7-1.9-2-1.2c-3,1.6-6,2.9-9.3,3.7c-1.3,0.3-2.6,0.9-3.9,1.3c-1.2,0.4-2,1.1-2.2,2.3c-0.2,1.1-0.2,2.2-0.3,3.3
		c0,0.6,0.4,1.4-0.5,2.1C293.5,454.8,293.4,454,293.2,452.8z M333.9,450.2c0.8-0.1,1.8-0.4,2.6-0.1c2.1,0.6,4,0.1,5.9-0.4
		c2.7-0.8,5.3-1.6,8-2.4c1.2-0.3,2.5-0.5,3.7-0.8c0.9-0.2,1.9-0.3,2.3-1.5c-2.6-1-4.7-2.3-5.3-5.1c-0.3-1.1-0.4-2.3-0.5-3.5
		c-0.1-1.7,0-3.4,0-5.3c-6.4,1.2-12.2,3.3-17.9,5.1c-0.4,1.1-0.7,2-1.1,2.9c-1.1,2.6-0.7,5.1,0.5,7.6
		C332.7,447.8,333.3,448.9,333.9,450.2z M312.4,437.8c-0.8,0-1.2-0.1-1.7,0c-2.7,0.7-5.4,1.3-8.1,2.1c-2.1,0.6-4.3,1.2-6.4,2
		c-3.1,1.2-6.2,2.6-9.3,3.9c-2.2,0.9-4.4,1.8-6.6,2.7c-1.2,0.5-2.3,1-3.5,1.4c-2,0.7-4.1,1.3-6.1,1.9c-4.2,1.2-8.5,2.3-12.7,3.5
		c-2.1,0.6-4.1,1.3-5.8,2.7c-2.2,1.7-4.3,3.7-7.4,3.6c-0.5,0-1.2,0.5-1.6,1c-1.6,1.7-2.7,3.7-3.5,5.9c-1.5,4.2-1,8.3-0.4,12.5
		c0.6,4.2,2.8,7.6,4.8,11.1c0.2,0.3,0.5,0.6,0.8,0.9c1.6,1.6,1.7,1.7,3.7,0.6c1.4-0.8,2.8-1.8,4.2-2.7c0.7-0.5,1.5-0.9,2.2-1.4
		c1.8-1.3,3.6-2.6,5.3-4c0.3-0.2,0.3-0.8,0.5-1.5c-4.5,0.9-8.6,1.6-11.8,4.8c-0.5,0.5-1.3,0.9-2,1.3c-1.7,0.8-2.8,0.1-2.8-1.8
		c0-0.6,0.1-1.3-0.2-1.8c-1.7-3.2-1.8-6.6-1.5-10c0.1-0.6,0-1.3,0.1-1.9c0.4-2.8,0.7-5.5,1.2-8.3c0.2-1,0.9-1.8,2.1-2.1
		c0.9-0.2,1.8-0.5,2.7-0.8c0.6-0.2,1.2-0.3,1.7-0.7c2-1.3,3.9-2.8,6-4c4.1-2.3,11.9-4.8,17.7-6.1c2.6-0.6,5.1-1.8,7.6-2.8
		c3.1-1.1,6.3-2.3,9.5-3.3c3.4-1.1,6.9-1.9,10.3-3.1c2.8-1,5.4-2.7,8.5-3.2C311,440,312,439.5,312.4,437.8z M274,475.1
		c-2.5-6.1-5-11.7-4.2-18.3c-1.2,0.2-2,0.2-2.7,0.4c-1.6,0.5-3.1,1.2-4.7,1.8c-2.3,0.8-3.7,2.1-4.6,4.6c-1,2.5-1.2,4.9-0.7,7.4
		c0.3,1.2,0.4,2.5,0.5,3.8c0.4,3.1,4,6.7,7.8,4.8c2.4-1.2,4.9-2.3,7.3-3.5C273.2,475.8,273.7,475.3,274,475.1z M401.6,413.4
		c-3.9,1.4-7.6,2.6-11.2,3.9c-0.5,0.2-1,1-1.1,1.7c-0.4,1.8-0.5,3.6-0.8,5.4c-0.5,3.9,0.9,7,3.6,9.7c1.7,1.7,3.5,2,5.7,1.2
		c0.5-0.2,1-0.4,1.6-0.6c1.7-0.7,3.4-1.3,5.1-2c1.2-0.5,1.5-1.1,0.7-2.2c-2.1-2.9-3-6.1-3-9.6c0-1.8,0-3.5-0.1-5.3
		C401.9,415,401.7,414.3,401.6,413.4z M224.3,173.8c-0.5-0.3-0.9-0.5-1.2-0.7c-1.5-1.1-2.6-2.6-3-4.5c-0.4-2.1-0.4-4.3-0.9-6.3
		c-0.5-1.9-0.2-3.6,0.3-5.4c0.1-0.3,0.2-0.6,0.3-0.9c0.1-1.1-0.3-1.6-1.4-1.7c-2.1-0.2-4.9,1.1-5.5,3.1c-0.6,2-1,4.2-0.9,6.3
		c0.1,2.4,0.9,4.8,1.4,7.2c1.2,5.3,4.1,9.4,8,13c0.2,0.2,0.4,0.3,0.6,0.4c1.2,0.8,2.5,0.6,3.7-0.4c1.2-1,0.3-1.8-0.2-2.7
		C224.4,179,223.2,176.7,224.3,173.8z M321.7,455.3c3.5-1.1,6.7-1.9,9.8-4.1c-2.7-1.5-3-3.8-2.9-6.3c0.1-1.8,0.1-3.5,0.1-5.3
		c0-0.7-0.1-1.3-0.2-1.9c-0.4-0.1-0.6-0.2-0.7-0.1c-4.1,1.2-8.2,2.5-12.3,3.7c-0.8,0.2-1.3,0.7-1.3,1.5c0,1.5-0.2,3,0,4.5
		c0.4,2.8,2,4.5,4.7,5C320.5,452.8,321.6,453.3,321.7,455.3z M313.7,437.2c0.7,1.6,1.7,1.4,2.7,1.1c0.8-0.2,1.5-0.6,2.2-0.8
		c4.3-1.2,8.4-2.9,12.7-4.1c3.9-1.1,7.6-2.6,11.6-3.5c3.2-0.7,6.4-1.8,9.6-2.8c2.2-0.7,4.3-1.6,6.5-2.4c1.2-0.4,2.5-0.7,3.6-1.3
		c4.5-2.3,9.4-3.4,14.2-4.9c2.7-0.8,5.7-0.5,8.2-2.3c0.4-0.3,0.9-0.2,1.4-0.4c0.8-0.4,1.6-0.7,2.3-1.3c1.1-0.9,2.2-1.4,3.7-1.4
		c0.6,0,1.2-0.3,1.8-0.5c0.9-0.3,1.8-0.7,2.6-1.1c1.1-0.5,2.3-0.7,3.3-2c-2.7,0.8-5,1.6-7.4,2.3c-4.4,1.2-8.7,2.4-13.1,3.6
		c-2.7,0.7-5.4,1.3-8.1,2c-2.1,0.6-4.1,1.2-6.2,1.9c-3.1,1.1-6.2,2.1-9.2,3.3c-2.8,1.1-5.5,2.6-8.4,3.5c-6.9,2.3-14.1,3.3-20.9,6
		C322.5,433.8,318.2,435.4,313.7,437.2z M94,314.1c0.6,1.5,1.4,1.7,2.3,1.6c2-0.1,4-0.3,5.8-1.4c0.5-0.3,1.2-0.6,1.8-0.6
		c2.5,0,4.8-0.3,7.3-0.9c4.8-1.1,9.7-1.8,14.6-2.6c0.3-0.1,0.6,0,0.9,0c1,0,2,0,3-0.1c3.2-0.5,6.4-1.2,9.6-1.7
		c1.9-0.3,3.8-0.5,5.6-0.9c1.2-0.2,2.3-0.5,3.5-0.8c3.5-0.7,7.1-0.5,10.5-1.9c2.3-1,4.8-1.1,7.3-1c1.5,0.1,3,0.2,4.5,0.1
		c2,0,2.6-0.8,2.6-3.2c-2.8,0.4-5.6,0.7-8.4,1.1c-1,0.1-2.1,0.2-3,0.5c-4.3,1.8-8.8,2.1-13.4,1.8c-1.6-0.1-3,0.1-4.4,0.6
		c-1.7,0.5-3.6,0.7-5.3,1c-0.9,0.2-1.7,0.3-2.6,0.5c-1.3,0.3-2.6,0.6-4,0.8c-2.3,0.3-4.6,0.6-6.9,0.7c-2.2,0.1-4.4,1.3-6.6,0.6
		c-2-0.6-3.9-0.1-5.8,0.7c-3.8,1.7-7.7,3.1-11.6,4.6c-1.2,0.4-2.5,0.4-3.8,0.5C96.5,314.1,95.4,314.1,94,314.1z M254.2,464.7
		c-2-0.7-3.9-0.3-5.4,1.3c-1.2,1.3-2.1,2.8-2.2,4.6c-0.2,1.9-0.5,3.8-0.7,5.7c-0.3,2.5-0.1,4.9,0.9,7.3c0.8,1.8,1.3,1.9,3.1,1
		c1.1-0.6,2.3-1.2,3.4-1.6c1.7-0.7,3.4-1.2,5.2-1.8c-0.2-0.5-0.4-1-0.7-1.3c-1.9-2.2-3-4.6-2.8-7.6c0-0.6-0.2-1.3-0.2-1.9
		C254.5,468.6,254.4,466.8,254.2,464.7z M269.8,312.6c-1.6-1.3-3.2-2.2-5.2-2.2c-1,0-1.8-0.3-2.5-1c-0.7-0.7-1.7-1.1-2.6-1.5
		c-1.2-0.5-2.4-0.9-3.6-1.4c-2-0.8-4-1.6-6-2.3c-1.7-0.5-3.4-0.7-4.7-2.2c-0.3-0.3-0.9-0.3-1.3-0.5c-1.1-0.4-2.2-0.8-3.4-1.2
		c-0.8-0.2-1.5-0.5-2.3-0.5c-3.2,0.2-6.1-1.1-9.1-1.9c-0.8-0.2-1.7-0.5-2.5-0.8c-0.8-0.3-1.6-0.8-2.6-1.3c-0.2,1.6-0.4,3,0.7,3.9
		c1.3,0.9,2.7,1.6,4.2,2.2c1.7,0.7,3.4,1.3,5.1,1.9c0.9,0.3,1.8,0.6,2.7,0.8c3.9,0.7,7.8,1.4,11.7,2.1c2.1,0.4,4.4,0.6,6.2,1.5
		c3.5,1.8,7.6,1.9,11,3.9c0.8,0.5,1.8,0.6,2.8,0.7C268.9,312.9,269.4,312.7,269.8,312.6z M181.2,304.7c0.7,0.7,1.5,1.6,2.4,2.4
		c1.9,1.9,4.6,2.1,7,2.8c4,1.1,8,0.8,11.7-0.7c2.4-1,4.9-1.9,7.4-2.5c0.5-0.1,0.9-0.5,1.6-1c-0.9-0.8-1.5-1.5-2.3-2
		c-1.1-0.7-2.3-1.2-3.4-1.7c-1.7-0.8-2.2-0.4-3,1.3c-1.4,2.8-3.4,4.8-6.7,4.9c-1.2,0-2.4,0-3.6-0.2c-1.8-0.2-3-1.5-3.3-3.3
		c-0.1-0.4-0.2-0.9-0.4-1c-1.1-0.7-1.4-1.5-1.3-2.8c0.1-0.9-0.9-1.8-1.5-1.4c-1.1,0.6-2.1,1.4-2.9,2.3
		C182.1,302.5,181.8,303.5,181.2,304.7z M404,418.4c-0.2,3.3,0.3,6.9,1.2,8.7c1.8,3.8,3.1,4.3,6.9,2.6c0.1,0,0.2-0.1,0.2-0.1
		c1.2-0.6,1.2-1,0.6-2.2c-1.3-2.4-2.6-4.7-2.6-7.5c0-2.2-0.1-4.4-0.3-6.6c-0.1-0.6-0.6-1.4-1.1-1.6c-2.5-0.9-4.9,0.8-5,3.5
		C404,416.2,404,417.3,404,418.4z M378.1,390.6c-1.6,1-2.7,1.7-3.9,2.3c-0.8,0.4-1.2,0.9-1.2,1.9c0.1,1.5,0.5,2.7,2.1,3.1
		c2.1,0.6,4.1,1.4,6.2,1.7c1.7,0.3,3.5,0.4,5.1-0.5c1.1-0.6,2.8-1.2,2.6-2.4c-0.1-1-1.4-2-2.4-2.7
		C384,391.9,380.8,391.3,378.1,390.6z M242.6,372.2c-0.3-1.5-1.3-1.3-2.1-1.5c-2.3-0.5-4.7-0.8-6.9-1.6c-3.2-1.1-6.3-2.6-9.5-3.9
		c-2.2-0.9-4.4-1.7-6.7-2.5c-3.3-1.1-6.7-2.1-10-3.3c-2.8-1-5.6-2.4-8.4-3.5c-1.6-0.7-3.3-1.1-4.9-1.7c-1.9-0.8-2.1-0.9-4,1.1
		c0.6,0.3,1.1,0.6,1.6,0.8c0.7,0.2,1.4,0.3,2.1,0.5c2.5,1.1,4.9,2.3,7.5,3.2c2.6,0.9,5.3,1.6,8,2.2c3.3,0.6,6.6,0.8,9.6,2.6
		c2.3,1.3,4.7,2.3,7.2,3.2c4.2,1.6,8.6,3,12.8,4.4C240.1,372.6,241.2,372.8,242.6,372.2z M306.5,339.6c-0.4-1.8-0.7-3.4-1.1-5
		c-0.1-0.5-0.3-1.1-0.6-1.6c-0.8-1.6-1.3-1.7-3.1-1.2c-1.4,0.5-2.9,0.7-4.4,1.1c-0.9,0.3-1.8,0.6-2.5,0.8c-1.4,0.1-2.6,0-3.6,0.4
		c-1.2,0.5-2.6-0.7-3.6,0.8c0.4,0.2,0.7,0.6,1,0.6c1.6,0.1,3,0.5,4.5,1.1c1.2,0.5,2.1,1.3,3.2,1.8c1.5,0.7,3.2,1,4.6,1.9
		C303.3,341.8,304.9,341.5,306.5,339.6C306.5,339.6,306.5,339.5,306.5,339.6z M309.4,330.5c-0.2,0.2-0.6,0.6-0.5,0.8
		c0.1,0.4,0.5,0.8,0.8,0.9c0.9,0.4,2.2,0.3,2.9,0.9c3.1,3.2,7.6,4.6,10.7,7.9c2,2.2,4.7,3.8,5.7,6.9c0.3,0.8,0.5,1.7,0.9,2.5
		c0.6,1.2,1.3,2.4,2.1,3.4c0.2,0.3,1,0.2,1.5,0.3c0.1-0.5,0.1-1,0.2-1.5c0-0.1-0.1-0.3-0.2-0.4c-1.1-1.3-1.6-2.7-1.9-4.3
		c-0.1-0.7-0.5-1.3-0.9-1.9c-4.2-6.5-10.5-10.6-17.1-14.2C312.2,331.2,310.8,331,309.4,330.5z M204,313.4c-1.9,0.3-3.7,0.5-5.3,0.9
		c-0.5,0.1-0.8,0.8-1.1,1.3c0.4,0.3,0.9,0.8,1.2,0.7c3.8-0.9,7.7,0,11.5-1.3c3.5-1.2,5.1-3.4,4.1-7.3c-0.5,0.2-1,0.5-1.5,0.7
		c-0.9,0.4-1.7,1-2.6,1.1C207.4,309.8,205.2,311.1,204,313.4z M206.3,295.9c0,0,0,0.1,0,0.1c-0.2,0-0.5,0-0.7,0
		c-0.8-0.1-1.7,0-1.8,1c-0.1,0.9,0.5,1.3,1.3,1.5c3.4,0.9,6.8,1.8,10.3,0.5c0.6-0.2,1.4-0.1,2.1,0c0.5,0,0.9,0.3,1.4,0.3
		c1.2,0,1.9-1,1.8-2.6c-0.1-1.3-0.7-1.8-2-1.7C214.5,295.4,210.4,295.6,206.3,295.9z M317.9,341c-0.2,1.2-0.4,2.4-0.7,3.8
		c-0.8-1.7-0.3-3.4-1.2-4.7c-1.9,1,0.2,3.4-1.9,4.5c-0.2-0.6-0.6-1.3-0.4-1.6c0.9-1.5,0-3.1,0.2-4.7c0.1-1-0.3-2-1.5-2.1
		c-1-0.2-2.1,0.8-2.3,1.9c-0.1,0.6-0.2,1.2-0.2,1.6c0.7,0.8,1.8,1.6,1.7,2.1c-1,3,1.1,3.6,3.1,4.4c0.4,0.1,0.8,0.4,1.1,0.3
		c1.2-0.4,2.3,2.4,3.4,0.2c0.6-1.2,0.5-2.7,0.5-4C319.8,341.8,319.4,341,317.9,341z M266.8,482.2c2.2-0.1,3.9,0.2,5.4-1.1
		c4.1-3.9,9.4-5.4,14.5-7.3c1.6-0.6,3.2-1.5,4.7-2.3c0.3-0.2,0.5-0.7,1.1-1.5c-1.1,0.2-1.7,0.3-2.3,0.5c-1,0.4-2.1,0.9-3.1,1.2
		c-3.2,1.1-6.2,2.4-9,4.3c-1.6,1-3.4,1.8-5.1,2.6c-1.9,0.9-3.7,1.8-5.6,2.7C267.3,481.3,267.2,481.5,266.8,482.2z M298.8,323.1
		c-1.9-1.3-3.5-2.8-5.5-3.6c-2.3-1-4.9-1.5-7.3-2c-3.2-0.6-6.4-1.1-9.3-2.8c-0.4-0.2-1-0.3-1.7-0.5c0.9,1.6,2.5,1.7,3.8,2.3
		c2.8,1.4,5.8,2.1,8.8,2.8c2.8,0.7,5.5,1.4,7.6,3.6C296,324,297,324,298.8,323.1z M230.4,403.9c1.2,0.8,2.2,1.5,3.2,2.2
		c0.5,0.3,1.2,0.8,1.6,0.6c1.2-0.5,2.3-1.3,3.4-1.9C235.6,400.5,232.8,401.3,230.4,403.9z M229,396.2c-0.4-0.4-0.9-0.8-1.4-1.2
		c-0.8-0.7-1.7-1.3-2.2-2.1c-0.8-1.2-1.8-1.3-2.9-1c-0.4,0.1-1.1,0.4-1.1,0.7c-0.1,0.5,0.2,1.1,0.5,1.4c1.4,1.2,2.8,2.3,4.4,3.4
		C227.5,398.3,228,398,229,396.2z M252.7,374.8c-2-1-3.8-1.9-5.6-2.7c-0.4-0.2-1.4,0-1.5,0.2c-0.2,0.5-0.2,1.3,0.1,1.7
		C246.9,376.1,250.3,376.6,252.7,374.8z M238.5,415.8c-1.2-1.6-2.2-3.1-3.3-4.6c-0.9-1.2-2.1-1.1-3.4,0.4c1.4,1.5,2.8,3.2,4.3,4.7
		C236.9,416.9,237.8,416.6,238.5,415.8z M222.1,402.2c1.1-3.9,0.2-5.6-3.7-6.5C218.8,398.2,219,400.9,222.1,402.2z M239.8,411.1
		c1,2.5,2.4,2.8,4.5,1.5c1-0.6,1.1-1.3,0.3-2.1c-0.7-0.7-1.6-1.1-2.6-0.6C241.2,410.3,240.5,410.7,239.8,411.1z M218.6,408.8
		c-0.4-2.9-4.1-8.9-6.1-9.7C212.8,401,217,407.6,218.6,408.8z M384.7,403.2c0,0.2,0,0.4,0,0.5c1.3,0,2.6,0.2,3.9,0
		c1.6-0.3,2-1.3,1-3C388,401.6,386.4,402.4,384.7,403.2z M194.7,174.1c0.3,1.3,0.5,2.3,0.8,3.3c0.2,0.4,0.6,0.8,1.1,1
		c0.2,0.1,0.8-0.2,1-0.5c0.6-0.8-0.6-4.1-1.6-4.2C195.5,173.6,195.1,173.9,194.7,174.1z M193.9,314.7c-0.5-0.4-1-0.7-1.6-1.2
		c-0.5,1.3-0.3,2.3,0.8,2.7c0.7,0.3,1.8,0.2,2.4-0.2c0.7-0.5,1.2-1.5,0.1-2.5C195,314,194.5,314.3,193.9,314.7z M193.7,174.9
		c-1.2,0-1.7,0.7-1.7,1.6c0,0.8,0.3,1.5,0.7,2.2c0.2,0.3,0.7,0.4,1.1,0.6c0.2-0.4,0.6-0.9,0.6-1.3
		C194.3,177.1,194,176.1,193.7,174.9z M321.5,343.5c-0.3,1.7-0.6,3-0.7,4.4c0,0.3,0.5,0.9,0.8,0.9c0.3,0,1-0.5,1-0.8
		c0.1-1.3,0-2.6-0.1-3.9C322.5,344,322.1,343.8,321.5,343.5z M227.8,407.8c0.9,0.6,1.6,1.2,2.3,1.7c1-1.9,1-1.9-0.8-4.3
		C228.8,406,228.3,406.8,227.8,407.8z M227,402.4c-0.3-0.3-0.6-0.7-0.9-0.9c-0.1-0.1-0.6,0.4-0.8,0.6c-0.3,0.7-0.7,1.4-0.8,2.2
		c-0.1,0.3,0.2,0.9,0.5,1.1c0.1,0.1,0.9-0.1,1-0.3C226.4,404.4,226.7,403.5,227,402.4z M203.1,172c-0.2,0-0.5,0-0.7,0
		c-0.1,1-0.3,1.9-0.4,2.9c0,0.2,0.5,0.6,0.8,0.6c0.2,0,0.7-0.3,0.7-0.5C203.6,174,203.8,172.9,203.1,172z M324.9,346.3
		c-1,1-0.8,2.2-0.7,3.4c0,0.3,0.5,0.6,0.8,0.6c0.3,0,0.8-0.4,0.8-0.6C325.8,348.5,326,347.3,324.9,346.3z M205.5,175.3
		c1.7-1.4,1.7-1.7-0.2-2.9C205.4,173.4,205.4,174.4,205.5,175.3z M199.5,176.2c1.5-0.4,1-1.2,0.8-1.9c-0.2-0.7-0.4-1.4-1.7-0.9
		C198.9,174.3,199.2,175.2,199.5,176.2z M246.8,379.4c0.1-0.2,0.3-0.4,0.4-0.5c-0.9-1.2-2-2.1-3.5-2.5c-0.1,0.2-0.2,0.3-0.3,0.5
		C244.6,377.7,245.7,378.6,246.8,379.4z M379.4,405.6c1.6-2,1.5-2.4-0.6-2.9C379,403.7,379.1,404.4,379.4,405.6z M190.5,316
		c-0.5-1.2-0.6-2.1-1.8-2.4C188.5,315,188.6,315.9,190.5,316z M351.7,31.3c0.9-0.3,1.8-0.1,1.7-1.3c0-0.3-0.7-0.8-1-0.7
		C351.3,29.4,351.4,30.2,351.7,31.3z M183.4,312.3c-0.7,1.2-1.1,2-0.1,2.9C184.2,314.1,184.2,314.1,183.4,312.3z M223.2,415.4
		c-0.7-2.2-0.7-2.2-2.6-3.2C221.6,413.5,222.4,414.4,223.2,415.4z M180.6,310.2c-0.9,1.1-0.8,1.3,0.2,3.1
		C180.7,312.4,180.6,311.4,180.6,310.2z M376.9,404.8c0.2-0.1,0.4-0.1,0.7-0.2c0.4-0.9,0.3-1.5-1.2-2.1
		C376.6,403.5,376.7,404.1,376.9,404.8z M374,401.4c-0.7,1.1-0.7,1.8,0.3,2.5C375.1,403,375.1,402.3,374,401.4z M274.7,472.1
		c0.3,0.8,0.4,1.3,0.6,1.6c0,0.1,0.7,0,0.8-0.2C276.5,472.8,276,472.5,274.7,472.1z M290.9,388.7c-1-0.6-1.6-0.3-2.4,0.5
		C289.5,389.6,290.2,389.6,290.9,388.7z M186.6,315.4c0.9-0.6,0.8-1.1,0-2C186.6,314.3,186.6,314.8,186.6,315.4z M303.6,382.7
		c-0.3-0.1-0.5-0.3-0.7-0.3c-0.1,0-0.2,0.2-0.4,0.2c0.1,0.1,0.2,0.4,0.4,0.4C303.1,383.1,303.3,382.9,303.6,382.7z"/>
	<path d="M110.5,345.4c0.8,6.7-0.2,13-0.8,19.3c-0.3,3.4-1.2,6.8-1.9,10.1c-0.2,0.8-0.6,1.6-1.1,2.4c-1.9,3.1-3.1,6.5-3.9,10
		c-0.2,0.8-0.5,1.5-0.7,2.3c-1.1,3.1-2.1,6.2-3.2,9.2c-0.4,1.1-1,2.2-1.4,3.3c-1.4,3.6-2.8,7.3-4.3,10.9c-1.4,3.2-3.2,6.3-6.1,8.4
		c-0.6,0.4-1.4,0.7-2.2,0.9c-0.9,0.2-1.6-0.4-1.8-1.2c-0.1-0.4,0.4-1.2,0.8-1.5c2-1.2,3.5-2.9,4.5-4.9c1-2,1.7-4.1,2.6-6.2
		c1.1-2.8,2.2-5.6,3.5-8.4c0.6-1.3,1.1-2.6,1.5-4c0.7-2.8,1.9-5.4,2.9-8.1c0.3-0.7,0.8-1.5,0.7-2.2c-0.1-1.6,0.6-2.9,1.3-4.3
		c1.5-3.1,3-6.2,4.2-9.4c0.5-1.2,0.4-2.6,0.6-4c0.4-3.6,1.6-7.2,1.3-10.9c-0.1-0.6,0-1.3,0.1-1.9c1.1-4.1-0.1-7.9-1.5-11.7
		c-0.3-0.7-1.1-1.3-1.8-1.9c-0.8-0.7-1.2-1.5-0.6-2.5c0.6-1,1.6-1.3,2.7-0.8c0.8,0.3,1.5,0.9,2.3,1.3c2.7,1.6,5.2,3.8,8.3,4.6
		c2.9,0.7,5.8,1.2,8.7,1.8c1.6,0.3,3.1,0.7,4.6,1.2c4.1,1.2,8.2,2.5,12.3,3.8c1.7,0.5,3.4,1,5,1.7c3.2,1.4,6.3,3.1,9.5,4.6
		c4.3,2,8.7,3.6,13.5,3.8c0.6,0,1.3,0,1.9,0.2c1.4,0.5,1.8,1.1,1.4,2.5c-1.3,5.7-1.4,11.6-1.4,17.4c0,1.8,0.4,3.6,0.5,5.5
		c0.2,2.2,0.3,4.5,0.3,6.7c0,1.3,0.3,2.2,1.6,2.6c2.6,0.8,5.1,1.8,7.8,2.4c4.2,0.9,8,2.5,11.8,4.4c5.6,2.8,9.1,7.1,11.8,12.4
		c2.8,5.6,3.5,11.4,2.6,17.7c-0.6,4-0.5,8.1-0.2,12.2c0.2,2.6,1.5,5,2.3,7.5c0.5,1.5,1.1,3,1.7,4.5c0.1,0.3,0.3,0.6,0.5,0.8
		c0.5,0.7,1.1,1.4,2,1c1-0.4,1-1.4,0.7-2.3c-0.1-0.5-0.4-0.9-0.5-1.3c-0.4-1.1,0.2-1.8,1-2.5c0.8-0.6,1.5-0.3,2.2,0.2
		c0.8,0.6,1.4,1.3,1.9,2.3c2.2,4.4,4.1,9,7.1,13c1.1,1.4,1.8,3,2.4,4.7c0.2,0.6,0.1,1.6-0.2,2.2c-0.5,1-1.5,1.1-2.5,0.9
		c-1.2-0.3-2.3-0.5-3.5-0.9c-2.3-0.8-4.6-1.7-6.9-2.6c-3.1-1.1-5.7-3.1-8.9-4c-2.7-0.7-5.3-2.2-8-3.2c-2.1-0.8-4.4-1.3-6.6-1.9
		c-0.4-0.1-0.8-0.1-1.1-0.3c-1.8-0.7-3.5-1.5-5.3-2.2c-1.4-0.5-2.9-0.8-4.3-1.2c-0.6-0.2-1.3-0.2-1.8-0.6c-3.5-2.2-7.5-3-11.3-4.4
		c-3-1.1-5.8-2.5-8.8-3.8c-1.7-0.7-3.4-1.4-5-2.2c-1.9-0.9-3.8-2.1-5.7-2.9c-4.2-1.7-8.3-3.6-12.7-4.6c-3-0.7-5.9-1.9-8.9-2.5
		c-0.8-0.2-1.6-0.2-2.4-0.3c-1-0.2-2.1-0.2-3-0.6c-3.1-1.1-6.2-2.4-9.4-3.6c-0.8-0.3-1.7-0.6-2.5-0.8c-2.1-0.6-4.2-1.1-6.2-1.8
		c-4.1-1.3-8.1-2.8-12.2-4.1c-1.5-0.5-3.1-0.6-4.7-0.9c-1.2-0.2-2.3-0.7-3.4-0.8c-0.9-0.1-1.9,0.1-2.8,0.2c-0.5,0.1-0.9,0.2-1.4,0.2
		c-0.9-0.1-1.9-0.5-1.9-1.5c0-0.5,0.7-1.2,1.3-1.4c2.2-1,4.3-1.2,6.7-0.3c3.3,1.2,6.8,1.8,10.1,2.8c5.9,1.8,11.7,3.6,17.6,5.5
		c1.3,0.4,2.6,0.9,3.8,1.5c3.5,1.5,7.2,2.6,11.1,2.6c0.8,0,1.5,0.4,2.3,0.6c0.8,0.2,1.5,0.9,2.6,0.2c-1.4-1.4-3.1-2.1-4.8-2.6
		c-3.1-0.9-6.2-1.5-9.2-2.4c-2.6-0.8-5.2-1.7-7.6-2.9c-2.6-1.3-5.1-2.7-8-2.9c-3.2-0.2-6-1.5-8.8-2.7c-0.6-0.2-1.3-0.2-1.9-0.2
		c-1-0.1-1.9-0.6-2.3-1.5c-0.4-1,0.1-1.7,0.8-2.3c2.7-2.2,3.9-5.4,5.6-8.3c0.9-1.5,1.7-3.1,2.6-4.6c2.4-4.1,3.5-8.7,4.9-13.2
		c0.2-0.5,0.4-1,0.6-1.5c0.3-0.8,0.6-1.6,0.9-2.4c0.3-1.1,0.7-2.1,0.9-3.2c0.5-2.4,0.9-4.9,1.4-7.3c0.5-2,0.9-4.1,1.8-5.9
		c0.9-1.9,1.4-3.9,1.6-6c0.2-1.6,0.9-3,1.2-4.5c0.7-2.8,1.1-5.8,1.5-8.7c0.2-1.5,0.7-2,2.1-2c0.3,0,0.7,0,1,0.1
		c5,1.6,10.4,1.2,15.2,3.8c1.4,0.7,3,0.9,4.5,1.3c4.5,1.4,8.9,3,13.4,4.4c4.3,1.4,8.5,2.6,12.8,4c0.6,0.2,1.2,0.4,1.8,0.7
		c2.1,1.2,2.4,1.7,1.8,4.2c-0.6,2.6-0.6,5.2-0.3,7.9c0.2,1.2-0.1,2.5-0.1,3.8c0,0.6-0.1,1.1-0.1,1.7c0.3,4.2,0.6,8.4,0.9,12.6
		c0.1,0.8,0.1,1.6,0.3,2.4c0.3,1.6,0.7,2,2.2,1.9c3-0.3,5.6,0.7,8.3,1.7c4,1.5,8,3.3,11.6,5.6c2.5,1.6,4.4,3.9,6.2,6.3
		c1,1.3,1.8,2.6,2.7,4c1.6,2.5,2.6,5.2,2.9,8.3c0.3,2.9,0.6,5.7,0.3,8.5c-0.5,4.5-0.1,9,0,13.6c0.1,4,1.5,7.5,4.4,10.3
		c2.6,2.5,2.5,2.8,0.4,6.1c5.8,2,10.8,5.8,17,7.4c0.2-2.5-1.7-3.9-2.4-5.8c-0.7-1.9-1.3-3.9-2.9-5.5c-0.7,0.5-1.3,1.1-2,1.4
		c-2.4,1.2-6.4-0.3-7.6-2.8c-2.4-5.1-3.5-10.6-4.3-16.1c-0.1-0.8,0.1-1.6,0.1-2.4c0.1-5.7,0.2-11.5,0.3-17.2c-1.1-3-2-6.1-3.4-8.9
		c-1.1-2.2-2.7-4.1-4.9-5.5c-0.1-0.1-0.3-0.2-0.4-0.3c-2.4-3.3-6-4.6-9.4-6.2c-0.1-0.1-0.3-0.1-0.4-0.2c-4.4-0.9-8.5-2.5-12.9-3.2
		c-1.4-0.2-2.8-0.4-3.7-1.8c-0.7-1-1-1.9-0.6-3.1c0.5-1.9,0.6-3.8,0.1-5.8c-0.6-2.3-0.3-4.9-0.4-7.4c-0.1-2-0.2-4-0.1-6
		c0.1-2.4,0.2-4.8,0.6-7.1c0.2-1.2,0-1.9-0.9-2.4c-1.1-0.7-2.1-1.4-3.3-1.8c-5.6-1.7-10.9-3.9-15.9-7c-1.9-1.1-4.1-1.6-6.2-2.3
		c-2.2-0.7-4.4-1.4-6.6-2.1c-2-0.6-4.1-1.2-6.2-1.7c-0.2,0-0.3,0-0.5-0.1c-3.9-1.9-8.2-2.4-12.5-3.2c-1.5-0.3-3-1.2-4.5-1.7
		C112,345.7,111.4,345.6,110.5,345.4z M168.9,404.2c-1.6-0.5-2.1,0.6-2.5,1.6c-1.2,3.2-2.3,6.4-3.5,9.7c-0.2,0.7-0.5,1.4-0.9,1.9
		c-0.2,0.3-0.9,0.3-1.3,0.2c-0.2,0-0.4-0.7-0.3-1c0.3-1.2,0.6-2.3,1-3.5c1.7-5.1,3.6-10.1,3.5-15.5c0-1,0.3-2.1-1.1-2.6
		c-1.9,1.9-0.9,5.2-3.6,7c0.1-2.1,0.5-3.7,1.2-5.4c1.5-3.5,2.6-7,2.2-10.9c-0.2-2.2-0.1-4.4,1-6.5c0.7-1.3,0.3-2.3-0.8-3.1
		c-0.4-0.3-0.9-0.6-1.4-0.9c1.3-1.5,1.9-5.8,0.9-7c-0.4-0.5-1.2-1-1.8-1.1c-1.3-0.2-2.7-1.3-4.1,0c-0.1,3.5-1,4.7-2.9,3.8
		c0.7-1.4,1.5-2.8,2.2-4.1c-2-2.3-3.2-1.9-4.3,1.4c-1.1,0.1-1.5-0.4-1.5-1.5c0.1-2.1,0-2.1-2-2.7c-0.5-0.2-1-0.4-1.6-0.6
		c-2.2-0.9-2.5-0.7-3.1,1.6c-0.4,1.6-0.9,3.2-1.4,4.6c-1.4,0-1.5-0.7-1.3-1.5c0.3-1.4,0.7-2.8,1-4.2c0.4-1.6,0.1-2.1-1.4-2.8
		c-1.9-0.8-3.9-1.5-5.8-2.3c-2.9-1.3-2.9-0.2-3.9,1.8c-0.2,0.4-0.2,0.9-0.4,1.4c-0.4,0.9-0.9,1.8-1.3,2.6c-0.2-0.1-0.3-0.1-0.5-0.2
		c0-0.4,0-0.9,0.1-1.3c0.4-1.5,0.9-2.9,1.2-4.4c0.3-1.3-0.1-1.7-1.4-2c-1.1-0.2-1.9,0.1-2.4,1.1c-0.4,0.7-0.9,1.4-1.4,2.1
		c-0.2-0.9,0-1.7-0.1-2.5c0-0.5-0.2-1.2-0.5-1.5c-1.1-1-4-0.2-4.4,1.3c-0.2,0.6-0.4,1.2-0.5,1.9c-0.2,0-0.3-0.1-0.5-0.1
		c0-0.8,0-1.5,0-2.3c0-0.9-0.2-1.6-1.3-1.7c-0.9-0.1-1.5,0.3-1.7,1.3c-0.8,3.9-1.9,7.8-2.3,11.7c-0.3,3-0.8,5.8-1.6,8.7
		c-0.4,1.3-0.8,2.6-1.1,3.9c-0.8,3.6-1.1,7.2-2.4,10.7c-1.2,3.2-2.2,6.5-3.4,9.7c-0.7,2-1.5,4-2.4,6.2c0.7,0.3,1.3,0.7,1.8,0.9
		c0.9-0.8,1.6-1.3,2.3-2c0.5-0.6,1-1.2,1.4-1.9c0.7-1.5,1.5-3,2-4.6c1-3.2,2-6.4,2.9-9.6c0.5-1.9,0.9-3.9,1.3-5.8
		c1.1-5.1,3.1-10.1,2.9-15.8c0.3,0.9,0.4,1.5,0.7,2c1.2,2.2,0.6,4.4,0,6.5c-0.9,3.6-2,7.2-3,10.8c-0.1,0.3-0.2,0.6-0.2,0.9
		c-0.8,4.8-2,9.5-4.2,13.9c-0.2,0.3-0.1,0.7-0.1,1.5c0.9-0.5,1.6-0.7,2.1-1c2.1-1.2,3.2-3.2,4.2-5.3c1.8-3.5,4.4-6.7,4.4-10.9
		c0-0.2,0.1-0.5,0.2-0.7c1.3-1.8,1.1-4,1-6c-0.1-3.1-0.8-6.1-0.9-9.2c-0.1-2.9,1.2-4.5,4.2-4.4c1.6,0.1,3.3,0.6,4.9,0.9
		c1.4,0.3,2.7,0.5,3.5-1.1c0-0.1,0.3,0,0.5,0c0.1,0.5,0.1,1,0.2,1.6c1.5,0.1,2.9,0.4,3.2,2c0.3,1.7,0.7,3.4-1.1,5
		c-1.9,1.6-2.9,4-1.6,6.8c0.9-0.2,1.7-0.3,2.5-0.5c0.7-0.2,1.4-0.8,2.2-0.9c1.9-0.3,3.4-1.2,5-2.3c0.7-0.5,1.5-0.8,1-1.8
		c-0.5-1.1-1.3-0.5-2.1-0.2c-0.1,0-0.3-0.1-0.4-0.2c-0.7-1.8-0.7-1.8,0.3-3.3c1.3,0.1,2.5,0.3,3.6,0.2c3.6-0.5,7,0.1,10.3,1.5
		c0.7,0.3,1.4,0.8,1.9,1.4c1.1,1.3,0.7,2.7-1,3c-1.1,0.2-1.7,0.8-2.1,1.7c-1,2-2,4-3.1,6c-0.3,0.5-0.7,1-1.2,1.4
		c-1.3,0.8-2.6,1.6-4,2.2c-0.7,0.3-1.5,0.6-2.3,0.5c-2.5-0.2-4.9,0.1-7.1,1.2c-0.8,0.4-1.4,0.7-1.5,1.6c-0.2,1,0.6,1.4,1.3,1.8
		c2.5,1.2,3.1,3.5,2.8,5.8c-0.4,2.8,1,5,1.7,7.4c0.3,1.1,1.7,1.1,2.1-0.1c0.5-1.7,2-1.8,2.9-2.4c0.7,1.3,1.3,2.4,2,3.6
		c1.4,2.5,1.4,5.2,1.1,7.9c-0.1,0.7-0.8,1.6-1.5,2c-1.3,0.9-2.8,1.1-4.4,0.6c-0.7-0.2-1.5-0.5-2.5-0.8c-0.7,1.8-1.4,3.5-2.1,5.2
		c-0.9,2.2-1.7,4.5-2.6,6.7c-0.3,0.8-0.7,1.8-2.1,1.7c0.1-0.5,0-0.9,0.2-1.2c2.4-3.5,3-7.7,4.4-11.6c0.3-0.8,0.3-1.5-0.5-2.1
		c-1.2-0.8-2.3-1.8-3.4-2.7c-2.3,5.3-4.7,10.7-7.2,16.4c0.6,0.4,1.3,0.8,2,1.1c4.8,2.5,10.3,3.3,15.3,5.3c0.1,0,0.3-0.1,0.4-0.2
		c1.1-4.3,1.1-4.3,2.2-5.2c0.8,1.1-0.1,2-0.2,3c-0.1,1-0.3,2-0.5,3.2c1.2,0.5,2.2,1,3.4,1.3c1.4,0.5,3,0.7,4.4,1.2
		c2.9,1,2.9,1.1,3.6-1.9c0.1-0.6,0.2-1.3,0.4-1.9c0.1-0.4,0.4-0.8,0.8-1.4c1.8,2.4,0.5,4.4-0.3,6.6c1.9,1.2,3.8,2.3,6.1,2.6
		c0.6,0.1,1.2,0.3,1.8,0.5c1.7,0.6,3.3,1.2,4.9,1.8c1.1,0.4,1.7-0.1,1.8-1.2c0.1-0.9,0.3-1.8,0.4-2.7c0.2,0,0.4,0,0.6,0
		c0,1.1,0.2,2.1,0.1,3.2c-0.1,1.2,0.3,2.1,1.2,2.7c1.8,1.1,3.6,2.1,5.4,3c1.6,0.7,2.3,0.1,2.7-1.6c0.1-0.6,0.2-1.1,0.3-1.7
		c0.2,0,0.4,0,0.6,0c0,0.7,0,1.3,0,2c-0.1,1.1,0.2,1.9,1.2,2.5c2.2,1.2,4.5,1.7,7.1,2.2c-0.1-0.9-0.2-1.4-0.1-2
		c0.7-5.1,1.4-10.3,2-15.4c0.2-1.2,0.3-2.4,0.3-3.6c0.1-1.7,0-3.4,0.2-5c0.1-1.6,0-3.1,0-4.7c-0.1-4-2.5-6.6-4.6-9.5
		c-0.2-0.2-0.5-0.3-0.9-0.5c-0.2,0.4-0.5,0.8-0.5,1.1c-0.5,3.1-0.7,6.3-1.4,9.4c-1.6,6.4-1.8,12.9-2.3,19.4c0,0.5-0.2,1.1-0.3,1.6
		c-0.4-0.8-0.6-1.5-0.5-2.2c0.8-3.3,0.3-6.7,0.5-10c0.1-0.8,0.2-1.6,0.3-2.4c0.6-4.4,1.2-8.7,1.8-13.1c0.2-1.2,0.1-2.5,0.5-3.5
		c0.9-2.2,0.4-3.7-1.6-4.8c-0.2-0.1-0.3-0.3-0.5-0.5c-2.8-2.1-4.2-1.5-4.9,1.9c-0.6,3-1,6-1.6,9c-0.6,3-1.1,6.1-2.1,9
		c-0.5,1.4-0.9,2.8-1.1,4.3c-0.2,1.9-0.6,3.8-0.9,5.6c-0.4-1.4-0.8-2.9-0.5-4.2c0.8-4.2,1.8-8.3,2.7-12.4c1-4.8,2.5-9.6,3.1-14.5
		c0.1-0.5-0.2-1.4-0.6-1.7c-2.6-2-4.1-1.7-5.6,1.2c-0.2,0.4-0.4,0.7-0.5,1.1c-0.9,3.4-1.8,6.7-2.7,10.1c-0.4,1.5-0.8,2.9-1.9,4
		c0.9-5.5,2-11,3.7-16.3c0.1-0.5,0.4-0.9,0.5-1.3c0.3-0.8,0-1.4-0.7-1.8c-0.7-0.3-1.3-0.6-2-0.8c-1.2-0.3-2.3,0.2-2.8,1.3
		c-0.7,1.5-1.3,3.1-1.7,4.7c-1.4,5.6-2.6,11.3-4,17c-0.2,0.7-0.2,1.5-1.3,1.5c-0.5-1-0.3-2,0.1-2.9c0.2-0.6,0.7-1.2,0.7-1.8
		c-0.1-4.2,1.6-7.9,2.7-11.9c0.4-1.3,0.8-2.6,1.4-3.8C169,406.5,169.2,405.4,168.9,404.2z M110.2,411.2c0.1,0.5,0.3,1.5,0.7,2.3
		c0.2,0.5,1,1,1.5,0.9c2.4-0.4,5.1-0.8,6.8-2.7c2.7-3,4.9-6.3,5.1-10.6c0-0.4,0.1-0.8,0.2-1.2c0.5-1.6,1.1-1.9,2.7-1.2
		c1.4,0.7,2.8,1.3,4,2.2c1.2,0.9,2.3,2,3.1,3.3c1.1,1.7,1.9,3.7,2.9,5.5c0.9,1.6,1.8,3.2,2.9,4.7c1,1.3,1.6,1.4,3.3,0.7
		c-0.2-0.5-0.3-1.1-0.6-1.5c-1-1.4-2.1-2.6-3.1-4c-0.5-0.7-1-1.5-1.1-2.3c-0.2-1.8-0.3-3.7-0.2-5.5c0.1-2.6-0.7-4.1-3.1-5.1
		c-0.7-0.3-1.4-0.4-2-0.7c-1.4-0.6-1.5-1.6-0.4-2.6c0.5-0.5,1.1-0.9,1.5-1.5c1.7-2.2,4.2-3.2,6.7-3.9c2.2-0.6,4.5-0.8,6.8-1.3
		c2.4-0.5,4.5-1.6,5.8-3.9c0.8-1.5,1.5-3,2.1-4.6c0.4-1,0.1-1.6-0.9-1.7c-0.9-0.1-1.9,0-2.9-0.1c-0.9-0.1-1.4,0.3-1.8,1.1
		c-0.5,1-1.3,2-2.1,2.8c-1.9,1.9-4.5,2.2-6.8,3.2c-1.3,0.6-2.7,0.9-4,1.6c-1.6,0.9-3.4,1.7-4.4,3.6c-0.2,0.3-1,0.6-1.4,0.4
		c-0.8-0.2-0.7-0.9-0.5-1.6c0.1-0.4,0.4-0.7,0.5-1.1c0.3-1.6,0.6-3.1,0.7-4.7c0.1-1.5,0-3-0.2-4.5c-0.1-1.9,0.5-3.1,2.4-3.6
		c0.8-0.2,1.6-0.5,1.3-1.7c-2.5-1.2-5-1.7-7.8-1c0,0.6,0,1,0,1.5c0.2,2,0.2,4-0.3,5.9c-0.6,2.4-1.2,4.8-1.8,7.2
		c-0.8,3.3-1.1,6.7-2.3,9.8c-1.2,3-3,5.8-5.2,8.2C116.1,406.6,113.1,408.7,110.2,411.2z M127.4,412.2c-0.2-1,0.3-1.5,1-1.4
		c1.4,0.3,2.2-0.7,3.3-1.2c1.1-0.5,1.3-1.3,1-2.4c-0.5-2.1-2.2-3.3-3.8-4.3c-1.4-0.9-2.2-0.4-2.1,1.3c0,0.9-0.2,1.6-0.9,2.1
		c-1.2,0.8-1.6,1.9-2.2,3.1c-1.3,2.4-3,4.4-5.7,5.4c-1.8,0.7-4,1.2-3.6,4c0,0.3-0.3,0.7-0.4,1.1c-0.6,1.3-1.2,2.6-1.7,3.9
		c-0.6,1.3-0.4,2,0.9,2.5c1.9,0.8,3.9,1.5,5.8,2.1c2.7,0.8,5.4,1.4,8.1,2.2c1,0.3,1.6,0.2,2.2-0.8c2.7-4.8,4.7-9.9,6.6-15.1
		c0.1-0.4,0.2-1,0-1.4c-0.8-1.3-1.7-2.5-2.8-4C131.5,411.4,129.5,411.8,127.4,412.2z M204.9,463.5c-0.4-0.4-0.7-0.9-1-1
		c-1.4-0.7-2.9-1.4-4.4-1.9c-4.9-1.5-9.8-2.8-14.7-4.4c-1.9-0.6-3.8-1.6-5.6-2.5c-3.3-1.6-6.3-3.8-10.1-4.2c-0.4,0-0.7-0.3-1.1-0.5
		c-2.7-1.2-5.4-2.4-8.1-3.6c-1.4-0.6-2.8-1.1-4.3-1.4c-1.3-0.3-2.6-1.2-4.2-0.7C154.1,446.7,200.3,464,204.9,463.5z M101.3,421.8
		c2.1,0.6,3.4,2,5.4,1.4c0.3-0.1,0.9,0.2,1.3,0.4c0.5,0.3,1,0.6,1.8,1.1c1.3-2.5,2.5-4.8,3.8-7.4c-0.9-0.2-1.5-0.4-2.1-0.4
		c-0.6,0-1.2,0.2-1.8,0.4c0.1-2.7-0.7-4.6-2.6-5.6C105.1,414.9,103.3,418.1,101.3,421.8z M105.6,410.6c-1.4-0.9-2.3-1.5-3.4-2.2
		c-0.4,0.5-0.8,1-1.1,1.5c-1.5,3-2.9,6-4.4,9c-0.3,0.7-0.2,1.3,0.5,1.6c0.7,0.4,1.5,0.7,2.2,0.9
		C101.5,417.7,103.6,414.2,105.6,410.6z M197.4,455.6c-0.1,0.1-0.2,0.3-0.4,0.4c1,0.6,2,1.2,3.5,0.4c-0.5-1.4-1.1-2.8-1.5-4.2
		c-0.4-1.3-0.7-2.7-1-4c-0.2,0-0.4,0.1-0.6,0.1c0,1.2,0,2.4,0,3.5C197.4,453.2,197.4,454.4,197.4,455.6z M149.7,413.2
		c-1,0.8-1.8,1.4-2.7,2.1c-1,0.7-1.1,1.3-0.4,2.4c0.6,0.9,1.2,1,2.2,0.4C150.3,417.1,150.7,415.2,149.7,413.2z M137.1,438.5
		c0.1-0.2,0.1-0.3,0.2-0.5c-0.8-0.1-1.3-1.2-2.8-0.3C135.6,438,136.3,438.2,137.1,438.5z"/>
	<path d="M327.7,44.1c0.7-1.2,0.6-2.7,2.4-3.2c0,0.8,0.1,1.5,0,2.2c-0.3,2.6,0.3,5.1,0.8,7.5c0.5,2.6,1.3,5,2,7.7
		c0.3-0.4,0.7-0.8,0.8-1.2c0.8-2.4,1.7-4.6,3.5-6.5c0.5-0.6,0.7-1.4,1.1-2.1c0.2-0.3,0.8-0.6,1-0.5c0.3,0.2,0.7,0.7,0.7,1.1
		c0,0.5-0.2,1.1-0.5,1.6c-1,1.9-2,3.8-2.9,5.8c-0.4,0.8-0.8,1.7-1.3,2.6c-0.3,0.5-0.8,0.9-1.1,1.4c-0.5,0.8-1.3,1.5-1.5,2.4
		c-0.4,1.7-0.5,3.5-0.7,5.2c0,0.1,0,0.2,0,0.2c1.3,1.8,1.1,4.1,2.1,5.9c0.5,0.9,0.8,1.7,0.7,2.7c-0.1,0.9,0.1,1.7,1.3,2.5
		c0.2-0.9,0.4-1.6,0.4-2.2c-0.3-3.6-0.7-7.3-1.2-10.9c-0.1-0.6-0.5-1.2-0.6-1.8c-0.1-0.9,0-1.8,0-3c1.4,0.8,1.3,1.8,1.5,2.7
		c0.5,3.4,0.9,6.8,1.4,10.2c0.4,2.6,0.7,5.1-1.4,7.4c0.8,0.4,1.4,0.6,1.7,0.7c0.3,1.4,0.6,2.7,1,4.4c-0.6-0.4-1-0.7-1.5-0.9
		c-0.5-0.2-1-0.4-1.7-0.6c-0.8,2,0,3.7,0.3,5.4c0.5,2.6,1.2,5.2,1.6,7.9c0.4,3,1.2,5.9,1.9,8.8c1.1,4.3,2.2,8.7,3.6,12.8
		c3.2,9.1,6.5,18.2,11.2,26.7c1.1,2,2,4.2,3.5,6c0.4,0.4,0.6,0.9,0.9,1.4c1.5,2.9,3,5.8,4.5,8.7c1.5,2.7,2.9,5.5,5.6,7.3
		c0.5,0.3,0.9,1,0.9,1.6c0.1,0.6-0.2,1.4-0.6,1.9c-0.3,0.3-1.3,0.2-1.7-0.1c-1.3-1.2-2.5-2.5-3.5-3.8c-1.2-1.6-2.3-3.4-3.4-5.2
		c-0.7-1-1.4-2-2-3c-2.3-4.3-4.6-8.6-6.8-12.9c-1.8-3.6-3.3-7.3-5.2-10.7c-1.4-2.4-2.6-4.9-3.6-7.5c-1.4-3.7-3.1-7.4-3.9-11.3
		c-1.1-5.1-3.4-9.8-3.7-15.1c-0.1-2.3-1.2-4.6-1.8-6.9c-0.5-2.2-1-4.3-1.5-6.5c-0.3-1.3-0.5-2.7-0.6-4c-0.8-5.5-2.6-10.8-3.3-16.3
		c-0.7-5.2-1.6-10.4-2.4-15.6c-0.3-2.2-0.6-4.4-0.8-6.5C324.2,45.1,324.5,44.9,327.7,44.1z M333.2,79.3c0.2,0,0.4-0.1,0.6-0.1
		c-0.1-0.5-0.3-1-0.4-1.6c-0.2,0-0.3,0.1-0.5,0.1C333.1,78.3,333.1,78.8,333.2,79.3z"/>
	<path d="M249,144.2c-1.4,0-2.3-0.2-2.5-1.3c-0.2-1.1,0.7-1.5,1.5-1.8c0.9-0.4,1.6-0.9,2.5-1.4c3.1-1.6,6.2-3.3,9.4-4.8
		c1.8-0.9,3.2-1.9,4.1-3.8c0.7-1.6,1.7-3,2.8-4.4c0.6-0.7,1.6-1,2.5-1.3c1.9-0.6,3.7-1.2,5.1-2.9c1.1-1.3,2.7-2.3,4.1-3.2
		c2.5-1.6,5.1-3,7.5-4.7c3.1-2.3,6.1-4.8,9.1-7.3c1.6-1.3,2.9-3,5.2-3.6c1.2-0.3,2.2-1.2,3.2-2.1c1.8-1.6,3.4-3.3,5.2-5
		c0.6-0.5,1.2-1.1,1.9-1.4c2.3-1.2,3.5-3.1,4.4-5.4c0.2-0.5,0.4-1.1,0.8-1.4c0.9-0.9,2.1-1,2.8-0.4c0.9,0.8,0.5,1.7,0.1,2.6
		c-1.6,3.1-3.9,5.6-6.6,7.8c-2.4,2-4.8,4-7.2,5.9c-0.8,0.7-1.6,1.4-2.4,1.9c-4.5,2.9-8.6,6.4-12.7,9.8c-0.9,0.8-2.1,1.2-3.1,1.8
		c-2.9,1.9-5.8,3.7-8.6,5.6c-0.7,0.4-1.3,0.9-1.8,1.5c-1.2,1.4-2.8,2.4-4.5,3c-1.4,0.5-2.5,1.3-3.3,2.7c0,0.1-0.1,0.1-0.1,0.2
		c-2,4.5-5.8,6.5-10.2,8c-2.6,0.9-4.7,2.9-7.1,4.3C250.2,143.7,249.4,144,249,144.2z"/>
	<path d="M332.7,125.8c1.2,0.2,2.1,1.2,2.1,2.5c0.1,2.8,1.6,5,3,7.2c1.8,2.7,2.5,5.6,3.2,8.7c0.2,0.8,0.4,1.7,0.7,2.5
		c2.1,4.2,4.1,8.5,6.3,12.6c1.7,3.1,3.8,6.1,5.8,9.1c2.2,3.3,4.6,6.5,6.2,10.2c1,2.5,3.3,3.8,5.3,5.4c2,1.6,3.7,3.4,5,5.7
		c0.4,0.7,0.9,1.3,1.4,1.9c0.9,1.1,0.8,2.7-0.3,3.5c-0.6,0.5-1.2,0.3-1.6-0.3c-0.7-1.1-1.4-2.3-2.1-3.5c-1.6-2.7-3.5-4.9-6.4-6.2
		c-2.9-1.3-3.9-4.1-5.2-6.6c-1.9-3.6-3.8-7.2-6-10.6c-1.5-2.3-3.4-4.4-5-6.6c-0.3-0.4-0.6-0.9-0.8-1.5c-1.2-2.8-2.5-5.5-3.6-8.3
		c-1.3-3.4-2.5-6.9-3.7-10.4c-0.9-2.5-2.2-4.7-3.6-7c-1.2-2-1.5-4.4-2.1-6.7C331.4,127,332.4,125.8,332.7,125.8z"/>
	<path d="M292.5,145.5c1.9,0.1,3.7-0.5,5.2-1.7c2.4-1.9,5-2.9,8.1-3.1c1.7-0.1,3.3-1,5-1.5c0.9-0.3,1.8-0.7,2.7-0.8
		c2.2-0.2,3.9-1.3,5.5-2.6c1.6-1.2,3.2-2.3,4.8-3.3c1.6-1,3.4-0.2,5.1-0.2c0.4,0,1,0.7,1,1.1c0,0.4-0.4,1-0.8,1.3
		c-0.4,0.3-1,0.4-1.6,0.4c-2.6,0.4-4.9,1.5-6.6,3.5c-1.2,1.4-2.8,2.1-4.5,2.6c-2.5,0.8-5,1.7-7.5,2.4c-1.8,0.5-3.6,0.5-5.4,1
		c-1.5,0.4-3,1.1-4.3,1.9c-2.2,1.2-4.3,2.4-6.9,2.5c-2.6,0-5,1-6.8,3c-0.9,1-2.2,1.5-3.6,1.7c-1.3,0.2-2.6,0.7-3.8,1.3
		c-2.8,1.4-5.8,2.2-9,2.2c-0.9,0-1.9,0.3-2.8,0.5c-0.6,0.1-1.3,0.4-1.9,0.2c-0.7-0.2-1.6-0.7-1.7-1.3c-0.3-0.9,0.7-1.1,1.4-1.2
		c2.7-0.6,5.5-1.1,8.2-1.6c0.5-0.1,1.2-0.1,1.6-0.3c1.7-1.1,3.6-1.6,5.5-2.1c3.1-0.8,5.6-2.9,8.3-4.6
		C289.3,145.9,290.7,145.3,292.5,145.5z"/>
	<path d="M322.1,83.1c-0.1-2.3-0.3-5-0.5-7.8c0-0.5-0.5-1-0.6-1.5c-0.1-0.5,0.2-1,0.3-1.5c0.6,0.2,1.4,0.1,1.6,0.5
		c0.5,0.8,0.9,1.7,1,2.7c0.4,3.3,1.3,6.6,1,10c-0.3,3.3,0.7,6.4,1.7,9.6c0.9,3,2,5.9,2,9.3c-0.1,4.6,1.9,8.7,4,12.7
		c0.5,0.9,1.2,1.6,0,2.4c-0.8,0.6-2.2,0.1-2.9-0.9c-2.5-3.7-3.7-7.9-4-12.4c-0.2-2.8-0.8-5.5-1.4-8.2
		C323.2,93.2,321.3,88.6,322.1,83.1z"/>
	<path d="M178.1,352.4c-2.1,1.7-2.7,1.9-4.3,0.7c-1.9-1.3-3.9-2.2-6.2-2.1c-0.8,0-1.7-0.3-2.6-0.6c-3.7-1.3-7.4-2.1-11-3.9
		c-4.2-2.2-8.6-4.2-13.5-4.7c-2.3-0.3-4.2-1.4-6.1-2.7c-0.4-0.3-0.7-1.1-0.6-1.6c0.3-1,1.1-0.6,1.8-0.4c3.5,1.1,7,2.1,10.6,3.1
		c0.9,0.3,1.8,0.7,2.7,1.1c2,0.9,3.9,2.2,6.3,2.1c0.3,0,0.7,0.3,1.1,0.5c2.7,1.6,5.5,2.9,8.6,3.4c3.5,0.6,7,1.6,10.5,2.4
		C176.8,350,177,351.5,178.1,352.4z"/>
	<path d="M358.3,96.4c0.2,0.8,0.5,1.3,0.4,1.7c-0.1,0.4-0.5,0.8-0.9,1c-3.9,2.7-7.8,5.5-11.7,8.1c-0.6,0.4-1.2,0.9-2.1,0.3
		C348.2,103.2,353.7,100.8,358.3,96.4z"/>
	<path d="M359.5,126.1c2.7-0.6,5.4-0.4,8.1,0.5c1.7,0.6,3.5,1.1,5.2,1.7c0.4,0.1,0.6,0.8,0.9,1.2c-0.4,0.2-0.9,0.6-1.3,0.7
		c-0.4,0-0.9-0.3-1.3-0.5c-2.5-0.9-5.1-1.9-7.7-2.6c-1.2-0.4-2.6-0.3-3.9-0.4C359.5,126.5,359.5,126.3,359.5,126.1z"/>
	<path d="M352.7,126.2c-1.3,1.1-1.3,1.1-2.6,0.7C350.7,125.7,351.5,125.8,352.7,126.2z"/>
	<path d="M338.9,94.3c0.7,0.5,1,1.1,0.4,1.8c-0.1,0.2-0.9,0.1-1,0C337.9,95.3,338.1,94.7,338.9,94.3z"/>
	<path d="M355.4,126.2c0.6,0,1.2-0.1,2.1-0.1c-0.9,0.9-0.9,0.9-2.1,0.6C355.4,126.5,355.4,126.4,355.4,126.2z"/>
	<path d="M339.7,91.3c-0.2,0.1-0.5,0.3-0.6,0.3c-0.2-0.1-0.4-0.4-0.5-0.6c0,0,0.3-0.4,0.5-0.3C339.3,90.6,339.4,90.8,339.7,91.3z"/>
	<path d="M169.8,282.8c-0.4,0.6-0.6,1.2-0.9,1.3c-0.4,0.1-1.1-0.1-1.5-0.4c-5-4.7-10.3-9.1-14.8-14.3c-3.6-4.1-7.5-7.9-11.6-11.4
		c-4.4-3.8-9.7-6.1-15.5-7c-1.1-0.2-2.3,0-3.3,0.2c-2.5,0.6-5.1,1.5-7.6,2.2c-1.1,0.3-2.2,0.5-3.3,0.7c-1.4,0.3-2.7,0.7-3.8,1.8
		c-0.6,0.6-1.4,1-2.1,1.5c-0.4,0.3-1,0.3-1.3,0.6c-1.6,2.1-4.2,2.5-6.3,3.6c-1.9,1-4,1.5-6.1,2c-3.4,0.9-6.7,2-9.5,4.3
		c-1.6,1.3-3.8,1.2-5.8,0.7c-1.9-0.4-3.9-1-5.8-1.4c-0.8-0.2-1.7,0-2.6,0c-0.5,0-1.2,0.1-1.6-0.1c-3.5-1.9-7.4-2.9-10.3-5.9
		c-0.7-0.7-1.8-1.1-2.7-1.6c-2.8-1.6-5.4-3.4-7.5-5.8c-0.2-0.2-0.4-0.3-0.5-0.5c-0.1-0.5-0.1-1-0.1-1.5c0.4,0.1,1,0,1.3,0.2
		c0.6,0.4,1.1,0.9,1.6,1.4c1,1,2,2,3,3c0.1,0.1,0.1,0.1,0.2,0.2c2.1,1.1,4.2,2.2,6.3,3.3c0.5,0.3,1.2,0.3,1.5,0.7
		c1.3,2,3.7,2.6,5.4,4.2c0.9,0.9,2.1,1.3,3.5,1c1.9-0.3,3.7-0.2,5.6,0.7c2,1,4.2,0.8,6.4,0.6c0.5,0,1.1-0.5,1.2-0.9
		c0.4-1.3,1.3-1.7,2.5-1.8c0.2,0,0.5-0.1,0.7-0.3c2-1.5,4.4-1.8,6.7-2.2c3.2-0.6,6-2.1,8.9-3.3c0.2-0.1,0.5-0.2,0.6-0.4
		c1.1-1.8,3-2.1,4.7-3.1c1.9-1.1,3.8-2,5.9-2.6c2.2-0.7,4.3-1.6,6.5-2.5c3.2-1.3,6.4-1.5,9.8-0.7c6.3,1.5,11.4,5.1,16.5,8.8
		c3.8,2.7,6.4,6.4,9.7,9.6c2.4,2.3,4.3,5.1,7.4,6.8c0.9,0.5,1.6,1.3,2.4,2c1.7,1.5,3.4,3.1,5.1,4.7
		C169,281.7,169.4,282.3,169.8,282.8z"/>
	<path d="M331,407.7c-4.1,1.8-7.7,3.3-11.2,4.9c-2.6,1.3-2.8,2.1-1.2,4.7c1,1.6,1,3.1,0.2,4.7c-0.4,0.7-0.7,1.4-1.1,2.2
		c-1.9,4.1-5.3,6.2-9.5,7.2c-0.7,0.2-1.6,0.6-1.9,1.2c-0.7,1.3-1.6,1.5-2.9,1.4c-2.7-0.2-5.4-0.1-8.1-0.4c-1.4-0.2-2.7-0.9-4-1.5
		c-0.4-0.2-0.8-0.6-0.9-1c-0.6-1.8-1.2-3.6-1.8-5.4c-0.5-1.6-0.8-1.8-2.3-1.2c-3.5,1.2-6.9,2.3-10.4,3.4c-1.4,0.4-1.5,0.6-1.1,2
		c0.7,2.8,1.4,5.5,2,8.3c0.3,1.2-0.2,2.3-1.2,2.9c-2.8,1.8-5.6,3.6-8.6,5.2c-1.1,0.6-2.5,0.6-3.7,0.8c-1.6,0.2-3.1-0.2-4.7,0.5
		c-0.5,0.2-1.4-0.1-2-0.4c-0.8-0.3-1.5-0.9-2.3-1.3c-1.5-0.7-2.1-1.9-2.2-3.5c0-0.9-0.2-1.7-0.3-2.7c-2.7,1.1-5.3,2.1-7.7,3.2
		c-1.2,0.6-2.3,1.5-3.3,2.4c-1.9,1.8-2.8,1.6-4-1.1c0.6-0.4,1.2-0.9,1.9-1.3c0.9-0.5,1.9-0.9,2.7-1.5c1-0.7,2-1.2,3.2-1.4
		c1.1-0.2,2.1-0.8,3-1.5c1.3-1,2.6-1.5,4.2-0.2c0.4-2-0.3-3.6-0.7-5.2c-0.5-2.3-0.3-2.9,1.8-4.1c3-1.7,6.3-3.2,9.8-2.8
		c2.9,0.3,5.9-0.7,8.7,1.3c1.5-2.7,4.2-2.8,6.6-3.4c3-0.8,6-1.5,9.1-2.3c-0.2-2.1-0.1-3.9,1-5.4c0.5-0.7,1-1.6,1.7-2
		c2.1-1.2,4.4-2.3,6.6-3.4c1.3-0.6,2.6-1.2,3.8-1.8c0.3-0.1,0.6-0.4,0.9-0.4c3.9-0.4,8-1,11.5,0.9c2.3,1.3,3.7,0.8,5.8-0.1
		c2.8-1.2,5.7-1.9,8.6-2.9c1.5-0.5,3.1-1.1,3.7-2.7c1-2.5,2.8-4,5.3-4.8c3.4-1.1,7-2.1,10.5-0.6c2.9,1.3,5.8,2.6,8.2,4.8
		c1.3,1.2,2.4,2.5,2.6,4.4c0.1,0.8,0.6,1.6,0.9,2.5c0.8,2.1,0.4,3.2-1.7,4c-4.1,1.6-8.2,3-12.8,2.8c-1.3-0.1-2.6-0.2-3.8,0
		c-2.6,0.4-4.8-0.9-7.1-1.6c-0.4-0.1-0.9-0.7-1-1.2c-0.4-1.3-0.6-2.6-0.8-4C330.9,409.6,331,408.9,331,407.7z M298.6,421.8
		c3.2-0.1,5.9-1.4,8.6-2.6c0.8-0.4,1.7-0.8,2.6-0.9c2.1-0.3,3.2-1.8,3.8-3.5c0.2-0.5-0.2-1.4-0.6-1.9c-1-1.1-2.4-1.4-3.9-1.4
		c-3.7-0.1-6.9,1.6-10.4,2.4c-0.4,0.1-0.8,0.9-1,1.4c-0.2,0.4-0.1,0.9-0.2,1.4c-0.4,0.1-0.7,0.1-1,0.3c-0.5,0.3-1,0.7-1.4,1
		c0.4,0.5,0.7,1.2,1.1,1.3C297.9,419.4,298.2,420.5,298.6,421.8z M270.2,431.4c0-0.2,0-0.5,0-0.7c-0.7-0.3-1.3-0.9-2-0.9
		c-2.1-0.1-4.1-0.2-6.2,0.1c-0.9,0.1-1.8,0.9-2.5,1.6c-0.4,0.3-0.6,1.2-0.4,1.7c0.1,0.3,0.9,0.8,1.3,0.7c1.4-0.2,2.4,0.6,3.2,1.4
		C266.4,434.5,268.2,432.8,270.2,431.4z M338.5,405.6c4.1,0.8,8,0.5,11.8-1.3c-1.9-2.2-4.1-2.5-11-1.5
		C339,403.6,338.8,404.5,338.5,405.6z M271.7,434.7c-1.5,0.8-2.9,1.6-4.4,2.3c-1.4,0.7-1.5,1-1,2.4c0.2,0.5,0.5,1,0.8,1.5
		c0.4,0.8,1.1,1,1.8,0.5c1-0.7,1.9-1.4,2.7-2.3C273.2,437.6,273.2,436.7,271.7,434.7z M306.8,428.1c1.1-0.3,2.1-0.5,3.1-0.7
		c0.3-0.1,0.6-0.2,0.9-0.3c1.2-0.6,1.9-2,1.3-2.9c-0.5-0.7-1.4-1.7-2.2-1.7c-1.3,0-2.5,0.6-3.8,1.1c-0.2,0.1-0.3,0.6-0.3,0.9
		C306.1,425.6,306.5,426.8,306.8,428.1z M348.7,410.8c-0.1,1.9,0.9,2.6,2.4,2c0.4-0.2,0.8-0.5,1.3-0.7c0.9-0.5,1.3-1.2,1-2.2
		c-0.3-0.9-0.7-1.9-1.8-2c-1-0.1-1.9,0.3-2.4,1.3C348.9,409.8,348.8,410.5,348.7,410.8z M315.8,419.1c-3.2,0.9-3.3,2.4-2.7,5
		C314.8,423.9,315.8,422.1,315.8,419.1z M347.7,411.9c-0.2-0.8-0.4-1.6-0.8-2.4c-0.1-0.3-0.6-0.6-0.9-0.5c-0.3,0-0.7,0.5-0.7,0.8
		c-0.1,1-0.1,2,0.1,3c0.1,0.3,0.6,0.7,1,0.8c0.2,0.1,0.7-0.3,0.9-0.6C347.5,412.8,347.5,412.3,347.7,411.9z M305.3,427.3
		c-0.2-1.1-0.2-1.9-0.4-2.6c-0.1-0.3-0.7-0.6-1.1-0.7c-0.3,0-0.9,0.4-0.9,0.6c0.1,1.1,0.2,2.1,0.5,3.2c0.1,0.2,0.9,0.5,1.2,0.4
		C305,428.1,305.2,427.5,305.3,427.3z M293.4,421.8c-1.2-2.4-1.2-2.4-0.6-5.1c-1.8,0.7-2.3,1.3-2.1,2.5
		C290.8,420.6,291.7,421.5,293.4,421.8z M343,413.9c0.7-0.6,1.1-0.8,1.1-0.9c-0.2-1.3-0.5-2.5-1.7-4
		C342.1,410.9,343.1,412.1,343,413.9z M335.8,402.7c-1,0.7-1.2,1.3-0.6,2.1c0.5,0.7,1.3,1.1,2.3,0.5
		C336.9,404.5,336.4,403.7,335.8,402.7z M254.7,432.2c0.1,2.2,0.8,3,2.8,2.9C256.5,434.1,255.7,433.3,254.7,432.2z M264.7,441.5
		c-0.3,0-0.6,0.1-0.9,0.1c0.1,0.4,0.2,0.8,0.4,1.3c0,0,0.4,0,0.4-0.1C264.7,442.4,264.7,442,264.7,441.5z"/>
	<path d="M266.8,369.3c-2.8,0-6,0-9.3,0c-0.5,0-1.2-0.1-1.6-0.4c-2.6-2.3-5.9-2.5-9-2.8c-2.3-0.2-4-1.5-5.9-2.4
		c-0.5-0.2-0.9-1-0.9-1.6c-0.1-1.5-0.2-3,0-4.5c0.1-0.7,0.6-1.5,1.2-1.8c2.4-1.3,4.8-2.5,7.7-2.3c2,0.2,4,0.1,6,0c1.7,0,2-0.3,2-2
		c0-1.3-0.1-2.5-0.4-3.8c-0.3-1.8,0.9-3.4,2.7-2.9c2,0.5,4,1.1,5.2,3c0.7,1.1,0.9,2.1,0.4,3.4c-0.8,1.9-0.4,2.7,1.7,3
		c5,0.6,8.5,3.3,11.1,7.4c0.1,0.2,0.3,0.4,0.4,0.6c1.8,2.4,1,5.1-1.9,6.2C273.3,369.2,270.3,369.6,266.8,369.3z M264.4,357.3
		c0,0.6,0,0.8,0,1.1c0.4,2.3-0.2,3.3-2.4,3.7c-0.6,0.1-1.3,0.2-1.9,0.2c-2.3,0.2-3.9-1.2-3.9-3.6c0-0.7-0.1-1.3-0.9-1.5
		c-3.1-0.7-6.3-1.1-9.5-0.2c-1.1,0.3-2,0.8-2.2,2c-0.2,1.3,0.3,2.4,1.4,3.1c0.9,0.5,1.9,0.9,2.9,1.2c2.6,0.7,5.3,1.3,7.9,2
		c6.1,1.7,12.2,1.1,18.2-0.6c1.2-0.3,1.5-1.1,0.7-2.2c-0.7-0.9-1.4-1.8-2.3-2.5C270.1,358.3,267.6,357,264.4,357.3z"/>
	<path d="M291.1,355.9c0-0.6,0-1.1,0-1.9c-0.5,0.4-0.8,0.6-1.1,0.8c-1.2,0.7-1.3,0.6-1.8-0.8c-0.1-0.3-0.4-0.7-0.7-0.7
		c-0.3,0-0.6,0.3-0.9,0.5c-0.5,0.3-0.9,0.9-1.4,1c-0.3,0.1-1.2-0.5-1.2-0.5c0.5-1.3-0.6-2-1.1-3c-0.3-0.6,0-1.3,0.8-1.4
		c0.5-0.1,1-0.1,1.4,0.1c2.7,0.8,5.5,1.7,8.2,2.6c2.1,0.7,4.2,1.3,6.4,2.1c0.5,0.2,1,0.4,1.5,0.8c0.9,0.7,1.8,1.4,3.1,1.5
		c0.9,0.1,1.7,1.1,2.6,1.6c1.7,1.1,3.4,2,5.1,3.1c2.4,1.7,5.1,3,6.3,6c0.3,0.8,1.5,1.3,2.3,2c-0.6,1.1-1.4,2.3-2.3,3.9
		c1-0.1,1.6-0.1,2.2-0.1c0.3,1-0.2,1.8-1,2c-1.5,0.5-2.6,1.5-3.8,2.5c-0.4,0.3-0.8,0.4-1.8,0.8c0.8-1.1,1.3-1.7,2-2.5
		c-2.6-0.8-4.7,0.8-7,0.6c-0.9-1.8-2-3.5-1.1-5.6c0.6-1.4-0.2-2.3-1-3.2c-0.6-0.7-1.5-1.2-1.1-2.4c2.5,1.3,3.8,3.6,3.2,6
		c-0.2,0.9-0.8,2,0.1,2.7c1,0.8,2.2,0.5,3.3-0.3c0.5-0.4,1.2-0.5,1.8-0.6c2.4-0.6,3.4-2.5,2.2-4.6c-0.6-1.1-1.6-2.2-2.7-3
		c-4.9-3.5-10.2-6.3-15.8-8.4C295.9,356.5,293.6,356.4,291.1,355.9z"/>
	<path d="M236,352.8c0.3-0.7,0.5-1.4,0.9-2c0.6-0.9,1.3-1.8,2.1-2.5c0.8-0.7,1.8-0.6,2.6,0.6c-0.6,0.2-1.1,0.3-1.5,0.5
		c-0.5,0.3-1.3,0.6-1.4,1.1c-0.1,0.4,0.5,1.1,0.9,1.5c0.3,0.3,0.8,0.5,1.4,0.9c-2.7,1-3.4,3-3.3,5.5c0.2,3.6,0.1,3.6,1.8,6.5
		c-1.5-1-2.8-0.9-4.2-0.5c-1.4,0.4-2.7-0.6-3.3-2c-0.6-1.4-1.1-2.8-1.5-4.2c-0.5-1.6-0.1-3.2,0.6-4.6c0.9-1.8,1.8-2,3.6-1
		c0.2,0.1,0.4,0.2,0.6,0.3C235.3,352.7,235.4,352.7,236,352.8z M231.4,356.8c0.5,1.9,0.9,3.5,1.4,5.1c0.2,0.7,1.1,0.6,1.5-0.1
		c0.4-1,0.8-2.1,1.1-3.1c0.2-1.1,0.4-2.2,0.3-3.2c0-0.5-0.6-1.4-1-1.4c-0.7-0.1-1.7,0.1-2.1,0.6C232,355.1,231.7,356.1,231.4,356.8z
		"/>
	<path d="M267.5,383.1c1.1-1.8,2.3-2.4,3.8-2c4,1.2,7.9,0.5,11.8-0.1c0.9-0.1,1.9-0.4,2.8-0.4c0.4,0,1,0.6,1.1,0.9
		c0,0.4-0.5,0.9-0.8,1.3c-0.1,0.1-0.3,0.1-0.5,0.1c-3-0.2-5.8,1.2-8.8,0.7c-0.8-0.1-1.6,0-2.4,0.2
		C272.2,384.4,270.1,382.9,267.5,383.1z"/>
	<path d="M280.9,377c1.8-0.4,3.5-0.8,5.1-1.2c0.3,0,0.6,0.3,0.9,0.6c0.1,0.1,0,0.5-0.2,0.6c-0.8,0.8-4.5,1.1-5.6,0.4
		C281,377.4,281,377.3,280.9,377z"/>
	<path d="M274.3,351.8c1.1,0.2,2.3,0.2,3.4,0.5c0.4,0.1,1,1,1,1.3c-0.2,0.9-1.1,0.8-1.8,0.5c-1-0.5-1.9-1.1-2.8-1.7
		C274.1,352.2,274.2,352,274.3,351.8z"/>
	<path d="M303,361.8c1.5,0.6,1.5,0.6,1.6,1.8C303.6,363.2,303.6,363.2,303,361.8z"/>
	<path d="M275.8,375.1c0.3,0.4,0.6,0.6,0.6,0.8c-0.1,0.2-0.3,0.5-0.6,0.6c-0.2,0-0.5-0.2-0.7-0.3
		C275.3,375.8,275.5,375.5,275.8,375.1z"/>
	<path d="M268.8,346.6c-0.3,0.3-0.5,0.5-0.7,0.5c-0.3-0.1-0.5-0.3-0.7-0.5c0.2-0.1,0.3-0.4,0.5-0.4
		C268.1,346.2,268.4,346.4,268.8,346.6z"/>
	<path d="M272,351.8c-0.2,0.2-0.5,0.4-0.6,0.4c-0.2-0.1-0.4-0.4-0.6-0.6c0.2-0.1,0.4-0.3,0.5-0.3C271.6,351.4,271.7,351.6,272,351.8
		z"/>
	<path d="M278.3,358.3c-0.2-0.2-0.4-0.4-0.4-0.6c0-0.2,0.3-0.4,0.4-0.4c0.1,0,0.4,0.3,0.4,0.4C278.8,357.8,278.5,358,278.3,358.3z"
		/>
	<path d="M289.8,373.3c-0.1-0.2-0.3-0.4-0.2-0.4c0.1-0.1,0.3-0.2,0.5-0.4c0.1,0.1,0.2,0.3,0.2,0.3
		C290.1,373.1,289.9,373.2,289.8,373.3z"/>
	<path d="M260.8,383.2c-0.1-0.1-0.3-0.1-0.4-0.2c0.1-0.1,0.2-0.3,0.2-0.3c0.2,0.1,0.3,0.2,0.5,0.3C261.1,383,261,383.1,260.8,383.2z
		"/>
	<path d="M153.3,404.6c-0.6-1.3-0.5-2.6-0.1-3.7c0.6-1.5,0.7-2.9,0-4.4c-0.1-0.2,0-0.4,0.1-0.9c0.4,0.5,0.6,0.9,1,1.4
		c2-2.5,2.1-5.8,3.5-8.5c1.4-2.7,2.5-5.6,4.4-8c-0.5,4.4-2.9,8.1-4,12.2C157.3,395.7,154.2,403.7,153.3,404.6z"/>
	<path d="M154.9,438.2c-1.3-0.6-1.1-1.2-0.9-1.9c0.7-2.8,1.4-5.6,2.2-8.3c0.4-1.4,1.2-2.7,1.9-4c0.1-0.1,0.4-0.2,0.8-0.3
		c0,0.5,0.2,1,0.1,1.3c-0.3,1.1-0.9,2.1-1,3.1c-0.3,1.8-0.8,3.4-1.7,4.9c-0.4,0.6-0.5,1.5-0.7,2.3
		C155.3,436.2,155.1,437.1,154.9,438.2z"/>
	<path d="M144.1,434c-0.2-0.4-0.5-0.8-0.4-1c0.8-3.3,1.6-6.6,2.5-9.9c1.4,0.6,1.8,1.3,1,2.5c-1.2,1.8-1.9,3.6-1.6,5.8
		C145.7,432.6,145.4,432.9,144.1,434z"/>
	<path d="M170,431.7c0.7,1.2,0.7,2.5,0.1,3.8c-0.9,2.1-1.7,4.1-0.9,6.4c0.2,0.5-0.2,1.1-0.3,1.7c-1.2-0.3-1.2-1-1.1-1.7
		c0.3-1.9,0.7-3.9,1-5.8c0.1-0.7,0-1.4,0.1-2.1c0.1-0.8,0.2-1.6,0.4-2.4C169.5,431.6,169.7,431.7,170,431.7z"/>
	<path d="M156.8,413.9c-1.4-1.8-1.5-4.4-0.2-5.7c0.2-0.2,0.6-0.4,0.8-0.3c0.3,0.2,0.7,0.5,0.7,0.8
		C158.1,410.6,157.9,412.3,156.8,413.9z"/>
	<path d="M118.7,386.9c0.1,3.9-1.4,7.3-2.3,11c-0.7-1.1-0.3-2.8,0.7-5.4C117.8,390.7,118.2,388.7,118.7,386.9z"/>
	<path d="M158.1,372.2c1-1.5,0.4-3.8,2.6-5c0.2,0.6,0.6,1.1,0.5,1.6c-0.2,1.1-0.6,2.1-1,3.1C159.7,372.9,159,372.9,158.1,372.2z"/>
	<path d="M119.5,383.8c-0.1-0.4-0.3-0.8-0.2-1c1.1-1.6,1-3.4,1.5-5.2c0.1-0.2,0.2-0.4,0.6-0.5c0,2.4-0.6,4.6-1.2,6.7
		C119.9,383.8,119.7,383.8,119.5,383.8z"/>
	<path d="M135.6,365c-0.1-0.8-0.2-1.7-0.1-2.5c0-0.3,0.8-0.5,1.2-0.8c0.2,0.4,0.6,0.8,0.5,1.1c-0.2,0.8-0.5,1.5-0.8,2.3
		C136.1,365.1,135.8,365,135.6,365z"/>
	<path d="M151.3,427.5c-1.2-2.3-1.2-2.4,1-2.5C151.9,425.9,151.6,426.7,151.3,427.5z"/>
	<path d="M119.3,363c0,1.1,0,1.8,0,2.8C118.3,364.6,118.3,364.6,119.3,363z"/>
	<path d="M161,419.7c-1,0.1-2,0.3-2-1.4C160.2,418.2,160.6,419,161,419.7L161,419.7z"/>
	<path d="M171.7,426.4c-0.2,0.6-0.4,1.2-0.6,1.8c-0.2-0.1-0.4-0.1-0.6-0.2c0.2-0.7,0.3-1.3,0.5-2
		C171.2,426.2,171.5,426.3,171.7,426.4z"/>
	<path d="M162,433.8c0.1-0.4,0.3-0.9,0.4-1.3c0.1,0,0.2,0.1,0.3,0.1c-0.1,0.4-0.2,0.9-0.4,1.3C162.3,433.9,162.2,433.9,162,433.8z"
		/>
	<path d="M150.5,430.2c0.1-0.4,0.2-0.6,0.3-0.9c0.1,0.2,0.2,0.4,0.3,0.6C151.1,429.9,150.9,430,150.5,430.2z"/>
	<path d="M161,419.7c0.9,0.2,1.2,0.7,0.6,2.1C161.3,420.8,161.1,420.2,161,419.7C161,419.7,161,419.7,161,419.7z"/>
	<path d="M127,413.8c0.3,2.9-1.9,4.3-2.8,6.4c-0.2-0.1-0.3-0.1-0.5-0.2c0.2-0.5,0.3-1,0.5-1.5c0.4-1.1,0.7-2.2,1-3.4
		C125.5,414.5,125.5,414.5,127,413.8z"/>
	<path d="M121.8,425.2c0.7,0.6,0.8,1.2,0,1.8C121,426.3,121.1,425.8,121.8,425.2z"/>
	<path d="M108.7,419.2c0.2,1.6,0.2,1.6-0.7,2.6C107.2,420.7,107.9,420.1,108.7,419.2z"/>
	<g>
		<g>
			<path d="M416.4,420.5c-0.6,2.6,0,4.9,1.4,7c0.6,1,1.4,1.9,2.2,2.8c0.5,0.7,4.6,7.2,1,7c-1.9-0.1-1.9,2.9,0,3
				c3.4,0.2,4.7-2.8,4.3-5.9c-0.7-4.7-7.1-8.5-6-13.2C419.8,419.4,416.9,418.6,416.4,420.5L416.4,420.5z"/>
		</g>
	</g>
	<g>
		<g>
			<path d="M124.4,335.6c3.4,1.5,6.9,3,10.3,4.5c1.8,0.8,3.3-1.8,1.5-2.6c-3.4-1.5-6.9-3-10.3-4.5
				C124.1,332.3,122.6,334.8,124.4,335.6L124.4,335.6z"/>
		</g>
	</g>
	<g>
		<g>
			<path d="M123.7,419.5c-1.1,2.9-2,5.9-2.9,8.9c0.1-0.2,0.8-0.3,0.9-0.5c0.8-3,1.8-6,2.9-8.9C124.5,419.2,123.8,419.2,123.7,419.5
				L123.7,419.5z"/>
		</g>
	</g>
	<g>
		<g>
			<path d="M152.5,404.4c-0.4,1.6-0.8,3.1-1.3,4.7c0.1-0.2,0.8-0.3,0.9-0.5c0.4-1.6,0.8-3.1,1.3-4.7
				C153.3,404.1,152.6,404.2,152.5,404.4L152.5,404.4z"/>
		</g>
	</g>
	<g>
		<g>
			<path d="M148.5,392.4c-0.7,4.4-1.9,8.7-3.9,12.7c0.1-0.2,0.7-0.2,0.9-0.5c1.9-4.1,3.2-8.3,3.9-12.7
				C149.4,392.1,148.6,392.2,148.5,392.4L148.5,392.4z"/>
		</g>
	</g>
	<g>
		<g>
			<path d="M194.8,472.1c1.7,1.7,3.7,2.8,6,3.4c0.6,0.2,0.9-0.8,0.3-1c-2.1-0.6-4-1.6-5.6-3.2C195.1,470.9,194.4,471.6,194.8,472.1
				L194.8,472.1z"/>
		</g>
	</g>
	<g>
		<g>
			<path d="M193.1,473.1c2.6-0.4,5.1,0.6,6.8,2.5c1.3,1.4,3.4-0.7,2.1-2.1c-2.5-2.8-6.1-3.9-9.7-3.3
				C190.4,470.5,191.2,473.4,193.1,473.1L193.1,473.1z"/>
		</g>
	</g>
	<g>
		<g>
			<path d="M407.3,397.2c2.9,0.8,5.5,2.1,8,3.8c1.6,1.1,3.1-1.5,1.5-2.6c-2.7-1.9-5.6-3.2-8.7-4.1
				C406.3,393.8,405.5,396.7,407.3,397.2L407.3,397.2z"/>
		</g>
	</g>
	<g>
		<g>
			<path d="M287.7,359.3c0.8,3.4,3.1,6.3,2.3,10c-0.7,3.3-3.3,5.9-6.5,6.8c-0.6,0.2-0.4,1.1,0.3,1c3.2-0.8,5.7-3.1,6.9-6.2
				c1.7-4.4-1-7.6-2-11.8C288.6,358.4,287.6,358.7,287.7,359.3L287.7,359.3z"/>
		</g>
	</g>
	<g>
		<g>
			<path d="M297.7,363.9c4.3,6.9,1.5,15.8-6.1,18.8c-0.6,0.2-0.3,1.2,0.3,1c8.2-3.2,11.4-12.8,6.7-20.2
				C298.2,362.9,297.3,363.4,297.7,363.9L297.7,363.9z"/>
		</g>
	</g>
	<g>
		<g>
			<path d="M229.1,348.6c-2.1,1.6-3.8,3.7-3.9,6.5c-0.1,3.1,1.8,6,3.5,8.5c0.4,0.5,1.2,0,0.9-0.5c-1.4-2-2.9-4.1-3.3-6.6
				c-0.5-3.1,1.2-5.4,3.5-7.2C230.3,348.9,229.6,348.2,229.1,348.6L229.1,348.6z"/>
		</g>
	</g>
	<g>
		<g>
			<path d="M260.4,372c3.3-0.2,6.7,0.3,10.1-0.1c2.9-0.4,5.6-1.5,8-3.2c0.5-0.4,0-1.2-0.5-0.9c-2.7,1.9-5.6,3-8.9,3.2
				c-2.9,0.2-5.8-0.1-8.6,0C259.7,371,259.7,372,260.4,372L260.4,372z"/>
		</g>
	</g>
	<g>
		<g>
			<path d="M224.4,374.6c2.1,2.8,5,4.7,8.5,5.4c0.6,0.1,0.9-0.8,0.3-1c-3.2-0.7-5.9-2.4-7.9-4.9C224.9,373.5,224,374,224.4,374.6
				L224.4,374.6z"/>
		</g>
	</g>
</g>
</svg>
