<!-- Generator: Adobe Illustrator 18.1.1, SVG Export Plug-In  -->
<svg version="1.1"
	 xmlns="http://www.w3.org/2000/svg" xmlns:xlink="http://www.w3.org/1999/xlink" xmlns:a="http://ns.adobe.com/AdobeSVGViewerExtensions/3.0/"
	 x="0px" y="0px" width="82.4px" height="45.1px" viewBox="0 0 82.4 45.1" enable-background="new 0 0 82.4 45.1"
	 xml:space="preserve">
<defs>
</defs>
<g>
	<path d="M10.4,7.6H9.7V0h0.6V7.6z"/>
	<path d="M12.3,1.5c0-0.1,0-0.2,0.1-0.3s0.2-0.1,0.3-0.1s0.2,0,0.3,0.1s0.1,0.2,0.1,0.3c0,0.1,0,0.2-0.1,0.3S12.9,2,12.8,2
		c-0.1,0-0.2,0-0.3-0.1S12.3,1.7,12.3,1.5z M12.4,7.6V3.2h0.6v4.3H12.4z"/>
	<path d="M15.7,7.6h-0.6V3.2h0.6v0.7c0.3-0.6,0.8-0.8,1.4-0.8c0.6,0,1.1,0.3,1.3,0.9c0.3-0.6,0.8-0.9,1.5-0.9c0.5,0,0.8,0.1,1.1,0.4
		c0.3,0.3,0.4,0.7,0.4,1.1v2.9h-0.6V4.9c0-0.9-0.3-1.3-1-1.3c-0.8,0-1.2,0.6-1.2,1.7v2.3H18V4.9c0-0.9-0.3-1.3-1-1.3
		c-0.8,0-1.2,0.6-1.2,1.7V7.6z"/>
	<path d="M23.3,1.5c0-0.1,0-0.2,0.1-0.3s0.2-0.1,0.3-0.1s0.2,0,0.3,0.1s0.1,0.2,0.1,0.3c0,0.1,0,0.2-0.1,0.3S23.9,2,23.8,2
		c-0.1,0-0.2,0-0.3-0.1S23.3,1.7,23.3,1.5z M23.5,7.6V3.2h0.6v4.3H23.5z"/>
	<path d="M26.3,3.8h-0.8V3.2h0.8V1.5h0.6v1.8h0.9v0.5h-0.9v3.8h-0.6V3.8z"/>
	<path d="M32.7,5.4h-3.4c0,0.5,0.1,0.9,0.4,1.2c0.3,0.4,0.6,0.6,1.1,0.6c0.6,0,1.1-0.3,1.4-1l0.6,0.3c-0.4,0.9-1.1,1.3-2,1.3
		c-0.7,0-1.2-0.2-1.6-0.7c-0.4-0.4-0.6-1-0.6-1.6c0-0.7,0.2-1.2,0.5-1.7c0.4-0.5,0.9-0.7,1.6-0.7c0.6,0,1.1,0.2,1.5,0.6
		c0.3,0.4,0.5,0.9,0.5,1.6V5.4z M32,4.9c-0.1-0.8-0.5-1.2-1.3-1.2c-0.4,0-0.7,0.1-0.9,0.3s-0.4,0.5-0.4,0.9H32z"/>
	<path d="M37.6,7.6V6.8c-0.3,0.7-0.8,1-1.5,1c-0.7,0-1.2-0.2-1.5-0.7c-0.4-0.4-0.5-1-0.5-1.6c0-0.7,0.2-1.2,0.5-1.6
		c0.4-0.5,0.9-0.7,1.5-0.7c0.7,0,1.3,0.3,1.6,1V0h0.6v7.6H37.6z M34.7,5.4c0,0.5,0.1,0.9,0.3,1.2c0.2,0.3,0.6,0.5,1.1,0.5
		c0.5,0,0.9-0.2,1.1-0.6c0.2-0.3,0.3-0.8,0.3-1.3c0-0.5-0.1-0.9-0.3-1.2c-0.3-0.3-0.6-0.5-1.1-0.5c-0.5,0-0.9,0.2-1.1,0.6
		C34.8,4.5,34.7,4.9,34.7,5.4z"/>
	<path d="M47.2,5.4h-3.4c0,0.5,0.1,0.9,0.4,1.2c0.3,0.4,0.6,0.6,1.1,0.6c0.6,0,1.1-0.3,1.4-1l0.6,0.3c-0.4,0.9-1.1,1.3-2,1.3
		c-0.7,0-1.2-0.2-1.6-0.7c-0.4-0.4-0.6-1-0.6-1.6c0-0.7,0.2-1.2,0.5-1.7c0.4-0.5,0.9-0.7,1.6-0.7c0.6,0,1.1,0.2,1.5,0.6
		c0.3,0.4,0.5,0.9,0.5,1.6V5.4z M46.5,4.9c-0.1-0.8-0.5-1.2-1.3-1.2c-0.4,0-0.7,0.1-0.9,0.3s-0.4,0.5-0.4,0.9H46.5z"/>
	<path d="M52.1,7.6V6.8c-0.3,0.7-0.8,1-1.5,1c-0.7,0-1.2-0.2-1.5-0.7c-0.4-0.4-0.5-1-0.5-1.6c0-0.7,0.2-1.2,0.5-1.6
		c0.4-0.5,0.9-0.7,1.5-0.7c0.7,0,1.3,0.3,1.6,1V0h0.6v7.6H52.1z M49.2,5.4c0,0.5,0.1,0.9,0.3,1.2c0.3,0.3,0.6,0.5,1.1,0.5
		c0.5,0,0.9-0.2,1.1-0.6c0.2-0.3,0.3-0.8,0.3-1.3c0-0.5-0.1-0.9-0.3-1.2c-0.3-0.3-0.6-0.5-1.1-0.5c-0.5,0-0.9,0.2-1.1,0.6
		C49.3,4.5,49.2,4.9,49.2,5.4z"/>
	<path d="M54.6,1.5c0-0.1,0-0.2,0.1-0.3s0.2-0.1,0.3-0.1s0.2,0,0.3,0.1c0.1,0.1,0.1,0.2,0.1,0.3c0,0.1,0,0.2-0.1,0.3
		C55.3,2,55.2,2,55.1,2c-0.1,0-0.2,0-0.3-0.1C54.6,1.8,54.6,1.7,54.6,1.5z M54.7,7.6V3.2h0.6v4.3H54.7z"/>
	<path d="M57.5,3.8h-0.8V3.2h0.8V1.5h0.6v1.8H59v0.5h-0.9v3.8h-0.6V3.8z"/>
	<path d="M60.2,1.5c0-0.1,0-0.2,0.1-0.3s0.2-0.1,0.3-0.1s0.2,0,0.3,0.1c0.1,0.1,0.1,0.2,0.1,0.3c0,0.1,0,0.2-0.1,0.3
		C60.9,2,60.8,2,60.7,2c-0.1,0-0.2,0-0.3-0.1C60.2,1.8,60.2,1.7,60.2,1.5z M60.3,7.6V3.2H61v4.3H60.3z"/>
	<path d="M65,7.8c-0.6,0-1.2-0.2-1.7-0.7c-0.4-0.4-0.7-1-0.7-1.6c0-0.6,0.2-1.2,0.7-1.7c0.5-0.5,1-0.7,1.6-0.7
		c0.7,0,1.2,0.2,1.7,0.7s0.7,1,0.7,1.7c0,0.6-0.2,1.2-0.7,1.6C66.2,7.5,65.6,7.8,65,7.8z M65,7.2c0.5,0,0.9-0.2,1.2-0.5
		c0.3-0.3,0.5-0.8,0.5-1.2c0-0.5-0.2-0.9-0.5-1.3S65.5,3.6,65,3.6s-0.9,0.2-1.2,0.5c-0.3,0.3-0.5,0.8-0.5,1.3c0,0.5,0.2,0.9,0.5,1.2
		C64.1,7,64.5,7.2,65,7.2z"/>
	<path d="M69,7.6V3.2h0.6v0.7c0.4-0.6,0.9-0.8,1.5-0.8c0.5,0,0.9,0.1,1.1,0.4s0.4,0.7,0.4,1.1v2.9h-0.6V4.9c0-0.9-0.4-1.3-1.1-1.3
		c-0.9,0-1.3,0.6-1.3,1.7v2.3H69z"/>
</g>
<g>
	<path d="M0.5,30.8L9,14.1H0v-1.4h11.4l-9.4,19L0.5,30.8z"/>
	<path d="M11,19.5l2.5-6.8l1.9,0.8L12,19.9L11,19.5z M15.1,19.5l2.5-6.8l1.9,0.8l-3.3,6.4L15.1,19.5z"/>
	<path d="M28.7,19.8h1.7l3.5,8.5l3.4-8.5h1.7l-5.2,12L28.7,19.8z"/>
	<path d="M43.5,15.4c0-0.3,0.1-0.6,0.4-0.8s0.5-0.3,0.9-0.3s0.6,0.1,0.9,0.3c0.2,0.2,0.4,0.5,0.4,0.8c0,0.3-0.1,0.6-0.3,0.9
		c-0.2,0.2-0.5,0.3-0.9,0.3c-0.3,0-0.6-0.1-0.9-0.3C43.6,16,43.5,15.8,43.5,15.4z M43.9,31.1V19.8h1.6v11.3H43.9z"/>
	<path d="M52.1,31.1V19.8h1.5v1.7c0.9-1.4,2.2-2.2,4-2.2c1.3,0,2.3,0.4,3,1.1s1.1,1.7,1.1,3v7.6H60v-6.9c0-2.2-1-3.3-2.9-3.3
		c-2.3,0-3.5,1.5-3.5,4.4v5.9H52.1z"/>
	<path d="M66.4,19.8H68l3.2,8.8l3-8.8h1.7l-5.8,16.9h-1.6l2-5.7L66.4,19.8z"/>
	<path d="M82.4,31.1h-1.6V11.4h1.6V31.1z"/>
</g>
<g>
	<path d="M14.4,42l-0.3,2.6h-0.3l0.1-0.4c-0.2,0.3-0.5,0.5-0.9,0.5c-0.3,0-0.6-0.1-0.8-0.4c-0.2-0.2-0.3-0.5-0.3-0.9
		c0-0.4,0.1-0.7,0.3-1c0.2-0.3,0.6-0.5,1-0.5c0.4,0,0.7,0.2,0.9,0.6l0.1-0.5H14.4z M13,44.4c0.3,0,0.5-0.1,0.7-0.4
		c0.2-0.2,0.2-0.5,0.2-0.8c0-0.3-0.1-0.5-0.2-0.7c-0.1-0.2-0.4-0.3-0.6-0.3c-0.3,0-0.5,0.1-0.7,0.4c-0.2,0.2-0.2,0.5-0.2,0.8
		c0,0.3,0.1,0.5,0.2,0.7C12.5,44.3,12.7,44.4,13,44.4z"/>
	<path d="M16.3,44.7L15.4,42h0.4l0.6,2l1.2-2H18L16.3,44.7z"/>
	<path d="M21.3,42L21,44.6h-0.3l0.1-0.4c-0.2,0.3-0.5,0.5-0.9,0.5c-0.3,0-0.6-0.1-0.8-0.4c-0.2-0.2-0.3-0.5-0.3-0.9
		c0-0.4,0.1-0.7,0.3-1c0.2-0.3,0.6-0.5,1-0.5c0.4,0,0.7,0.2,0.9,0.6L21,42H21.3z M19.9,44.4c0.3,0,0.5-0.1,0.7-0.4
		c0.2-0.2,0.2-0.5,0.2-0.8c0-0.3-0.1-0.5-0.2-0.7c-0.1-0.2-0.4-0.3-0.6-0.3c-0.3,0-0.5,0.1-0.7,0.4c-0.2,0.2-0.2,0.5-0.2,0.8
		c0,0.3,0.1,0.5,0.2,0.7C19.4,44.3,19.6,44.4,19.9,44.4z"/>
	<path d="M22.5,44.6l0.3-2.6h0.4l-0.3,2.6H22.5z M22.8,41c0-0.1,0-0.1,0.1-0.2s0.1-0.1,0.2-0.1s0.1,0,0.2,0.1s0.1,0.1,0.1,0.2
		c0,0.1,0,0.1-0.1,0.2s-0.1,0.1-0.2,0.1c-0.1,0-0.1,0-0.2-0.1C22.9,41.2,22.8,41.1,22.8,41z"/>
	<path d="M24.4,44.6L25,40h0.3l-0.6,4.5H24.4z"/>
	<path d="M28.8,42l-0.3,2.6h-0.3l0.1-0.4c-0.2,0.3-0.5,0.5-0.9,0.5c-0.3,0-0.6-0.1-0.8-0.4c-0.2-0.2-0.3-0.5-0.3-0.9
		c0-0.4,0.1-0.7,0.3-1c0.2-0.3,0.6-0.5,1-0.5c0.4,0,0.7,0.2,0.9,0.6l0.1-0.5H28.8z M27.4,44.4c0.3,0,0.5-0.1,0.7-0.4
		c0.2-0.2,0.2-0.5,0.2-0.8c0-0.3-0.1-0.5-0.2-0.7c-0.1-0.2-0.4-0.3-0.6-0.3c-0.3,0-0.5,0.1-0.7,0.4c-0.2,0.2-0.2,0.5-0.2,0.8
		c0,0.3,0.1,0.5,0.2,0.7C26.9,44.3,27.1,44.4,27.4,44.4z"/>
	<path d="M29.9,44.6l0.6-4.5h0.3l-0.3,2.3c0.2-0.3,0.5-0.5,0.9-0.5c0.3,0,0.6,0.1,0.8,0.4c0.2,0.2,0.3,0.5,0.3,0.9
		c0,0.4-0.1,0.7-0.3,1c-0.2,0.3-0.6,0.5-1,0.5c-0.4,0-0.7-0.2-0.9-0.6l-0.1,0.5H29.9z M31.4,42.2c-0.3,0-0.5,0.1-0.7,0.4
		c-0.2,0.2-0.2,0.5-0.2,0.8c0,0.3,0.1,0.5,0.2,0.7c0.1,0.2,0.4,0.3,0.6,0.3c0.3,0,0.5-0.1,0.7-0.4c0.2-0.2,0.2-0.5,0.2-0.8
		c0-0.3-0.1-0.5-0.2-0.7C31.9,42.3,31.7,42.2,31.4,42.2z"/>
	<path d="M33.7,44.6l0.6-4.5h0.3l-0.6,4.5H33.7z"/>
	<path d="M38.1,43.3h-2.2v0.1c0,0.3,0.1,0.5,0.2,0.7c0.2,0.2,0.4,0.3,0.7,0.3c0.4,0,0.6-0.2,0.9-0.5l0.2,0.2
		c-0.3,0.4-0.6,0.6-1.1,0.6c-0.4,0-0.7-0.1-0.9-0.3s-0.4-0.5-0.4-0.9c0-0.4,0.1-0.8,0.4-1.1c0.3-0.3,0.6-0.5,1-0.5
		c0.4,0,0.7,0.1,0.9,0.3c0.2,0.2,0.3,0.5,0.3,0.9C38.1,43.1,38.1,43.2,38.1,43.3z M37.7,43c0-0.3-0.1-0.5-0.2-0.6
		c-0.1-0.2-0.3-0.2-0.6-0.2c-0.5,0-0.9,0.3-1,0.9H37.7z"/>
	<path d="M43,44.6l0.1-1h-2l2.8-3.3l-0.4,3H44l0,0.3h-0.5l-0.1,1H43z M43.2,43.2l0.3-2.1l-1.7,2.1H43.2z"/>
	<path d="M45.1,45.1l2.3-4.9h0.3l-2.3,4.9H45.1z"/>
	<path d="M48.7,44.5l2.2-3.9h-2.1l0.1-0.4h2.6L49,44.7L48.7,44.5z"/>
	<path d="M52.1,45.1l2.3-4.9h0.3l-2.3,4.9H52.1z"/>
	<path d="M55.2,44.6l1.5-1.4c0.4-0.4,0.6-0.6,0.8-0.8c0.3-0.3,0.4-0.7,0.4-1c0-0.3-0.1-0.5-0.3-0.6c-0.2-0.1-0.4-0.2-0.7-0.2
		c-0.3,0-0.5,0.1-0.7,0.3C56.1,41,56,41.3,56,41.6h-0.4c0-0.4,0.1-0.8,0.4-1s0.6-0.4,1-0.4c0.4,0,0.7,0.1,0.9,0.3
		c0.2,0.2,0.4,0.5,0.4,0.9c0,0.5-0.5,1.2-1.4,2.1l-0.1,0.1l-0.7,0.6h1.9l0,0.3H55.2z"/>
	<path d="M62.2,41.9c0,0.8-0.2,1.5-0.5,2c-0.3,0.5-0.7,0.7-1.2,0.7c-0.4,0-0.8-0.2-1-0.6c-0.2-0.3-0.2-0.7-0.2-1.1
		c0-0.8,0.2-1.5,0.5-2.1c0.3-0.5,0.7-0.7,1.2-0.7c0.4,0,0.7,0.2,0.9,0.6C62.1,41.1,62.2,41.5,62.2,41.9z M61,40.6
		c-0.4,0-0.6,0.2-0.8,0.5c-0.3,0.5-0.5,1.2-0.5,2c0,0.9,0.3,1.3,0.8,1.3c0.5,0,0.8-0.3,1-1c0.2-0.5,0.2-1,0.2-1.5
		C61.8,41,61.5,40.6,61,40.6z"/>
	<path d="M64.2,44.6l0.5-3.9H64l0.1-0.3h1l-0.6,4.2H64.2z"/>
	<path d="M67.2,43.8c0.3,0.4,0.6,0.6,1,0.6c0.3,0,0.6-0.1,0.8-0.3c0.2-0.2,0.3-0.5,0.3-0.8c0-0.3-0.1-0.6-0.3-0.8
		c-0.2-0.2-0.5-0.3-0.8-0.3c-0.3,0-0.6,0.1-0.9,0.3l-0.1-0.1l0.7-2h1.7l0,0.3h-1.5l-0.5,1.3c0.2-0.1,0.4-0.1,0.6-0.1
		c0.4,0,0.8,0.1,1,0.4c0.3,0.2,0.4,0.6,0.4,1c0,0.4-0.1,0.8-0.4,1.1c-0.3,0.3-0.7,0.4-1.1,0.4c-0.6,0-1-0.2-1.3-0.6L67.2,43.8z"/>
</g>
</svg>
